<?xml version="1.0" encoding="UTF-8" standalone="no"?>
<!-- Created with Inkscape (http://www.inkscape.org/) -->
<svg
   xmlns:dc="http://purl.org/dc/elements/1.1/"
   xmlns:cc="http://web.resource.org/cc/"
   xmlns:rdf="http://www.w3.org/1999/02/22-rdf-syntax-ns#"
   xmlns:svg="http://www.w3.org/2000/svg"
   xmlns="http://www.w3.org/2000/svg"
   xmlns:sodipodi="http://sodipodi.sourceforge.net/DTD/sodipodi-0.dtd"
   xmlns:inkscape="http://www.inkscape.org/namespaces/inkscape"
   width="744.09448819"
   height="1052.3622047"
   id="svg2263"
   sodipodi:version="0.32"
   inkscape:version="0.44"
   inkscape:export-filename="flames_svg.png"
   inkscape:export-xdpi="30.958923"
   inkscape:export-ydpi="30.958923"
   sodipodi:docbase="/home/frode"
   sodipodi:docname="tmw_effects.svg">
  <defs
     id="defs2265" />
  <sodipodi:namedview
     id="base"
     pagecolor="#ffffff"
     bordercolor="#666666"
     borderopacity="1.0"
     gridtolerance="10000"
     guidetolerance="10"
     objecttolerance="10"
     inkscape:pageopacity="0.0"
     inkscape:pageshadow="2"
     inkscape:zoom="0.7"
     inkscape:cx="540.44424"
     inkscape:cy="591.33601"
     inkscape:document-units="px"
     inkscape:current-layer="layer1"
     inkscape:window-width="1280"
     inkscape:window-height="949"
     inkscape:window-x="0"
     inkscape:window-y="25" />
  <metadata
     id="metadata2268">
    <rdf:RDF>
      <cc:Work
         rdf:about="">
        <dc:format>image/svg+xml</dc:format>
        <dc:type
           rdf:resource="http://purl.org/dc/dcmitype/StillImage" />
      </cc:Work>
    </rdf:RDF>
  </metadata>
  <g
     inkscape:label="Layer 1"
     inkscape:groupmode="layer"
     id="layer1">
    <path
       style="fill:#f69000;fill-opacity:1;fill-rule:evenodd;stroke:#c52222;stroke-width:5.00000048;stroke-linecap:butt;stroke-linejoin:round;stroke-miterlimit:4;stroke-dasharray:none;stroke-opacity:1"
       d="M 79.394564,209.79298 C 68.080154,211.17095 44.015724,209.2407 44.015724,209.2407 C 44.015724,209.2407 76.051354,217.64522 73.020954,221.45925 C 69.990554,225.27328 61.332284,229.0873 57.436054,230.35864 C 53.539834,231.62999 75.185524,225.69706 82.977974,226.54462 C 90.770424,227.39218 95.532474,241.37694 95.532474,241.37694 C 95.532474,241.37694 96.831214,229.51108 105.9224,226.12084 C 115.01359,222.73059 140.55551,234.17267 140.55551,234.17267 C 140.55551,234.17267 121.07439,222.30681 119.77565,218.49278 C 118.47691,214.67876 152.24419,212.98363 152.24419,212.98363 C 152.24419,212.98363 121.94021,213.40742 120.20856,210.01717 C 118.47691,206.62692 131.03141,198.15131 131.03141,198.15131 L 79.394564,209.79298 z "
       id="path3228"
       sodipodi:nodetypes="ccssscscscscc"
       inkscape:export-filename="/home/frode/tmw_explo.png"
       inkscape:export-xdpi="41.973076"
       inkscape:export-ydpi="41.973076" />
    <path
       style="fill:#f69000;fill-opacity:1;fill-rule:evenodd;stroke:#dc0000;stroke-width:1.4989233;stroke-linecap:butt;stroke-linejoin:miter;stroke-miterlimit:4;stroke-dasharray:none;stroke-opacity:1"
       d="M -209.31367,16.066303 C -210.15241,16.042767 -213.31065,16.270222 -215.09844,17.02228 C -216.84079,17.75523 -217.8093,18.506442 -218.23733,20.097201 C -218.47908,20.995635 -217.60042,22.641633 -217.1628,23.200347 C -216.55348,23.978288 -216.06127,25.261354 -215.70626,26.004284 C -215.14911,27.170224 -215.69962,27.940624 -216.08074,28.516534 C -216.87289,29.713554 -217.02414,29.597314 -217.09317,31.158624 C -217.15809,32.627254 -215.78462,32.817234 -214.70324,33.108214 C -213.26107,33.496264 -211.69962,33.097834 -210.66294,32.285844 C -209.77635,31.591424 -209.12075,29.962324 -208.41791,29.171404 C -207.91889,28.609854 -204.54385,29.974874 -203.8187,30.006934 C -202.4067,30.069364 -201.05862,29.817474 -200.03433,29.015204 C -199.2508,28.401504 -200.26941,26.203904 -200.47092,25.782214 C -201.07551,24.516994 -202.20437,24.239929 -203.32943,23.706552 C -204.49044,23.156132 -204.6336,22.203854 -204.31739,21.028701 C -204.07996,20.146273 -203.06584,19.415518 -202.74983,18.937979 C -202.0437,17.870944 -203.4284,16.41894 -204.03701,15.878116 C -205.05679,14.971906 -206.0199,14.641067 -207.23425,14.314313 C -207.9379,14.124978 -208.47493,16.089839 -209.31367,16.066303 z "
       id="path2271"
       sodipodi:nodetypes="csssssssssssssssssz" />
    <path
       id="path2273"
       d="M -88.687557,12.266583 C -89.732297,12.618177 -93.522797,14.331782 -95.385627,16.070254 C -97.201127,17.764553 -98.054277,19.130201 -97.860117,21.285647 C -97.750457,22.503003 -97.633307,24.990114 -96.840247,25.480344 C -95.735997,26.162944 -92.833867,26.664914 -92.059047,27.419754 C -90.843057,28.604384 -91.172177,29.804004 -91.380707,30.686974 C -91.814127,32.522214 -92.053347,32.447554 -91.429937,34.403774 C -90.843537,36.243864 -86.494417,37.996144 -85.029167,37.864154 C -83.075067,37.688134 -83.900387,34.347024 -82.990757,32.875514 C -82.212827,31.617054 -82.143817,29.311084 -81.636227,28.017034 C -81.275827,27.098254 -78.208437,25.108274 -77.299887,24.818734 C -75.530737,24.254948 -72.269957,25.473984 -71.371217,24.020069 C -70.683707,22.907889 -72.936777,20.660767 -73.376577,20.232314 C -74.696107,18.946826 -76.213567,19.117496 -77.842667,18.970452 C -79.523827,18.81871 -83.241647,17.941348 -83.385077,16.349042 C -83.492777,15.153369 -79.464937,13.560538 -79.292027,12.828386 C -78.905667,11.192431 -81.271747,10.03066 -82.267497,9.6400752 C -83.935987,8.9856002 -85.273507,9.0147662 -86.918927,9.1629802 C -87.872357,9.2488622 -87.642817,11.91499 -88.687557,12.266583 z "
       style="fill:#f69000;fill-opacity:1;fill-rule:evenodd;stroke:#dc0000;stroke-width:1.4989233;stroke-linecap:butt;stroke-linejoin:miter;stroke-miterlimit:4;stroke-dasharray:none;stroke-opacity:1"
       sodipodi:nodetypes="csssssssssssssssssz" />
    <path
       sodipodi:nodetypes="csssssssssssssssssz"
       style="fill:#f69000;fill-opacity:1;fill-rule:evenodd;stroke:#dc0000;stroke-width:1.4989233;stroke-linecap:butt;stroke-linejoin:miter;stroke-miterlimit:4;stroke-dasharray:none;stroke-opacity:1"
       d="M -217.07655,81.548544 C -218.3024,82.400894 -219.1583,86.063024 -220.92375,89.028554 C -222.64434,91.918734 -225.80713,93.589284 -224.73952,96.319274 C -224.13655,97.861134 -225.23093,106.51607 -221.39856,106.5285 C -216.27796,106.54344 -218.73768,98.845424 -213.59011,99.962454 C -211.34299,100.45008 -212.81981,104.86941 -212.75714,106.09668 C -212.62686,108.64753 -208.25532,109.06915 -206.70476,111.37772 C -205.24625,113.54923 -196.78574,113.32714 -194.92991,110.46007 C -193.48586,108.22915 -201.64401,109.7414 -201.8739,104.91396 C -201.96923,102.91229 -201.26372,100.81424 -201.09287,98.939224 C -200.97157,97.607964 -199.87588,93.859814 -198.80368,93.139664 C -196.71588,91.737384 -189.87254,92.089824 -189.25341,89.858974 C -188.7798,88.152474 -192.55994,86.081804 -193.29396,85.690864 C -195.49628,84.517904 -197.40539,85.313704 -199.57984,85.738504 C -201.82377,86.176864 -207.84756,86.869904 -208.63624,84.853154 C -209.22846,83.338764 -203.73555,79.315704 -203.78753,78.298064 C -203.90366,76.024204 -207.42035,75.407904 -208.86315,75.276444 C -211.28072,75.056154 -213.0093,75.599874 -215.09332,76.414854 C -216.3009,76.887094 -215.85069,80.696184 -217.07655,81.548544 z "
       id="path2275" />
    <path
       id="path2277"
       d="M -102.82145,86.299144 C -103.85623,87.934524 -99.179587,89.741234 -99.794487,94.172044 C -100.39376,98.490254 -107.18417,105.07624 -104.53407,107.79873 C -103.03735,109.33635 -99.985197,120.2236 -95.401817,118.30805 C -89.278587,115.7466 -96.093537,107.79236 -89.383017,106.53348 C -86.453597,105.98393 -85.991557,112.00552 -85.298567,113.43959 C -83.858197,116.42028 -78.424767,114.72181 -75.410137,116.69775 C -72.574467,118.55638 -61.472367,114.0846 -61.809217,109.67078 C -62.492967,100.71172 -72.759647,110.48141 -78.035217,109.54303 C -80.592387,109.08818 -74.232177,101.34181 -74.972517,99.016534 C -75.498147,97.365604 -76.505607,92.765804 -75.587757,91.365694 C -73.800507,88.639404 -65.021497,85.184994 -65.405647,82.208984 C -65.699507,79.932454 -71.257187,79.363694 -72.330757,79.266544 C -75.551837,78.975084 -77.431137,80.887094 -79.814207,82.489684 C -82.273417,84.143484 -93.884807,90.311704 -94.930847,87.707214 C -97.257437,81.914354 -88.012457,76.912644 -88.587077,75.723524 C -89.871047,73.066504 -94.381557,74.101884 -96.170957,74.671644 C -99.169297,75.626314 -100.95994,77.146344 -103.03848,79.169354 C -104.24288,80.341594 -101.78667,84.663754 -102.82145,86.299144 z "
       style="fill:#f69000;fill-opacity:1;fill-rule:evenodd;stroke:#dc0000;stroke-width:1.4989233;stroke-linecap:butt;stroke-linejoin:miter;stroke-miterlimit:4;stroke-dasharray:none;stroke-opacity:1"
       sodipodi:nodetypes="csssssssssssssssssz" />
    <path
       sodipodi:nodetypes="csssssssssssssssssz"
       style="fill:#f69000;fill-opacity:1;fill-rule:evenodd;stroke:#dc0000;stroke-width:1.4989233;stroke-linecap:butt;stroke-linejoin:miter;stroke-miterlimit:4;stroke-dasharray:none;stroke-opacity:1"
       d="M -229.60767,167.03018 C -230.06364,169.2541 -220.32818,164.15448 -219.16242,169.27072 C -218.02628,174.25696 -228.73607,183.8744 -219.987,188.32994 C -217.74395,189.47224 -210.57288,197.02971 -204.74652,196.92255 C -193.52533,196.70828 -213.7042,187.06304 -206.46016,183.64651 C -195.33759,178.40073 -194.89917,189.09746 -193.54325,190.38288 C -190.725,193.05457 -191.03698,188.07787 -186.90896,188.99342 C -183.02601,189.85459 -172.70347,180.33736 -174.90634,175.63508 C -179.37766,166.0905 -186.58316,181.07282 -192.76065,182.23465 C -195.755,182.79782 -185.10076,173.08411 -189.49022,166.41652 C -192.62941,161.64808 -200.62064,165.33507 -200.19523,163.41784 C -199.36685,159.68459 -188.60078,152.67667 -190.25833,149.57137 C -191.52629,147.19596 -197.85976,146.31088 -199.07791,146.65023 C -202.73276,147.66841 -206.80479,150.03621 -205.94911,153.29457 C -202.39272,166.83695 -218.1368,167.72021 -220.36619,165.29743 C -225.32475,159.90873 -217.25972,150.58151 -218.38404,149.51566 C -220.89627,147.13407 -225.41462,150.14347 -227.14108,151.51177 C -230.03398,153.80452 -231.36711,156.21584 -232.80717,159.29855 C -233.6416,161.08483 -229.1517,164.80626 -229.60767,167.03018 z "
       id="path2279" />
    <path
       id="path2281"
       d="M -110.5892,181.79517 C -110.11232,184.48692 -103.50247,176.73723 -97.904087,179.66703 C -74.290667,192.02461 -95.284237,195.12387 -83.514267,196.22795 C -80.496727,196.511 -69.115937,201.78765 -62.642537,199.08166 C -50.178667,193.8613 -89.892727,193.306 -83.301677,186.26641 C -73.181697,175.45776 -60.662207,187.23664 -58.574037,188.07366 C -54.233807,189.81336 -58.076957,177.5289 -53.050387,176.7215 C -48.322227,175.96202 -39.708987,167.57939 -44.261847,163.2936 C -53.503117,154.59439 -54.488677,173.27834 -70.308707,180.74684 C -73.626077,182.31294 -64.084517,164.96294 -71.957057,159.44778 C -77.587237,155.50352 -88.748877,164.89055 -89.123817,162.55566 C -89.853887,158.00913 -77.917297,147.95583 -81.150907,145.2156 C -83.624487,143.11943 -91.105927,144.93983 -92.318657,145.86036 C -95.957267,148.62227 -99.414627,153.04452 -97.059597,156.34753 C -89.209007,167.35822 -82.026967,165.05657 -101.01513,175.75378 C -108.69743,180.0817 -104.07077,157.9026 -105.80227,157.20855 C -109.6712,155.65776 -113.39235,161.03182 -114.71723,163.32973 C -116.93726,167.18014 -117.35893,170.47098 -117.60224,174.56081 C -117.74323,176.93066 -111.06607,179.10343 -110.5892,181.79517 z "
       style="fill:#f69000;fill-opacity:1;fill-rule:evenodd;stroke:#dc0000;stroke-width:1.4989233;stroke-linecap:butt;stroke-linejoin:miter;stroke-miterlimit:4;stroke-dasharray:none;stroke-opacity:1"
       sodipodi:nodetypes="csssssssssssssssssz" />
    <path
       style="fill:#f69000;fill-opacity:1;fill-rule:evenodd;stroke:#c52222;stroke-width:5.00000048;stroke-linecap:butt;stroke-linejoin:round;stroke-miterlimit:4;stroke-dasharray:none;stroke-opacity:1"
       d="M 69.333094,212.88773 C 64.027044,208.75064 58.691994,193.45366 61.578104,190.01205 C 68.516784,181.73786 64.630684,173.87308 73.822834,170.54338 C 82.451904,167.41766 86.883884,172.49025 92.598084,172.97697 C 98.312294,173.46368 99.726354,163.43996 110.55702,167.62308 C 119.44514,171.05594 117.69782,184.35273 121.98544,185.14489 C 128.84068,186.41143 136.13237,195.69192 127.29149,203.1534 C 118.69368,210.40972 122.80175,219.21505 108.51623,217.26819 C 94.230724,215.32132 93.414394,223.5955 83.618614,222.13535 C 73.822834,220.6752 74.639144,217.02483 69.333094,212.88773 z "
       id="path3226"
       sodipodi:nodetypes="cssssssssz"
       inkscape:export-filename="/home/frode/tmw_explo.png"
       inkscape:export-xdpi="41.973076"
       inkscape:export-ydpi="41.973076" />
    <path
       sodipodi:nodetypes="ccssscscscscc"
       id="path3230"
       d="M 217.34625,205.36005 C 198.89314,212.25948 178.65226,212.69385 178.65226,212.69385 C 178.65226,212.69385 213.49743,219.7129 210.00874,224.10373 C 206.52004,228.49458 196.55233,232.88542 192.06687,234.34903 C 187.5814,235.81264 212.50067,228.98244 221.4716,229.95819 C 230.44254,230.93393 235.92478,247.03367 235.92478,247.03367 C 235.92478,247.03367 237.41993,233.37329 247.88603,229.47032 C 258.35211,225.56735 287.75685,238.73987 287.75685,238.73987 C 287.75685,238.73987 265.32951,225.07948 263.83435,220.68864 C 262.3392,216.2978 301.21326,214.34632 301.21326,214.34632 C 301.21326,214.34632 266.32628,214.83419 264.33274,210.93122 C 262.3392,207.02825 276.79237,197.27083 276.79237,197.27083 L 217.34625,205.36005 z "
       style="fill:#f69000;fill-opacity:1;fill-rule:evenodd;stroke:#c52222;stroke-width:5.00000048;stroke-linecap:butt;stroke-linejoin:round;stroke-miterlimit:4;stroke-dasharray:none;stroke-opacity:1"
       inkscape:export-filename="/home/frode/tmw_explo.png"
       inkscape:export-xdpi="41.973076"
       inkscape:export-ydpi="41.973076" />
    <path
       sodipodi:nodetypes="cssssssssz"
       id="path3232"
       d="M 195.6156,214.8989 C 187.49309,209.98734 179.32618,191.82674 183.74424,187.74085 C 194.36598,177.91773 188.41714,168.58065 202.48849,164.62763 C 215.6979,160.91676 222.48237,166.93896 231.22968,167.51679 C 239.977,168.09461 242.14165,156.19443 258.72125,161.16064 C 272.3272,165.23614 269.65239,181.0221 276.21589,181.96256 C 286.7099,183.46619 297.87203,194.48401 284.3384,203.34229 C 271.17686,211.95701 277.4655,222.4107 255.59721,220.09938 C 233.72892,217.78806 232.47929,227.61118 217.48389,225.87769 C 202.48849,224.1442 203.73811,219.81047 195.6156,214.8989 z "
       style="fill:#f69000;fill-opacity:1;fill-rule:evenodd;stroke:#c52222;stroke-width:5.00000048;stroke-linecap:butt;stroke-linejoin:round;stroke-miterlimit:4;stroke-dasharray:none;stroke-opacity:1"
       inkscape:export-filename="/home/frode/tmw_explo.png"
       inkscape:export-xdpi="41.973076"
       inkscape:export-ydpi="41.973076" />
    <path
       style="fill:#f69000;fill-opacity:1;fill-rule:evenodd;stroke:#c52222;stroke-width:5;stroke-linecap:butt;stroke-linejoin:round;stroke-miterlimit:4;stroke-dasharray:none;stroke-opacity:1"
       d="M 391.17451,200.69673 C 360.6764,212.23633 327.22357,212.96284 327.22357,212.96284 C 327.22357,212.96284 384.81343,224.70249 379.04754,232.04635 C 373.28165,239.39024 356.80766,246.73411 349.39437,249.18206 C 341.98108,251.63002 383.16605,240.20621 397.99263,241.8382 C 412.81922,243.47016 421.87991,270.39767 421.87991,270.39767 C 421.87991,270.39767 424.351,247.5501 441.64869,241.0222 C 458.94636,234.49432 507.54463,256.52593 507.54463,256.52593 C 507.54463,256.52593 470.47816,233.67833 468.00705,226.33447 C 465.53597,218.9906 529.78452,215.72666 529.78452,215.72666 C 529.78452,215.72666 472.12556,216.54264 468.83077,210.01476 C 465.53597,203.48687 489.42324,187.16716 489.42324,187.16716 L 391.17451,200.69673 z "
       id="path3234"
       sodipodi:nodetypes="ccssscscscscc"
       inkscape:export-filename="/home/frode/tmw_explo.png"
       inkscape:export-xdpi="41.973076"
       inkscape:export-ydpi="41.973076" />
    <path
       style="fill:#f69000;fill-opacity:1;fill-rule:evenodd;stroke:#c52222;stroke-width:5.00000048;stroke-linecap:butt;stroke-linejoin:round;stroke-miterlimit:4;stroke-dasharray:none;stroke-opacity:1"
       d="M 370.85411,213.41741 C 323.04126,177.00947 349.72985,174.42859 355.45922,167.52402 C 369.23359,150.92428 355.80479,116.57447 374.05264,109.8944 C 391.18273,103.62354 405.69518,132.37167 417.03877,133.34811 C 428.38238,134.32456 445.47522,78.500584 466.97579,86.892804 C 484.62011,93.779844 466.75104,157.01062 475.37729,157.75949 C 537.55745,163.15756 503.46117,178.91903 485.91064,193.88831 C 468.84263,208.446 492.71208,243.25417 452.92451,227.91979 C 426.213,217.625 417.23071,249.18512 397.78453,246.25577 C 378.33836,243.3264 403.55831,238.32061 370.85411,213.41741 z "
       id="path3236"
       sodipodi:nodetypes="csssssssss"
       inkscape:export-filename="/home/frode/tmw_explo.png"
       inkscape:export-xdpi="41.973076"
       inkscape:export-ydpi="41.973076" />
    <path
       sodipodi:nodetypes="ccssscscscscc"
       id="path3238"
       d="M 89.456753,504.91177 C 52.886714,518.82816 12.773693,519.70431 12.773693,519.70431 C 12.773693,519.70431 81.829233,533.86195 74.915401,542.71841 C 68.001568,551.57491 48.247738,560.43138 39.358522,563.38353 C 30.469305,566.33569 79.853873,552.55894 97.632306,554.52707 C 115.41075,556.49516 126.27536,588.96888 126.27536,588.96888 C 126.27536,588.96888 129.23842,561.41544 149.97994,553.543 C 170.72144,545.67059 228.99524,572.24 228.99524,572.24 C 228.99524,572.24 184.54913,544.68653 181.58604,535.83007 C 178.62299,526.9736 255.66291,523.03739 255.66291,523.03739 C 255.66291,523.03739 186.52452,524.02143 182.57376,516.14902 C 178.62299,508.27659 207.26602,488.59555 207.26602,488.59555 L 89.456753,504.91177 z "
       style="opacity:0.67032967;fill:#f69000;fill-opacity:1;fill-rule:evenodd;stroke:#c52222;stroke-width:4.99999857;stroke-linecap:butt;stroke-linejoin:round;stroke-miterlimit:4;stroke-dasharray:none;stroke-opacity:1"
       inkscape:export-filename="/home/frode/tmw_explo.png"
       inkscape:export-xdpi="41.973076"
       inkscape:export-ydpi="41.973076" />
    <path
       sodipodi:nodetypes="csssssssss"
       id="path3240"
       d="M 67.996966,496.27454 C 67.608233,466.40378 -37.413008,435.85715 54.030648,448.95258 C 75.383262,452.01044 37.233361,408.00303 79.766925,394.1801 C 97.115566,388.54199 111.40947,399.51451 122.75306,400.49095 C 134.09667,401.4674 151.18951,362.78629 172.69008,371.17851 C 190.3344,378.06555 176.75104,419.86775 185.37729,420.61662 C 247.55745,426.01469 209.17546,463.20473 191.62493,478.17401 C 174.55692,492.7317 239.85494,557.53987 147.21023,523.63406 C 120.32732,513.79554 122.945,533.47082 103.49882,530.54147 C 84.052645,527.6121 69.113562,582.07533 67.996966,496.27454 z "
       style="fill:#f69000;fill-opacity:1;fill-rule:evenodd;stroke:#c52222;stroke-width:5.00000048;stroke-linecap:butt;stroke-linejoin:round;stroke-miterlimit:4;stroke-dasharray:none;stroke-opacity:1"
       inkscape:export-filename="/home/frode/tmw_explo.png"
       inkscape:export-xdpi="41.973076"
       inkscape:export-ydpi="41.973076" />
    <path
       style="opacity:0.3021978;fill:#f69000;fill-opacity:1;fill-rule:evenodd;stroke:#c52222;stroke-width:4.99999857;stroke-linecap:butt;stroke-linejoin:round;stroke-miterlimit:4;stroke-dasharray:none;stroke-opacity:1"
       d="M 369.37926,500.40342 C 328.07725,516.17208 282.77379,517.16485 282.77379,517.16485 C 282.77379,517.16485 360.76477,533.20687 352.95633,543.24213 C 345.14788,553.27743 322.83801,563.31269 312.79857,566.65777 C 302.75914,570.00287 358.53381,554.39243 378.61269,556.62252 C 398.69159,558.85256 410.96201,595.64853 410.96201,595.64853 C 410.96201,595.64853 414.30848,564.42773 437.73384,555.50747 C 461.15919,546.58724 526.97333,576.69304 526.97333,576.69304 C 526.97333,576.69304 476.77612,545.4722 473.42962,535.43695 C 470.08316,525.40168 557.09166,520.94156 557.09166,520.94156 C 557.09166,520.94156 479.00711,522.05658 474.54514,513.13635 C 470.08316,504.2161 502.43246,481.91551 502.43246,481.91551 L 369.37926,500.40342 z "
       id="path3242"
       sodipodi:nodetypes="ccssscscscscc"
       inkscape:export-filename="/home/frode/tmw_explo.png"
       inkscape:export-xdpi="41.973076"
       inkscape:export-ydpi="41.973076" />
    <path
       style="fill:#f69000;fill-opacity:1;fill-rule:evenodd;stroke:#c52222;stroke-width:5.00000143;stroke-linecap:butt;stroke-linejoin:round;stroke-miterlimit:4;stroke-dasharray:none;stroke-opacity:1"
       d="M 350.85412,468.86288 C 345.04057,436.30848 245.44414,401.73976 336.8878,416.28865 C 358.24041,419.6859 320.09051,370.79411 362.62408,355.43698 C 379.97272,349.17309 394.26662,361.36345 405.61021,362.44827 C 416.95382,363.53309 434.04666,320.55877 455.54723,329.88244 C 473.19155,337.53387 459.60819,383.9757 468.23444,384.80768 C 530.4146,390.80489 499.17547,424.187 481.62494,440.81772 C 464.55693,456.99117 481.28352,495.6627 452.92452,499.25903 C 424.48252,502.86588 410.08786,494.31629 386.35597,495.82319 C 366.72244,497.06987 356.25642,499.11442 350.85412,468.86288 z "
       id="path3244"
       sodipodi:nodetypes="csssssssss"
       inkscape:export-filename="/home/frode/tmw_explo.png"
       inkscape:export-xdpi="41.973076"
       inkscape:export-ydpi="41.973076" />
  </g>
</svg>
