<?xml version="1.0" encoding="UTF-8" standalone="no"?>
<!-- Created with Inkscape (http://www.inkscape.org/) -->
<svg
   xmlns:ns="http://creativecommons.org/ns#"
   xmlns:dc="http://purl.org/dc/elements/1.1/"
   xmlns:cc="http://web.resource.org/cc/"
   xmlns:rdf="http://www.w3.org/1999/02/22-rdf-syntax-ns#"
   xmlns:svg="http://www.w3.org/2000/svg"
   xmlns="http://www.w3.org/2000/svg"
   xmlns:sodipodi="http://sodipodi.sourceforge.net/DTD/sodipodi-0.dtd"
   xmlns:inkscape="http://www.inkscape.org/namespaces/inkscape"
   width="744.09448819"
   height="1052.3622047"
   id="svg2"
   sodipodi:version="0.32"
   inkscape:version="0.45"
   sodipodi:docname="galeon.svg"
   inkscape:output_extension="org.inkscape.output.svg.inkscape"
   inkscape:export-filename="C:\Documents and Settings\dago\Pulpit\galeon.png"
   inkscape:export-xdpi="90.229301"
   inkscape:export-ydpi="90.229301"
   sodipodi:docbase="C:\Documents and Settings\iru\Pulpit\TMW-LODZIE"
   sodipodi:modified="true">
  <defs
     id="defs4">
    <inkscape:perspective
       sodipodi:type="inkscape:persp3d"
       inkscape:vp_x="0 : 526.18109 : 1"
       inkscape:vp_y="0 : 1000 : 0"
       inkscape:vp_z="744.09448 : 526.18109 : 1"
       inkscape:persp3d-origin="372.04724 : 350.78739 : 1"
       id="perspective10" />
    <inkscape:perspective
       id="perspective3453"
       inkscape:persp3d-origin="372.04724 : 350.78739 : 1"
       inkscape:vp_z="744.09448 : 526.18109 : 1"
       inkscape:vp_y="0 : 1000 : 0"
       inkscape:vp_x="0 : 526.18109 : 1"
       sodipodi:type="inkscape:persp3d" />
    <clipPath
       clipPathUnits="userSpaceOnUse"
       id="clipPath3461">
      <rect
         style="opacity:1;fill:#ffffff;fill-opacity:1;fill-rule:nonzero;stroke:#000000;stroke-width:1;stroke-linecap:butt;stroke-linejoin:miter;marker:none;marker-start:none;marker-mid:none;marker-end:none;stroke-miterlimit:4;stroke-dasharray:none;stroke-dashoffset:0;stroke-opacity:1;visibility:visible;display:inline;overflow:visible;enable-background:accumulate"
         id="rect3463"
         width="50.002552"
         height="74.751289"
         x="190.91884"
         y="235.65385" />
    </clipPath>
  </defs>
  <sodipodi:namedview
     id="base"
     pagecolor="#ffffff"
     bordercolor="#666666"
     borderopacity="1.0"
     gridtolerance="10000"
     guidetolerance="10"
     objecttolerance="10"
     inkscape:pageopacity="0.0"
     inkscape:pageshadow="2"
     inkscape:zoom="1"
     inkscape:cx="375.82909"
     inkscape:cy="669.16615"
     inkscape:document-units="px"
     inkscape:current-layer="layer1"
     showgrid="false"
     inkscape:window-width="1024"
     inkscape:window-height="699"
     inkscape:window-x="-4"
     inkscape:window-y="-4"
     gridspacingx="32px"
     gridspacingy="32px"
     gridcolor="#ff3ff6"
     gridopacity="0.14509804"
     gridempspacing="8"
     showguides="true"
     inkscape:guide-bbox="true">
    <inkscape:grid
       type="xygrid"
       id="grid3469"
       visible="true"
       enabled="true"
       spacingx="32px"
       spacingy="32px"
       empspacing="8" />
    <sodipodi:guide
       orientation="horizontal"
       position="661.25"
       id="guide3446" />
    <sodipodi:guide
       orientation="horizontal"
       position="630.75"
       id="guide3448" />
  </sodipodi:namedview>
  <metadata
     id="metadata7">
    <rdf:RDF>
      <ns:Work
         rdf:about="">
        <dc:format>image/svg+xml</dc:format>
        <dc:type
           rdf:resource="http://purl.org/dc/dcmitype/StillImage" />
      </ns:Work>
      <cc:Work
         rdf:about="">
        <dc:format>image/svg+xml</dc:format>
        <dc:type
           rdf:resource="http://purl.org/dc/dcmitype/StillImage" />
      </cc:Work>
    </rdf:RDF>
  </metadata>
  <g
     inkscape:label="Layer 1"
     inkscape:groupmode="layer"
     id="layer1">
    <g
       style="stroke:#9b9b9b;stroke-width:1.08237135;stroke-miterlimit:4;stroke-dasharray:none;stroke-opacity:1"
       id="g3381"
       transform="matrix(0.6467281,0,0,0.6467281,337.38981,155.49962)">
      <g
         style="fill:#ffffff;stroke:#9b9b9b;stroke-width:1.80462849;stroke-miterlimit:4;stroke-dasharray:none;stroke-opacity:1"
         transform="matrix(0.5997752,0,0,0.5997752,352.42874,150.84304)"
         id="g3383">
        <path
           style="opacity:1;fill:#ffffff;fill-opacity:1;fill-rule:nonzero;stroke:#9b9b9b;stroke-width:1.80462849;stroke-linecap:butt;stroke-linejoin:miter;marker:none;marker-start:none;marker-mid:none;marker-end:none;stroke-miterlimit:4;stroke-dasharray:none;stroke-dashoffset:0;stroke-opacity:1;visibility:visible;display:inline;overflow:visible;enable-background:accumulate"
           d="M 93.9375,224.53125 L 93.9375,260.15625 L 94.21875,260.15625 C 94.291844,271.52927 107.5747,280.71874 123.9375,280.71875 C 140.3003,280.71875 153.58315,271.52927 153.65625,260.15625 L 153.78125,260.15625 L 153.78125,224.53125 L 93.9375,224.53125 z "
           id="path3385" />
        <path
           sodipodi:type="arc"
           style="opacity:1;fill:#ffffff;fill-opacity:1;fill-rule:nonzero;stroke:#9b9b9b;stroke-width:2.15752363;stroke-linecap:butt;stroke-linejoin:miter;marker:none;marker-start:none;marker-mid:none;marker-end:none;stroke-miterlimit:4;stroke-dasharray:none;stroke-dashoffset:0;stroke-opacity:1;visibility:visible;display:inline;overflow:visible;enable-background:accumulate"
           id="path3387"
           sodipodi:cx="123.92857"
           sodipodi:cy="265.57648"
           sodipodi:rx="29.642857"
           sodipodi:ry="29.642857"
           d="M 153.57143 265.57648 A 29.642857 29.642857 0 1 1  94.285717,265.57648 A 29.642857 29.642857 0 1 1  153.57143 265.57648 z"
           transform="matrix(1.0027589,0,0,0.6976987,-0.3419099,40.755546)" />
      </g>
    </g>
    <g
       style="stroke:#9b9b9b;stroke-width:0.69999999;stroke-miterlimit:4;stroke-dasharray:none;stroke-opacity:1"
       id="g3365"
       transform="translate(226.64286,64.71428)">
      <g
         style="fill:#ffffff;stroke:#9b9b9b;stroke-width:1.16710389;stroke-miterlimit:4;stroke-dasharray:none;stroke-opacity:1"
         transform="matrix(0.5997752,0,0,0.5997752,352.42874,150.84304)"
         id="g3367">
        <path
           style="opacity:1;fill:#ffffff;fill-opacity:1;fill-rule:nonzero;stroke:#9b9b9b;stroke-width:1.16710389;stroke-linecap:butt;stroke-linejoin:miter;marker:none;marker-start:none;marker-mid:none;marker-end:none;stroke-miterlimit:4;stroke-dasharray:none;stroke-dashoffset:0;stroke-opacity:1;visibility:visible;display:inline;overflow:visible;enable-background:accumulate"
           d="M 93.9375,224.53125 L 93.9375,260.15625 L 94.21875,260.15625 C 94.291844,271.52927 107.5747,280.71874 123.9375,280.71875 C 140.3003,280.71875 153.58315,271.52927 153.65625,260.15625 L 153.78125,260.15625 L 153.78125,224.53125 L 93.9375,224.53125 z "
           id="path3369" />
        <path
           sodipodi:type="arc"
           style="opacity:1;fill:#ffffff;fill-opacity:1;fill-rule:nonzero;stroke:#9b9b9b;stroke-width:1.39533126;stroke-linecap:butt;stroke-linejoin:miter;marker:none;marker-start:none;marker-mid:none;marker-end:none;stroke-miterlimit:4;stroke-dasharray:none;stroke-dashoffset:0;stroke-opacity:1;visibility:visible;display:inline;overflow:visible;enable-background:accumulate"
           id="path3371"
           sodipodi:cx="123.92857"
           sodipodi:cy="265.57648"
           sodipodi:rx="29.642857"
           sodipodi:ry="29.642857"
           d="M 153.57143 265.57648 A 29.642857 29.642857 0 1 1  94.285717,265.57648 A 29.642857 29.642857 0 1 1  153.57143 265.57648 z"
           transform="matrix(1.0027589,0,0,0.6976987,-0.3419099,40.755546)" />
      </g>
    </g>
    <path
       style="fill:#ffffff;fill-rule:evenodd;stroke:#9b9b9b;stroke-width:0.69999999;stroke-linecap:butt;stroke-linejoin:miter;stroke-miterlimit:4;stroke-dasharray:none;stroke-opacity:1"
       d="M 354.84033,406.97165 C 321.43831,407.12547 280.18396,410.90781 216.65944,424.46632 C 193.79007,429.34751 166.51653,440.87728 157.4978,444.83452 L 156.5545,444.83452 C 156.67323,444.88696 156.88668,444.98127 157.01406,445.03735 C 156.88668,445.09343 156.67323,445.18774 156.5545,445.24019 L 157.4978,445.24019 C 166.51653,449.19742 193.79007,460.72721 216.65944,465.60838 C 280.18396,479.16689 321.43831,482.94923 354.84033,483.10305 C 384.31271,483.23876 407.65846,480.54664 434.77868,479.26604 C 478.84429,477.15681 609.82624,463.61017 631.80679,445.24019 L 632.29053,445.24019 C 632.21549,445.17223 632.12671,445.10518 632.04866,445.03735 C 632.12671,444.96952 632.21549,444.90249 632.29053,444.83452 L 631.80679,444.83452 C 609.82624,426.46453 478.84429,412.9179 434.77868,410.80866 C 407.65846,409.52805 384.31271,406.83594 354.84033,406.97165 z "
       id="path2413" />
    <path
       style="fill:#ffffff;fill-rule:evenodd;stroke:#9b9b9b;stroke-width:0.69999999;stroke-linecap:butt;stroke-linejoin:miter;stroke-miterlimit:4;stroke-dasharray:none;stroke-opacity:1"
       d="M 352.75705,396.94745 C 317.59703,397.10936 274.1714,401.09077 207.30348,415.36289 C 183.23046,420.50098 154.52147,432.63758 145.02807,436.8031 L 144.03513,436.8031 C 144.16011,436.8583 144.38479,436.95757 144.51887,437.01661 C 144.38479,437.07564 144.16011,437.17491 144.03513,437.23012 L 145.02807,437.23012 C 154.52147,441.39563 183.23046,453.53225 207.30348,458.67032 C 274.1714,472.94244 317.59703,476.92385 352.75705,477.08576 C 383.78061,477.22862 408.35508,474.39481 436.90269,473.04681 C 483.28754,470.82656 621.16327,456.56694 644.3007,437.23012 L 644.8099,437.23012 C 644.73091,437.15858 644.63745,437.08801 644.5553,437.01661 C 644.63745,436.94521 644.73091,436.87465 644.8099,436.8031 L 644.3007,436.8031 C 621.16327,417.46627 483.28754,403.20666 436.90269,400.9864 C 408.35508,399.63839 383.78061,396.80459 352.75705,396.94745 z "
       id="path2411" />
    <path
       style="fill:#ffffff;fill-rule:evenodd;stroke:#9b9b9b;stroke-width:0.69999999;stroke-linecap:butt;stroke-linejoin:miter;stroke-miterlimit:4;stroke-dasharray:none;stroke-opacity:1"
       d="M 350.56414,386.71145 C 313.55359,386.88188 267.8424,391.07284 197.45512,406.09612 C 172.1151,411.50464 141.89511,424.28001 131.90205,428.66476 L 130.85684,428.66476 C 130.9884,428.72287 131.22491,428.82736 131.36605,428.88951 C 131.22491,428.95165 130.9884,429.05614 130.85684,429.11426 L 131.90205,429.11426 C 141.89511,433.49901 172.1151,446.27439 197.45512,451.68289 C 267.8424,466.70617 313.55359,470.89713 350.56414,471.06756 C 383.22052,471.21794 409.08838,468.23498 439.1385,466.81604 C 487.96465,464.47893 633.097,449.46881 657.45219,429.11426 L 657.98819,429.11426 C 657.90504,429.03895 657.80666,428.96467 657.72019,428.88951 C 657.80666,428.81435 657.90504,428.74008 657.98819,428.66476 L 657.45219,428.66476 C 633.097,408.31021 487.96465,393.30009 439.1385,390.96297 C 409.08838,389.54402 383.22052,386.56107 350.56414,386.71145 z "
       id="path2409" />
    <path
       style="fill:#ffffff;fill-rule:evenodd;stroke:#9b9b9b;stroke-width:0.69999999;stroke-linecap:butt;stroke-linejoin:miter;stroke-miterlimit:4;stroke-dasharray:none;stroke-opacity:1"
       d="M 348.2558,376.2525 C 309.29732,376.4319 261.18028,380.84344 187.08841,396.65742 C 160.4147,402.35059 128.60419,415.79835 118.08518,420.41388 L 116.98497,420.41388 C 117.12345,420.47505 117.37241,420.58504 117.52097,420.65046 C 117.37241,420.71587 117.12345,420.82586 116.98497,420.88704 L 118.08518,420.88704 C 128.60419,425.50256 160.4147,438.95033 187.08841,444.64349 C 261.18028,460.45747 309.29732,464.869 348.2558,465.04841 C 382.63094,465.2067 409.86026,462.06674 441.49197,460.57312 C 492.88791,458.113 645.65881,442.31288 671.29585,420.88704 L 671.86006,420.88704 C 671.77253,420.80776 671.66898,420.72957 671.57796,420.65046 C 671.66898,420.57134 671.77253,420.49316 671.86006,420.41388 L 671.29585,420.41388 C 645.65881,398.98804 492.88791,383.18791 441.49197,380.72778 C 409.86026,379.23415 382.63094,376.09421 348.2558,376.2525 z "
       id="path2407" />
    <path
       style="fill:#ffffff;fill-rule:evenodd;stroke:#9b9b9b;stroke-width:0.69999999;stroke-linecap:butt;stroke-linejoin:miter;stroke-miterlimit:4;stroke-dasharray:none;stroke-opacity:1"
       d="M 345.82598,365.55887 C 304.81705,365.74771 254.16754,370.39144 176.17609,387.03773 C 148.09851,393.03054 114.61376,407.18608 103.54111,412.04453 L 102.38299,412.04453 C 102.52877,412.10892 102.79082,412.2247 102.94721,412.29356 C 102.79082,412.36242 102.52877,412.47819 102.38299,412.54259 L 103.54111,412.54259 C 114.61376,417.40104 148.09851,431.55658 176.17609,437.54938 C 254.16754,454.19568 304.81705,458.83939 345.82598,459.02825 C 382.01034,459.19487 410.67278,455.88965 443.96932,454.31742 C 498.07031,451.72782 658.88178,435.09611 685.86814,412.54259 L 686.46204,412.54259 C 686.3699,412.45914 686.26091,412.37684 686.16509,412.29356 C 686.26091,412.21028 686.3699,412.12798 686.46204,412.04453 L 685.86814,412.04453 C 658.88178,389.49101 498.07031,372.8593 443.96932,370.26969 C 410.67278,368.69745 382.01034,365.39225 345.82598,365.55887 z "
       id="path2405" />
    <path
       style="fill:#ffffff;fill-rule:evenodd;stroke:#9b9b9b;stroke-width:0.69999999;stroke-linecap:butt;stroke-linejoin:miter;stroke-miterlimit:4;stroke-dasharray:none;stroke-opacity:1"
       d="M 343.26826,354.6182 C 300.10097,354.81698 246.7857,359.70512 164.68943,377.22753 C 135.13408,383.53575 99.88698,398.43632 88.231565,403.55048 L 87.012491,403.55048 C 87.165935,403.61826 87.441786,403.74013 87.606399,403.81261 C 87.441786,403.8851 87.165935,404.00696 87.012491,404.07475 L 88.231565,404.07475 C 99.88698,409.18891 135.13408,424.08948 164.68943,430.39769 C 246.7857,447.92011 300.10097,452.80823 343.26826,453.00703 C 381.35706,453.18242 411.52805,449.70324 446.57704,448.04826 C 503.52545,445.32236 672.80068,427.8153 701.20738,404.07475 L 701.83254,404.07475 C 701.73555,403.98691 701.62082,403.90028 701.51996,403.81261 C 701.62082,403.72495 701.73555,403.63832 701.83254,403.55048 L 701.20738,403.55048 C 672.80068,379.80993 503.52545,362.30287 446.57704,359.57696 C 411.52805,357.92197 381.35706,354.44281 343.26826,354.6182 z "
       id="path2403" />
    <path
       style="fill:#ffffff;fill-rule:evenodd;stroke:#9b9b9b;stroke-width:0.69999999;stroke-linecap:butt;stroke-linejoin:miter;stroke-miterlimit:4;stroke-dasharray:none;stroke-opacity:1"
       d="M 343.26826,348.6182 C 300.10097,348.81698 246.7857,353.70512 164.68943,371.22753 C 135.13408,377.53575 99.88698,392.43632 88.231565,397.55048 L 87.012491,397.55048 C 87.165935,397.61826 87.441786,397.74013 87.606399,397.81261 C 87.441786,397.8851 87.165935,398.00696 87.012491,398.07475 L 88.231565,398.07475 C 99.88698,403.18891 135.13408,418.08948 164.68943,424.39769 C 246.7857,441.92011 300.10097,446.80823 343.26826,447.00703 C 381.35706,447.18242 411.52805,443.70324 446.57704,442.04826 C 503.52545,439.32236 672.80068,421.8153 701.20738,398.07475 L 701.83254,398.07475 C 701.73555,397.98691 701.62082,397.90028 701.51996,397.81261 C 701.62082,397.72495 701.73555,397.63832 701.83254,397.55048 L 701.20738,397.55048 C 672.80068,373.80993 503.52545,356.30287 446.57704,353.57696 C 411.52805,351.92197 381.35706,348.44281 343.26826,348.6182 z "
       id="path2391" />
    <path
       style="fill:#ffffff;fill-rule:evenodd;stroke:#9b9b9b;stroke-width:0.69999999;stroke-linecap:butt;stroke-linejoin:miter;stroke-miterlimit:4;stroke-dasharray:none;stroke-opacity:1"
       d="M 160.99389,407.4789 C 160.99389,397.08327 166.24044,387.37193 175.303,379.10071 L 175.09015,369.58028 L 160.1904,375.89374 L 158.42263,403.16785 L 160.99389,407.4789 z "
       id="path3347"
       sodipodi:nodetypes="ccc" />
    <path
       style="fill:none;fill-opacity:1;fill-rule:evenodd;stroke:#9b9b9b;stroke-width:0.69999999;stroke-linecap:butt;stroke-linejoin:miter;stroke-miterlimit:4;stroke-dasharray:none;stroke-opacity:1"
       d="M 175.303,426.10963 C 166.24044,417.83841 160.99389,408.12709 160.99389,397.73144 C 160.99389,387.33581 166.24044,377.62447 175.303,369.35325"
       id="path2479"
       sodipodi:nodetypes="csc" />
    <path
       style="fill:none;fill-rule:evenodd;stroke:#9b9b9b;stroke-width:0.69999999;stroke-linecap:butt;stroke-linejoin:miter;stroke-miterlimit:4;stroke-dasharray:none;stroke-opacity:1"
       d="M 87.535714,397.75504 C 87.535714,397.75504 86.285714,400.43361 87.535714,404.00504 C 88.785714,407.57647 129.14286,424.18361 157.35714,445.25504 C 180.41339,462.47426 395.8675,510.27509 543.4563,480.88983 C 554.41645,478.35091 531.61727,469.60625 575.78836,471.96624 C 590.21708,468.64198 608.35903,461.88111 629.40626,448.37218 C 667.28773,423.17274 701.64286,404.36218 701.64286,404.36218 L 702,398.6479"
       id="path2415"
       sodipodi:nodetypes="cscccccc" />
    <path
       style="fill:none;fill-rule:evenodd;stroke:#9b9b9b;stroke-width:0.69999999;stroke-linecap:butt;stroke-linejoin:miter;stroke-miterlimit:4;stroke-dasharray:none;stroke-opacity:1"
       d="M 695.21429,365.79075 L 701.28572,396.86218"
       id="path2426" />
    <path
       style="fill:none;fill-rule:evenodd;stroke:#9b9b9b;stroke-width:0.69999999;stroke-linecap:butt;stroke-linejoin:miter;stroke-miterlimit:4;stroke-dasharray:none;stroke-opacity:1"
       d="M 554.5,399.00504 C 554.5,399.00504 552,424.36218 543.07143,433.29075"
       id="path2428"
       sodipodi:nodetypes="cs" />
    <path
       style="fill:none;fill-rule:evenodd;stroke:#9b9b9b;stroke-width:0.69999999;stroke-linecap:butt;stroke-linejoin:miter;stroke-miterlimit:4;stroke-dasharray:none;stroke-opacity:1"
       d="M 542.53314,361.7516 L 542.53314,432.46228"
       id="path2432" />
    <path
       style="fill:#b3b3b3;stroke:#9b9b9b;stroke-width:0.69999999;stroke-miterlimit:4;stroke-dasharray:none;stroke-opacity:1"
       d="M 699.42638,395.53332 C 698.80304,394.78224 691.73633,391.22617 687.59443,389.57931 C 682.11756,387.40164 674.38884,384.92414 666.96943,382.96779 C 663.3846,382.02255 660.45157,381.14673 660.45157,381.02152 C 660.45157,380.89631 661.61675,380.49833 663.04085,380.13712 C 673.85406,377.39446 688.23205,371.72193 693.02141,368.30893 C 694.4695,367.27699 694.72267,367.19719 694.87629,367.72432 C 694.97413,368.06006 696.19036,374.20082 697.57902,381.37047 C 698.96768,388.54011 700.18515,394.76779 700.28452,395.20975 C 700.48539,396.1033 700.03908,396.27159 699.42637,395.53332 L 699.42638,395.53332 z "
       id="path2448" />
    <path
       style="fill:#ffffff;fill-rule:evenodd;stroke:#9b9b9b;stroke-width:0.69999999;stroke-linecap:butt;stroke-linejoin:miter;stroke-miterlimit:4;stroke-dasharray:none;stroke-opacity:1"
       d="M 151.3125,357.34375 C 150.42599,357.53143 149.5808,357.68434 148.6875,357.875 C 119.13216,364.18323 83.874165,379.10459 72.21875,384.21875 L 71,384.21875 C 71.153446,384.28652 71.429137,384.39627 71.59375,384.46875 C 71.429136,384.54125 71.153444,384.65096 71,384.71875 L 72.21875,384.71875 C 83.874163,389.83291 119.13215,404.75429 148.6875,411.0625 C 149.5808,411.25316 150.42599,411.40607 151.3125,411.59375 C 142.24779,403.68779 137,394.40532 137,384.46875 C 137,374.53219 142.24779,365.24971 151.3125,357.34375 z "
       id="path2450"
       sodipodi:nodetypes="cscccccscsc" />
    <path
       style="fill:none;fill-rule:evenodd;stroke:#9b9b9b;stroke-width:0.69999999;stroke-linecap:butt;stroke-linejoin:miter;stroke-miterlimit:4;stroke-dasharray:none;stroke-opacity:1"
       d="M 151.85664,411.75415 C 151.85664,411.75415 162.2107,424.88613 176.85792,427.15898"
       id="path2457"
       sodipodi:nodetypes="cs" />
    <path
       style="fill:none;fill-rule:evenodd;stroke:#9b9b9b;stroke-width:0.69999999;stroke-linecap:butt;stroke-linejoin:miter;stroke-miterlimit:4;stroke-dasharray:none;stroke-opacity:1"
       d="M 150.81087,357.03545 C 150.81087,357.03545 163.08216,368.3964 177.90463,368.36246"
       id="path2461"
       sodipodi:nodetypes="cs" />
    <path
       style="fill:none;fill-rule:evenodd;stroke:#9b9b9b;stroke-width:0.69999999;stroke-linecap:butt;stroke-linejoin:miter;stroke-miterlimit:4;stroke-dasharray:none;stroke-opacity:1"
       d="M 553.95835,332.46084 C 553.95835,332.46084 552.40166,354.64897 542.60293,362.61287"
       id="path2463"
       sodipodi:nodetypes="cs" />
    <path
       style="fill:#b3b3b3;stroke:#9b9b9b;stroke-width:0.69999999;stroke-miterlimit:4;stroke-dasharray:none;stroke-opacity:1"
       d="M 543.04601,397.7132 C 543.04223,378.42739 543.13627,363.00726 543.25813,362.93195 C 543.46376,362.80486 553.12193,363.9446 553.29353,364.11621 C 553.33732,364.15999 553.38444,372.94132 553.39824,383.63027 L 553.42333,403.06473 L 552.65912,407.10534 C 550.50331,418.5037 547.3263,427.2329 543.78965,431.47527 L 543.05279,432.35916 L 543.04601,397.7132 z "
       id="path2465" />
    <path
       style="fill:#b3b3b3;stroke:#9b9b9b;stroke-width:0.69999999;stroke-miterlimit:4;stroke-dasharray:none;stroke-opacity:1"
       d="M 548.84759,362.40609 C 546.55581,362.09324 544.65023,361.8232 544.61297,361.80601 C 544.57572,361.78881 545.17437,360.95084 545.94331,359.94385 C 548.84261,356.14699 551.28776,350.25882 552.89098,343.21319 L 553.35069,341.19289 L 553.37199,352.11516 C 553.3837,358.12242 553.30805,363.02337 553.20387,363.00617 C 553.0997,362.98898 551.13937,362.71894 548.84759,362.40609 z "
       id="path2469" />
    <path
       style="fill:#b3b3b3;stroke:#9b9b9b;stroke-width:0.69999999;stroke-miterlimit:4;stroke-dasharray:none;stroke-opacity:1"
       d="M 545.04288,432.22841 C 545.04288,432.11647 545.56045,431.27272 546.19303,430.35341 C 549.48871,425.56386 553.11393,413.72709 554.6962,402.58949 L 555.10508,399.71136 L 565.16326,398.37001 C 595.74215,394.29209 630.74286,388.13094 650.66698,383.31884 L 657.49482,381.66977 L 665.10815,383.67186 C 677.55303,386.94451 689.27357,391.09745 695.04288,394.27863 C 697.42116,395.59001 700.37816,397.53849 700.39081,397.80259 C 700.40657,398.13104 696.06296,400.8525 693.36195,402.20649 C 673.59945,412.11327 625.35298,422.33388 557.36431,431.01646 C 545.86276,432.48528 545.04288,432.56593 545.04288,432.22841 z "
       id="path2471" />
    <path
       style="fill:#b3b3b3;stroke:#9b9b9b;stroke-width:0.69999999;stroke-miterlimit:4;stroke-dasharray:none;stroke-opacity:1"
       d="M 157.65115,422.1052 C 137.94093,417.07027 120.31933,410.86657 91.312363,398.75059 C 90.281384,398.31997 89.440359,397.88727 89.443416,397.78906 C 89.44647,397.69084 90.864559,397.03164 92.59472,396.32417 L 95.74047,395.03786 L 101.78509,397.31874 C 115.61803,402.53843 132.56852,407.82206 144.61544,410.66936 L 151.04401,412.18875 L 154.07972,415.12838 C 157.42177,418.36464 161.71384,421.76427 163.80357,422.83037 C 165.18037,423.53277 165.50066,423.88691 164.70472,423.82674 C 164.45919,423.80817 161.28508,423.03349 157.65115,422.10521 L 157.65115,422.1052 z "
       id="path2475" />
    <path
       style="fill:#b3b3b3;stroke:#9b9b9b;stroke-width:0.69999999;stroke-miterlimit:4;stroke-dasharray:none;stroke-opacity:1"
       d="M 138.71422,376.53486 C 140.27578,371.21435 143.87081,365.50276 148.7617,360.57195 L 151.14568,358.16851 L 153.24493,359.74808 C 158.78591,363.91736 165.4047,367.0274 171.38036,368.26956 C 172.56097,368.51498 173.35647,368.78158 173.14812,368.862 C 172.93978,368.94243 170.32601,369.5198 167.33975,370.14506 C 164.35348,370.77032 160.03508,371.74453 157.7433,372.30999 C 153.69742,373.30823 141.80917,376.68852 139.58727,377.47245 C 138.98206,377.68598 138.45049,377.86068 138.40599,377.86068 C 138.3615,377.86068 138.50019,377.26406 138.71421,376.53486 L 138.71422,376.53486 z "
       id="path2481" />
    <path
       style="fill:#b3b3b3;stroke:#9b9b9b;stroke-width:0.69999999;stroke-miterlimit:4;stroke-dasharray:none;stroke-opacity:1"
       d="M 173.27439,425.67473 C 170.68069,425.11182 165.26253,422.43146 161.84773,420.02196 C 159.39809,418.29348 154.44321,413.84739 149.05636,408.54407 C 142.98205,402.56394 139.62554,396.84233 138.13725,389.93101 C 137.64607,387.65009 137.54075,381.16539 137.97214,379.76519 C 138.23014,378.92778 137.58135,379.17539 146.25453,376.60418 C 154.89399,374.04297 160.04722,372.74625 169.33682,370.79591 C 171.33804,370.37576 173.13775,370.032 173.33618,370.032 C 173.53461,370.032 172.82417,370.96955 171.75742,372.11544 C 161.49815,383.13586 158.20907,395.36002 162.14942,407.82433 C 163.7064,412.74945 167.39421,418.67508 171.75971,423.26631 C 173.10717,424.68345 174.11286,425.82975 173.99456,425.81364 C 173.87626,425.79752 173.55219,425.73501 173.27439,425.67472 L 173.27439,425.67473 z "
       id="path2483" />
    <path
       style="fill:none;fill-rule:evenodd;stroke:#9b9b9b;stroke-width:0.69999999;stroke-linecap:butt;stroke-linejoin:miter;stroke-miterlimit:4;stroke-dasharray:none;stroke-opacity:1"
       d="M 542.53125,364.1875 C 503.74593,359.59909 467.5284,356.56606 446.5625,355.5625 C 411.51352,353.9075 381.37005,350.44961 343.28125,350.625 C 300.11397,350.82379 253.85484,354.68619 171.75857,372.2086"
       id="path2513" />
    <rect
       style="color:#000000;fill:#ffffff;fill-opacity:1;fill-rule:nonzero;stroke:#9b9b9b;stroke-width:0.69999999;stroke-linecap:butt;stroke-linejoin:miter;marker:none;marker-start:none;marker-mid:none;marker-end:none;stroke-miterlimit:4;stroke-dasharray:none;stroke-dashoffset:0;stroke-opacity:1;visibility:visible;display:inline;overflow:visible;enable-background:accumulate"
       id="rect3454"
       width="16.25"
       height="12.6"
       x="468.75"
       y="-333.11218"
       transform="scale(1,-1)" />
    <path
       style="fill:none;fill-rule:evenodd;stroke:#9b9b9b;stroke-width:0.69999999;stroke-linecap:butt;stroke-linejoin:miter;stroke-miterlimit:4;stroke-dasharray:none;stroke-opacity:1"
       d="M 542.53125,431.14475 C 503.74593,435.73316 467.5284,438.76619 446.5625,439.76975 C 411.51352,441.42475 381.37005,444.88264 343.28125,444.70725 C 300.11397,444.50846 253.85484,440.64606 171.75857,423.12365"
       id="path3314"
       sodipodi:nodetypes="cccs" />
    <path
       style="fill:none;fill-rule:evenodd;stroke:#9b9b9b;stroke-width:0.69999999;stroke-linecap:butt;stroke-linejoin:miter;stroke-miterlimit:4;stroke-dasharray:none;stroke-opacity:1"
       d="M 87.459416,397.61201 C 87.459416,397.61201 80.640886,387.76303 72.054589,384.48003"
       id="path2455"
       sodipodi:nodetypes="cs" />
    <path
       style="fill:#b3b3b3;stroke:#9b9b9b;stroke-width:0.69999999;stroke-miterlimit:4;stroke-dasharray:none;stroke-opacity:1"
       d="M 86.666906,395.50731 C 86.027356,394.65831 84.420213,392.87682 83.095477,391.54844 C 81.74942,390.19868 81.001973,389.23016 81.401152,389.35298 C 81.794009,389.47386 84.804498,390.67012 88.091127,392.01136 L 94.06681,394.44996 L 91.149852,395.67308 C 89.545516,396.34579 88.14217,396.93102 88.031302,396.97357 C 87.920434,397.01613 87.306456,396.35631 86.666906,395.50731 z "
       id="path2473" />
    <path
       style="fill:none;fill-rule:evenodd;stroke:#9b9b9b;stroke-width:0.69999999;stroke-linecap:butt;stroke-linejoin:miter;stroke-miterlimit:4;stroke-dasharray:none;stroke-opacity:1"
       d="M 701.63216,404.68308 C 701.63216,404.68308 678.14611,442.5638 687.9951,464.53463 C 674.35804,460.24148 633.6994,451.40264 596.82884,465.29224"
       id="path3328"
       sodipodi:nodetypes="ccc" />
    <path
       style="fill:none;fill-rule:evenodd;stroke:#9b9b9b;stroke-width:0.69999999;stroke-linecap:butt;stroke-linejoin:miter;stroke-miterlimit:4;stroke-dasharray:none;stroke-opacity:1"
       d="M 673.34789,421.60314 L 668.54967,459.7364"
       id="path3330"
       sodipodi:nodetypes="cc" />
    <path
       style="fill:none;fill-rule:evenodd;stroke:#9b9b9b;stroke-width:0.69999999;stroke-linecap:butt;stroke-linejoin:miter;stroke-miterlimit:4;stroke-dasharray:none;stroke-opacity:1"
       d="M 542.53125,372.1875 C 503.74593,367.59909 467.5284,364.56606 446.5625,363.5625 C 411.51352,361.9075 381.37005,358.44961 343.28125,358.625 C 300.11397,358.82379 253.85484,362.68619 171.75857,380.2086"
       id="path3343"
       sodipodi:nodetypes="cccs" />
    <g
       style="stroke:#9b9b9b;stroke-width:0.69999999;stroke-miterlimit:4;stroke-dasharray:none;stroke-opacity:1"
       id="g3360"
       transform="translate(226.64286,92.71428)">
      <g
         style="fill:#ffffff;stroke:#9b9b9b;stroke-width:1.16710389;stroke-miterlimit:4;stroke-dasharray:none;stroke-opacity:1"
         transform="matrix(0.5997752,0,0,0.5997752,352.42874,150.84304)"
         id="g3356">
        <path
           style="opacity:1;fill:#ffffff;fill-opacity:1;fill-rule:nonzero;stroke:#9b9b9b;stroke-width:1.16710389;stroke-linecap:butt;stroke-linejoin:miter;marker:none;marker-start:none;marker-mid:none;marker-end:none;stroke-miterlimit:4;stroke-dasharray:none;stroke-dashoffset:0;stroke-opacity:1;visibility:visible;display:inline;overflow:visible;enable-background:accumulate"
           d="M 93.9375,224.53125 L 93.9375,260.15625 L 94.21875,260.15625 C 94.291844,271.52927 107.5747,280.71874 123.9375,280.71875 C 140.3003,280.71875 153.58315,271.52927 153.65625,260.15625 L 153.78125,260.15625 L 153.78125,224.53125 L 93.9375,224.53125 z "
           id="path3351" />
        <path
           sodipodi:type="arc"
           style="opacity:1;fill:#ffffff;fill-opacity:1;fill-rule:nonzero;stroke:#9b9b9b;stroke-width:1.39533126;stroke-linecap:butt;stroke-linejoin:miter;marker:none;marker-start:none;marker-mid:none;marker-end:none;stroke-miterlimit:4;stroke-dasharray:none;stroke-dashoffset:0;stroke-opacity:1;visibility:visible;display:inline;overflow:visible;enable-background:accumulate"
           id="path3349"
           sodipodi:cx="123.92857"
           sodipodi:cy="265.57648"
           sodipodi:rx="29.642857"
           sodipodi:ry="29.642857"
           d="M 153.57143 265.57648 A 29.642857 29.642857 0 1 1  94.285717,265.57648 A 29.642857 29.642857 0 1 1  153.57143 265.57648 z"
           transform="matrix(1.0027589,0,0,0.6976987,-0.3419099,40.755546)" />
      </g>
    </g>
    <g
       style="stroke:#9b9b9b;stroke-width:1.08237135;stroke-miterlimit:4;stroke-dasharray:none;stroke-opacity:1"
       id="g3373"
       transform="matrix(0.6467281,0,0,0.6467281,337.38981,205.49962)">
      <g
         style="fill:#ffffff;stroke:#9b9b9b;stroke-width:1.80462849;stroke-miterlimit:4;stroke-dasharray:none;stroke-opacity:1"
         transform="matrix(0.5997752,0,0,0.5997752,352.42874,150.84304)"
         id="g3375">
        <path
           style="opacity:1;fill:#ffffff;fill-opacity:1;fill-rule:nonzero;stroke:#9b9b9b;stroke-width:1.80462849;stroke-linecap:butt;stroke-linejoin:miter;marker:none;marker-start:none;marker-mid:none;marker-end:none;stroke-miterlimit:4;stroke-dasharray:none;stroke-dashoffset:0;stroke-opacity:1;visibility:visible;display:inline;overflow:visible;enable-background:accumulate"
           d="M 93.9375,224.53125 L 93.9375,260.15625 L 94.21875,260.15625 C 94.291844,271.52927 107.5747,280.71874 123.9375,280.71875 C 140.3003,280.71875 153.58315,271.52927 153.65625,260.15625 L 153.78125,260.15625 L 153.78125,224.53125 L 93.9375,224.53125 z "
           id="path3377" />
        <path
           sodipodi:type="arc"
           style="opacity:1;fill:#ffffff;fill-opacity:1;fill-rule:nonzero;stroke:#9b9b9b;stroke-width:2.15752363;stroke-linecap:butt;stroke-linejoin:miter;marker:none;marker-start:none;marker-mid:none;marker-end:none;stroke-miterlimit:4;stroke-dasharray:none;stroke-dashoffset:0;stroke-opacity:1;visibility:visible;display:inline;overflow:visible;enable-background:accumulate"
           id="path3379"
           sodipodi:cx="123.92857"
           sodipodi:cy="265.57648"
           sodipodi:rx="29.642857"
           sodipodi:ry="29.642857"
           d="M 153.57143 265.57648 A 29.642857 29.642857 0 1 1  94.285717,265.57648 A 29.642857 29.642857 0 1 1  153.57143 265.57648 z"
           transform="matrix(1.0027589,0,0,0.6976987,-0.3419099,40.755546)" />
      </g>
    </g>
    <path
       style="fill:#ffffff;fill-rule:evenodd;stroke:#9b9b9b;stroke-width:0.69999999;stroke-linecap:butt;stroke-linejoin:miter;stroke-miterlimit:4;stroke-dasharray:none;stroke-opacity:1"
       d="M 553.84375,332.3125 L 553.84375,399.3125 C 615.4389,391.40647 678.81541,379.77139 695.21875,366.0625 L 695.84375,366.0625 C 695.74678,365.97467 695.63211,365.90017 695.53125,365.8125 C 695.63211,365.72483 695.74676,365.65034 695.84375,365.5625 L 695.21875,365.5625 C 678.8154,351.85361 615.43891,340.21853 553.84375,332.3125 z "
       id="path2417" />
    <path
       style="fill:#ffffff;fill-rule:evenodd;stroke:#9b9b9b;stroke-width:0.69999999;stroke-linecap:butt;stroke-linejoin:miter;stroke-miterlimit:4;stroke-dasharray:none;stroke-opacity:1"
       d="M 63.218915,268.11316 L 65.185983,266.1461 C 76.350556,256.88223 86.527356,250.38504 86.527351,250.38505 L 89.974246,241.35783 L 90.342069,240.99001 L 90.071678,241.10345 L 90.176401,240.82434 L 89.808578,241.19217 L 80.781359,244.63905 C 80.781364,244.63905 74.284185,254.81586 65.020315,265.98043 L 63.053247,267.9475 C 63.407362,267.64544 63.762949,267.35609 64.115979,267.05915 C 63.819758,267.4113 63.520224,267.75993 63.218915,268.11316 z "
       id="path3404" />
    <path
       style="fill:#ffffff;fill-rule:evenodd;stroke:#9b9b9b;stroke-width:0.69999999;stroke-linecap:butt;stroke-linejoin:miter;stroke-miterlimit:4;stroke-dasharray:none;stroke-opacity:1"
       d="M 63.05324,220.99001 L 65.020308,222.95708 C 74.284178,234.12165 80.781364,244.29845 80.781359,244.29845 L 89.808571,247.74534 L 90.176394,248.11316 L 90.062952,247.84277 L 90.342062,247.9475 L 89.974239,247.57967 L 86.527351,238.55245 C 86.527356,238.55246 76.350549,232.05528 65.185976,222.79141 L 63.218908,220.82434 C 63.520965,221.17846 63.810311,221.53404 64.107253,221.88707 C 63.7551,221.59085 63.406479,221.29132 63.05324,220.99001 z "
       id="path3406" />
    <path
       style="fill:#ffffff;fill-rule:evenodd;stroke:#9b9b9b;stroke-width:0.69999999;stroke-linecap:butt;stroke-linejoin:miter;stroke-miterlimit:4;stroke-dasharray:none;stroke-opacity:1"
       d="M 31.975194,244.6582 L 36.597169,244.6582 C 60.597285,246.83174 80.186523,251.03956 80.186512,251.03956 L 94.84156,244.6582 L 95.70582,244.6582 L 95.2549,244.47872 L 95.70582,244.27931 L 94.84156,244.27931 L 80.186512,237.89794 C 80.186523,237.89794 60.597285,242.10577 36.597169,244.27931 L 31.975194,244.27931 C 32.74609,244.33884 33.503781,244.41459 34.267393,244.47872 C 33.505658,244.54269 32.744184,244.59882 31.975194,244.6582 z "
       id="path3408" />
    <path
       style="opacity:1;color:#000000;fill:#ffffff;fill-opacity:1;fill-rule:nonzero;stroke:#9b9b9b;stroke-width:0.69999999;stroke-linecap:butt;stroke-linejoin:miter;marker:none;marker-start:none;marker-mid:none;marker-end:none;stroke-miterlimit:4;stroke-dasharray:none;stroke-dashoffset:0;stroke-opacity:1;visibility:visible;display:inline;overflow:visible;enable-background:accumulate"
       d="M 417.5,353.75 L 417.5,382.4375 L 432,382.4375 L 432,354.65625 C 427.13294,354.36024 422.27925,354.07194 417.5,353.75 z "
       id="path3436"
       sodipodi:nodetypes="ccccc" />
    <g
       id="g3500"
       transform="translate(0,-43.5)">
      <rect
         inkscape:transform-center-y="31.125584"
         inkscape:transform-center-x="25.849957"
         transform="matrix(0.7205652,-0.6933872,0,-1,0,0)"
         y="-827.27826"
         x="579.40631"
         height="12.6"
         width="70.777779"
         id="rect3502"
         style="color:#000000;fill:#ffffff;fill-opacity:1;fill-rule:nonzero;stroke:#9b9b9b;stroke-width:0.82463425;stroke-linecap:butt;stroke-linejoin:miter;marker:none;marker-start:none;marker-mid:none;marker-end:none;stroke-miterlimit:4;stroke-dasharray:none;stroke-dashoffset:0;stroke-opacity:1;visibility:visible;display:inline;overflow:visible;enable-background:accumulate" />
      <path
         sodipodi:nodetypes="ccccc"
         id="path3504"
         d="M 497.71191,-840.0943 L 567.50598,-841.574 L 568.22299,-827.42701 L 497.71191,-827.49426 L 497.71191,-840.0943 z "
         style="color:#000000;fill:#ffffff;fill-opacity:1;fill-rule:nonzero;stroke:#9b9b9b;stroke-width:0.82463425;stroke-linecap:butt;stroke-linejoin:miter;marker:none;marker-start:none;marker-mid:none;marker-end:none;stroke-miterlimit:4;stroke-dashoffset:0;stroke-opacity:1;visibility:visible;display:inline;overflow:visible;enable-background:accumulate"
         transform="matrix(-0.7206373,0.6933122,-0.9992574,-3.8532247e-2,0,0)" />
    </g>
    <rect
       style="color:#000000;fill:#ffffff;fill-opacity:1;fill-rule:nonzero;stroke:#9b9b9b;stroke-width:0.69999999;stroke-linecap:butt;stroke-linejoin:miter;marker:none;marker-start:none;marker-mid:none;marker-end:none;stroke-miterlimit:4;stroke-dasharray:none;stroke-dashoffset:0;stroke-opacity:1;visibility:visible;display:inline;overflow:visible;enable-background:accumulate"
       id="rect3450"
       width="16.25"
       height="58"
       x="468.75"
       y="333.11218" />
    <path
       style="opacity:1;color:#000000;fill:#ffffff;fill-opacity:1;fill-rule:nonzero;stroke:#9b9b9b;stroke-width:0.69999999;stroke-linecap:butt;stroke-linejoin:miter;marker:none;marker-start:none;marker-mid:none;marker-end:none;stroke-miterlimit:4;stroke-dasharray:none;stroke-dashoffset:0;stroke-opacity:1;visibility:visible;display:inline;overflow:visible;enable-background:accumulate"
       d="M 417.5,441.4375 L 417.5,412.75 L 432,412.75 L 432,440.53125 C 427.13294,440.82726 422.27925,441.11556 417.5,441.4375 z "
       id="path3442"
       sodipodi:nodetypes="ccccc" />
    <rect
       style="opacity:1;color:#000000;fill:#ffffff;fill-opacity:1;fill-rule:nonzero;stroke:#9b9b9b;stroke-width:0.69999999;stroke-linecap:butt;stroke-linejoin:miter;marker:none;marker-start:none;marker-mid:none;marker-end:none;stroke-miterlimit:4;stroke-dasharray:none;stroke-dashoffset:0;stroke-opacity:1;visibility:visible;display:inline;overflow:visible;enable-background:accumulate"
       id="rect3444"
       width="14.25"
       height="8.75"
       x="417.62503"
       y="382.36218" />
    <rect
       style="color:#000000;fill:#ffffff;fill-opacity:1;fill-rule:nonzero;stroke:#9b9b9b;stroke-width:0.69999999;stroke-linecap:butt;stroke-linejoin:miter;marker:none;marker-start:none;marker-mid:none;marker-end:none;stroke-miterlimit:4;stroke-dasharray:none;stroke-dashoffset:0;stroke-opacity:1;visibility:visible;display:inline;overflow:visible;enable-background:accumulate"
       id="rect3460"
       width="16.25"
       height="12.6"
       x="468.75"
       y="-376.11218"
       transform="scale(1,-1)" />
    <g
       id="g3490">
      <rect
         inkscape:transform-center-y="31.125584"
         inkscape:transform-center-x="25.849957"
         transform="matrix(0.7205652,-0.6933872,0,-1,0,0)"
         y="-827.27826"
         x="579.40631"
         height="12.6"
         width="70.777779"
         id="rect3476"
         style="color:#000000;fill:#ffffff;fill-opacity:1;fill-rule:nonzero;stroke:#9b9b9b;stroke-width:0.82463425;stroke-linecap:butt;stroke-linejoin:miter;marker:none;marker-start:none;marker-mid:none;marker-end:none;stroke-miterlimit:4;stroke-dasharray:none;stroke-dashoffset:0;stroke-opacity:1;visibility:visible;display:inline;overflow:visible;enable-background:accumulate" />
      <path
         sodipodi:nodetypes="ccccc"
         id="rect3480"
         d="M 497.71191,-840.0943 L 567.50598,-841.574 L 568.22299,-827.42701 L 497.71191,-827.49426 L 497.71191,-840.0943 z "
         style="color:#000000;fill:#ffffff;fill-opacity:1;fill-rule:nonzero;stroke:#9b9b9b;stroke-width:0.82463425;stroke-linecap:butt;stroke-linejoin:miter;stroke-miterlimit:4;stroke-dashoffset:0;stroke-opacity:1;marker:none;marker-start:none;marker-mid:none;marker-end:none;visibility:visible;display:inline;overflow:visible;enable-background:accumulate"
         transform="matrix(-0.7206373,0.6933122,-0.9992574,-3.8532247e-2,0,0)" />
    </g>
    <rect
       style="color:#000000;fill:#ffffff;fill-opacity:1;fill-rule:nonzero;stroke:#9b9b9b;stroke-width:0.69999999;stroke-linecap:butt;stroke-linejoin:miter;marker:none;marker-start:none;marker-mid:none;marker-end:none;stroke-miterlimit:4;stroke-dasharray:none;stroke-dashoffset:0;stroke-opacity:1;visibility:visible;display:inline;overflow:visible;enable-background:accumulate"
       id="rect3458"
       width="16.25"
       height="58"
       x="468.75"
       y="376.11218" />
  </g>
</svg>
