<?xml version="1.0" encoding="UTF-8" standalone="no"?>
<!-- Created with Inkscape (http://www.inkscape.org/) -->
<svg xmlns:xml="http://www.w3.org/XML/1998/namespace" xmlns:dc="http://purl.org/dc/elements/1.1/" xmlns:cc="http://web.resource.org/cc/" xmlns:rdf="http://www.w3.org/1999/02/22-rdf-syntax-ns#" xmlns:svg="http://www.w3.org/2000/svg" xmlns="http://www.w3.org/2000/svg" xmlns:xlink="http://www.w3.org/1999/xlink" xmlns:sodipodi="http://inkscape.sourceforge.net/DTD/sodipodi-0.dtd" xmlns:inkscape="http://www.inkscape.org/namespaces/inkscape" inkscape:export-ydpi="102.02000" inkscape:export-xdpi="102.02000" inkscape:export-filename="/home/bjorn/tmwwebsite.png" sodipodi:docname="tmwwebsite_nograd.svg" sodipodi:docbase="/home/bjorn" inkscape:version="0.41" sodipodi:version="0.32" id="svg1" height="841.88976pt" width="595.27559pt">
  <defs id="defs3">
    <linearGradient id="linearGradient3701" inkscape:collect="always">
      <stop id="stop3703" offset="0" style="stop-color: rgb(129, 213, 135); stop-opacity: 1;"/>
      <stop id="stop3705" offset="1" style="stop-color: rgb(129, 213, 135); stop-opacity: 0;"/>
    </linearGradient>
    <linearGradient id="linearGradient4995">
      <stop id="stop4997" offset="0" style="stop-color: rgb(0, 0, 0); stop-opacity: 1;"/>
      <stop id="stop2128" offset="0" style="stop-color: rgb(0, 0, 0); stop-opacity: 0.498039;"/>
      <stop id="stop4999" offset="1.0000000" style="stop-color: rgb(255, 255, 255); stop-opacity: 0.195876;"/>
    </linearGradient>
    <linearGradient id="linearGradient2487">
      <stop id="stop2489" offset="0.0000000" style="stop-color: rgb(255, 255, 255); stop-opacity: 0.690722;"/>
      <stop id="stop2491" offset="1.0000000" style="stop-color: rgb(255, 255, 255); stop-opacity: 0.196078;"/>
    </linearGradient>
    <linearGradient id="linearGradient2346">
      <stop id="stop2348" offset="0" style="stop-color: rgb(0, 0, 0); stop-opacity: 1;"/>
      <stop id="stop2350" offset="1" style="stop-color: rgb(0, 0, 0); stop-opacity: 0;"/>
    </linearGradient>
    <linearGradient id="linearGradient4374">
      <stop style="stop-color: rgb(255, 255, 255); stop-opacity: 1;" offset="0.0000000" id="stop4376"/>
      <stop style="stop-color: rgb(0, 168, 11); stop-opacity: 1;" offset="1.0000000" id="stop4378"/>
    </linearGradient>
    <linearGradient id="linearGradient6673">
      <stop id="stop6675" offset="0.0000000" style="stop-color: rgb(0, 0, 0); stop-opacity: 0.298969;"/>
      <stop id="stop2186" offset="0.61290324" style="stop-color: rgb(255, 255, 255); stop-opacity: 0;"/>
      <stop id="stop6677" offset="1.0000000" style="stop-color: rgb(255, 255, 255); stop-opacity: 0.402062;"/>
    </linearGradient>
    <linearGradient id="linearGradient1743">
      <stop id="stop1744" offset="0.0000000" style="stop-color: rgb(255, 208, 131); stop-opacity: 1;"/>
      <stop id="stop1745" offset="1.0000000" style="stop-color: rgb(176, 142, 86); stop-opacity: 1;"/>
    </linearGradient>
    <linearGradient inkscape:collect="always" xlink:href="#linearGradient4374" id="linearGradient4393" gradientUnits="userSpaceOnUse" gradientTransform="scale(1.27937, 0.781634)" x1="58.257864" y1="413.52934" x2="730.90217" y2="413.52934"/>
    <linearGradient inkscape:collect="always" xlink:href="#linearGradient4374" id="linearGradient6010" gradientUnits="userSpaceOnUse" gradientTransform="scale(1.27937, 0.781634)" x1="58.257864" y1="413.52934" x2="730.90217" y2="413.52934"/>
    <linearGradient inkscape:collect="always" xlink:href="#linearGradient4374" id="linearGradient6013" gradientUnits="userSpaceOnUse" gradientTransform="matrix(-1.17784, 0.499491, -0.305165, -0.719601, 2797.8, 415.511)" x1="58.257864" y1="413.52934" x2="730.90217" y2="413.52934"/>
    <linearGradient inkscape:collect="always" xlink:href="#linearGradient4374" id="linearGradient6110" gradientUnits="userSpaceOnUse" gradientTransform="scale(1.27937, 0.781634)" x1="58.257864" y1="413.52934" x2="730.90217" y2="413.52934"/>
    <radialGradient gradientUnits="userSpaceOnUse" r="467.42468" fy="1070.3833" fx="1984.0813" cy="1070.3833" cx="1984.0813" id="radialGradient2568" xlink:href="#linearGradient4374" inkscape:collect="always"/>
    <radialGradient r="467.42468" fy="1070.3833" fx="1984.0813" cy="1070.3833" cx="1984.0813" gradientUnits="userSpaceOnUse" id="radialGradient2634" xlink:href="#linearGradient4374" inkscape:collect="always"/>
    <radialGradient r="750.10144" fy="1255.6672" fx="2190.7458" cy="1249.7603" cx="2184.7922" gradientTransform="scale(0.995578, 1.00444)" gradientUnits="userSpaceOnUse" id="radialGradient2636" xlink:href="#linearGradient2487" inkscape:collect="always"/>
    <radialGradient r="467.42468" fy="1070.3833" fx="1984.0813" cy="1070.3833" cx="1984.0813" gradientUnits="userSpaceOnUse" id="radialGradient2656" xlink:href="#linearGradient4374" inkscape:collect="always"/>
    <radialGradient r="750.10144" fy="1255.6672" fx="2190.7458" cy="1249.7603" cx="2184.7922" gradientTransform="scale(0.995578, 1.00444)" gradientUnits="userSpaceOnUse" id="radialGradient2658" xlink:href="#linearGradient2487" inkscape:collect="always"/>
    <radialGradient r="750.10144" fy="1255.6672" fx="2190.7458" cy="1249.7603" cx="2184.7922" gradientTransform="scale(0.995578, 1.00444)" gradientUnits="userSpaceOnUse" id="radialGradient2663" xlink:href="#linearGradient2346" inkscape:collect="always"/>
    <linearGradient gradientUnits="userSpaceOnUse" y2="429.27466" x2="268.38535" y1="373.59003" x1="268.38538" gradientTransform="scale(2.12132, 0.471405)" id="linearGradient4220" xlink:href="#linearGradient2487" inkscape:collect="always"/>
    <linearGradient y2="429.27466" x2="268.38535" y1="373.59003" x1="268.38538" gradientTransform="matrix(2.12132, 0, 0, 0.471405, 0, 175)" gradientUnits="userSpaceOnUse" id="linearGradient4224" xlink:href="#linearGradient2487" inkscape:collect="always"/>
    <linearGradient y2="429.27466" x2="269.37109" y1="376.24167" x1="269.17395" gradientTransform="matrix(2.12132, 0, 0, 0.471405, 0, 2.1e-05)" gradientUnits="userSpaceOnUse" id="linearGradient2954" xlink:href="#linearGradient2487" inkscape:collect="always"/>
    <linearGradient y2="429.27466" x2="269.37109" y1="376.24167" x1="269.17395" gradientTransform="matrix(2.12132, 0, 0, -0.471405, -1.51864e-07, 542.224)" gradientUnits="userSpaceOnUse" id="linearGradient2956" xlink:href="#linearGradient4995" inkscape:collect="always"/>
    <linearGradient y2="429.27466" x2="269.37109" y1="376.24167" x1="269.17395" gradientTransform="matrix(2.12132, 0, 0, -0.471405, 0.101578, 655.162)" gradientUnits="userSpaceOnUse" id="linearGradient2973" xlink:href="#linearGradient4995" inkscape:collect="always"/>
    <linearGradient y2="429.27466" x2="269.37109" y1="376.24167" x1="269.17395" gradientTransform="matrix(2.12132, 0, 0, 0.471405, 0.101578, 176.106)" gradientUnits="userSpaceOnUse" id="linearGradient2977" xlink:href="#linearGradient2487" inkscape:collect="always"/>
    <linearGradient gradientUnits="userSpaceOnUse" y2="1224.3459" x2="420.11990" y1="424.07230" x1="172.10609" gradientTransform="scale(2.11469, 0.472883)" id="linearGradient3707" xlink:href="#linearGradient3701" inkscape:collect="always"/>
    <radialGradient inkscape:collect="always" xlink:href="#linearGradient2346" id="radialGradient1472" gradientUnits="userSpaceOnUse" gradientTransform="scale(0.995578, 1.00444)" cx="2184.7922" cy="1249.7603" fx="2190.7458" fy="1255.6672" r="750.10144"/>
  </defs>
  <sodipodi:namedview inkscape:grid-bbox="true" gridtolerance="10.400000pt" gridspacingy="10.000000pt" gridspacingx="10.000000pt" inkscape:grid-points="true" showgrid="false" inkscape:window-y="28" inkscape:window-x="0" inkscape:window-height="936" inkscape:window-width="1271" inkscape:guide-bbox="true" showguides="true" inkscape:current-layer="svg1" inkscape:cy="727.71948" inkscape:cx="380.01001" inkscape:zoom="1.00000000" inkscape:pageshadow="2" inkscape:pageopacity="0.0" borderopacity="1.0" bordercolor="#666666" pagecolor="#ffffff" id="base"/>
  <metadata id="metadata4">
    <rdf:RDF id="RDF5">
      <cc:Work id="Work6" rdf:about="">
        <dc:format id="format7">image/svg+xml</dc:format>
        <dc:type rdf:resource="http://purl.org/dc/dcmitype/StillImage" id="type9"/>
      </cc:Work>
    </rdf:RDF>
  </metadata>
  <rect inkscape:export-ydpi="90.000000" inkscape:export-xdpi="90.000000" inkscape:export-filename="/home/bjorn/tmwwebsite_r2_altfooter_turntest_uitlijn.png" ry="8.9129972" rx="6.8623815" y="14.862183" x="-7.6383344e-14" height="675.00000" width="675.00000" id="rect2979" style="overflow: visible; marker: none; color: rgb(0, 0, 0); fill: rgb(255, 255, 255); fill-opacity: 1; fill-rule: nonzero; stroke: none; stroke-width: 0.875; stroke-linecap: butt; stroke-linejoin: miter; stroke-miterlimit: 4; stroke-dashoffset: 0pt; stroke-opacity: 1; visibility: visible; display: inline;"/>
  <g transform="matrix(0.584149, 0, 0, 0.584149, 67.0877, 525.605)" style="fill: rgb(0, 0, 0); fill-opacity: 0.156863;" id="g4166">
    <path id="path1191" d="M 215.39485,111.80020 L 220.78495,118.12631 L 220.78495,145.73847 C 220.78495,147.71495 220.66782,149.38701 220.42991,150.74126 C 220.21033,152.09552 219.81697,153.43982 219.26798,154.77577 L 226.49782,154.77577 L 233.67924,154.77577 C 233.13021,153.43981 232.73910,152.09551 232.50118,150.74126 C 232.28149,149.38701 232.17842,147.71495 232.17842,145.73847 L 232.17842,129.68114 L 243.21683,144.02784 L 254.23910,129.92321 L 254.23910,145.73847 C 254.23902,147.71495 254.12189,149.38701 253.88405,150.74126 C 253.66436,152.09552 253.28716,153.43982 252.73828,154.77577 L 259.91966,154.77577 L 267.08497,154.77577 C 266.53586,153.43981 266.14467,152.09551 265.90690,150.74126 C 265.68725,149.38701 265.58404,147.71495 265.58415,145.73847 L 265.58415,126.24374 C 265.58407,123.90127 265.83228,121.65758 266.32650,119.49804 C 266.82050,117.32029 267.68229,114.74667 268.90858,111.80020 L 262.50173,111.80020 L 256.14337,111.80020 C 256.10675,112.55058 255.96378,113.22971 255.70766,113.83359 C 255.46970,114.41925 255.06464,115.05864 254.49730,115.75402 L 243.65254,129.32610 L 232.92078,115.75402 C 232.51806,115.25993 232.21617,114.72588 232.03314,114.14021 C 231.85014,113.53633 231.74700,112.75188 231.71038,111.80020 L 223.56070,111.80020 L 215.39485,111.80020 z M 284.49792,124.32331 C 282.68610,124.32334 281.18495,124.41469 279.99539,124.59766 C 278.80586,124.78070 277.30464,125.14605 275.49289,125.69505 L 273.57243,132.74736 C 274.85350,132.21666 275.94954,131.86528 276.86461,131.68225 C 277.77964,131.49927 278.94123,131.40793 280.35040,131.40791 C 281.88769,131.40793 283.04931,131.78726 283.83623,132.53757 C 284.64149,133.26962 285.05838,134.28615 285.09499,135.60379 L 279.68878,137.36284 C 276.68747,138.33280 274.37810,139.70505 272.74942,141.46190 C 271.13894,143.20048 270.32874,145.18413 270.32874,147.41683 C 270.32866,149.75932 271.17870,151.67744 272.86237,153.17810 C 274.56432,154.66047 276.74462,155.40515 279.39828,155.40515 L 280.46339,155.37287 L 285.32094,151.58044 L 285.32094,154.77577 L 291.08223,154.77577 L 296.84346,154.77577 C 296.31273,153.51302 295.94956,152.19235 295.72998,150.83809 C 295.52864,149.48384 295.42326,147.78815 295.42334,145.73847 L 295.42334,134.37730 C 295.42326,131.30280 294.43039,128.86245 292.45392,127.05064 C 290.49571,125.23890 287.84689,124.32334 284.49792,124.32331 z M 318.59752,124.32331 C 317.66414,124.32334 316.82601,124.46842 316.11228,124.74290 L 310.62534,130.66556 L 310.62534,124.95269 L 304.75109,124.95269 L 298.87687,124.95269 C 299.40759,126.21547 299.77293,127.53614 299.97424,128.89037 C 300.19389,130.24466 300.31318,131.94032 300.31318,133.98999 L 300.31318,145.73847 C 300.31318,147.78816 300.20784,149.48384 300.00653,150.83809 C 299.78688,152.19235 299.40759,153.51302 298.87687,154.77577 L 305.46118,154.77577 L 312.06164,154.77577 C 311.53085,153.51302 311.15156,152.19235 310.93198,150.83809 C 310.73068,149.48384 310.62534,147.78815 310.62534,145.73847 L 310.62534,133.19923 C 311.54040,132.57703 312.61276,132.26324 313.82067,132.26322 C 314.91873,132.26324 315.73860,132.64041 316.30594,133.40902 C 316.89155,134.15937 317.19354,135.24362 317.19354,136.65276 L 317.19354,145.73847 C 317.19354,147.78816 317.07421,149.48384 316.85464,150.83809 C 316.65333,152.19235 316.28792,153.51302 315.75723,154.77577 L 322.35773,154.77577 L 328.94204,154.77577 C 328.41125,153.51302 328.03196,152.19235 327.81238,150.83809 C 327.61100,149.48384 327.50570,147.78815 327.50570,145.73847 L 327.50570,133.24764 C 327.50570,130.37445 326.75134,128.16833 325.21412,126.63105 C 323.67680,125.09382 321.47071,124.32334 318.59752,124.32331 z M 344.45065,124.32331 C 342.63887,124.32334 341.13768,124.41469 339.94816,124.59766 C 338.75859,124.78070 337.25737,125.14605 335.44562,125.69505 L 333.52524,132.74736 C 334.80626,132.21666 335.90231,131.86528 336.81738,131.68225 C 337.73237,131.49927 338.89396,131.40793 340.30320,131.40791 C 341.84042,131.40793 343.00201,131.78726 343.78900,132.53757 C 344.59422,133.26962 345.01107,134.28615 345.04780,135.60379 L 339.64151,137.36284 C 336.64020,138.33280 334.33094,139.70505 332.70215,141.46190 C 331.09171,143.20048 330.28147,145.18413 330.28147,147.41683 C 330.28147,149.75932 331.13140,151.67744 332.81514,153.17810 C 334.51712,154.66047 336.69743,155.40515 339.35101,155.40515 L 340.41612,155.37287 L 345.27371,151.58044 L 345.27371,154.77577 L 351.03497,154.77577 L 356.79626,154.77577 C 356.26550,153.51302 355.90229,152.19235 355.68271,150.83809 C 355.48137,149.48384 355.37599,147.78815 355.37610,145.73847 L 355.37610,134.37730 C 355.37607,131.30280 354.38316,128.86245 352.40672,127.05064 C 350.44851,125.23890 347.79965,124.32334 344.45065,124.32331 z M 280.62479,142.49473 L 285.09499,142.49473 L 285.09499,148.01393 C 284.45446,148.25185 283.67212,148.38295 282.73882,148.40125 C 281.58588,148.40126 280.71010,148.14121 280.12449,147.61048 C 279.55715,147.07977 279.28525,146.26954 279.28529,145.18978 C 279.28525,144.65907 279.44218,144.08525 279.75333,143.46301 C 280.06437,142.82249 280.35022,142.49476 280.62479,142.49473 z M 340.57752,142.49473 L 345.04780,142.49473 L 345.04780,148.01393 C 344.40723,148.25185 343.62500,148.38295 342.69163,148.40125 C 341.53868,148.40126 340.66283,148.14121 340.07726,147.61048 C 339.50992,147.07977 339.23798,146.26954 339.23809,145.18978 C 339.23802,144.65907 339.39499,144.08525 339.70606,143.46301 C 340.01721,142.82249 340.30298,142.49476 340.57752,142.49473 z " style="font-style: normal; font-variant: normal; font-weight: bold; font-stretch: normal; stroke: none; stroke-width: 1px; stroke-linecap: butt; stroke-linejoin: miter; stroke-opacity: 1; font-family: Albertus Extra Bold; text-anchor: start;"/>
    <path id="path1192" d="M 370.67122,109.80878 C 371.41784,111.09146 372.05743,112.42682 372.61260,113.84341 C 373.16776,115.26008 373.75788,117.06308 374.35135,119.24542 L 383.78802,154.74678 L 388.44725,154.74678 L 393.07273,154.74678 L 399.84210,131.77134 L 406.93224,154.74678 L 411.59149,154.74678 L 416.21696,154.74678 L 425.65363,119.24542 C 426.24692,117.08223 426.82023,115.29384 427.37552,113.87717 C 427.93061,112.46059 428.60167,111.11059 429.36752,109.80878 L 422.09164,109.80878 L 414.83268,109.80878 C 415.10062,110.88087 415.25021,111.80935 415.28850,112.59419 C 415.32670,113.35998 415.26042,114.16595 415.06901,115.00822 L 410.64612,135.82285 L 405.64926,116.32496 C 405.40034,115.44440 405.15309,114.36416 404.92339,113.10063 C 404.71282,111.83720 404.56329,110.74686 404.46757,109.80878 L 400.28101,109.80878 L 396.11136,109.80878 C 396.03471,110.55543 395.87059,111.55021 395.62178,112.81365 C 395.37290,114.07717 395.09859,115.25296 394.81148,116.32496 L 389.76399,134.97879 L 385.96568,117.06774 C 385.69763,115.86172 385.56279,114.71518 385.54367,113.62395 C 385.52449,112.53281 385.60541,111.26374 385.79686,109.80878 L 378.21719,109.80878 L 370.67122,109.80878 z M 502.76741,110.02824 L 495.72787,110.83854 L 488.68837,111.61508 C 489.24352,112.93603 489.62570,114.30065 489.83634,115.71723 C 490.06598,117.13390 490.17392,118.90767 490.17392,121.05172 L 490.17392,145.29326 C 490.17388,147.43735 490.08059,149.21112 489.87006,150.62775 C 489.64034,152.04439 489.24352,153.42588 488.68837,154.74678 L 495.57596,154.74678 L 502.48039,154.74678 C 501.92521,153.42588 501.52838,152.04438 501.29866,150.62775 C 501.08813,149.21112 500.97792,147.43736 500.97800,145.29326 L 500.97800,123.26317 C 500.97800,119.70250 501.11508,116.93168 501.38313,114.94069 C 501.65111,112.94980 502.11652,111.31090 502.76741,110.02824 z M 537.23900,110.02824 L 530.21638,110.83854 L 523.17684,111.61508 C 523.73203,112.93603 524.11413,114.30065 524.32477,115.71723 C 524.55449,117.13390 524.66236,118.90767 524.66239,121.05172 L 524.66239,122.95931 C 524.20289,122.90191 523.75451,122.87268 523.29503,122.89178 C 518.29850,122.89181 514.06523,124.72406 510.60031,128.36132 C 507.15435,131.99864 505.43465,136.44768 505.43465,141.73131 C 505.43465,145.73234 506.75767,149.02474 509.41862,151.58998 C 512.09867,154.13608 515.55528,155.40515 519.76684,155.40515 L 520.91474,155.37139 L 524.89874,151.26924 L 524.89874,154.74678 L 530.92538,154.74678 L 536.95198,154.74678 C 536.39677,153.44502 536.01689,152.07813 535.78721,150.66151 C 535.57653,149.24488 535.46636,147.45650 535.46643,145.29326 L 535.46643,123.26317 C 535.46636,119.70250 535.60352,116.94628 535.87157,114.97446 C 536.13959,112.98355 536.58804,111.33005 537.23900,110.02824 z M 446.29944,122.89178 C 441.22638,122.89181 437.07630,124.54533 433.84102,127.83800 C 430.60577,131.11158 428.99606,135.31558 428.99613,140.46521 C 428.99613,144.84912 430.47087,148.44051 433.41900,151.23547 C 436.36711,154.01130 440.13271,155.40515 444.74633,155.40515 C 449.83850,155.40515 454.00543,153.76625 457.22167,150.49269 C 460.45680,147.21914 462.06651,143.01287 462.06659,137.88237 C 462.06651,133.47935 460.59180,129.89022 457.64365,127.09523 C 454.71472,124.30028 450.93221,122.89182 446.29944,122.89178 z M 484.83947,122.89178 C 484.11191,122.89181 483.27897,123.07053 482.34102,123.41510 L 476.77019,129.32355 L 476.77019,123.55015 L 470.62540,123.55015 L 464.48064,123.55015 C 465.03579,124.87109 465.41793,126.25258 465.62854,127.66919 C 465.85818,129.08585 465.98300,130.85962 465.98304,133.00368 L 465.98304,145.29326 C 465.98300,147.43735 465.87286,149.21112 465.66233,150.62775 C 465.43261,152.04439 465.03571,153.42588 464.48064,154.74678 L 471.36816,154.74678 L 478.27263,154.74678 C 477.71744,153.42588 477.32062,152.04438 477.09094,150.62775 C 476.88029,149.21112 476.77008,147.43736 476.77019,145.29326 L 476.77019,134.59052 L 478.15447,133.25690 C 479.78168,131.87858 481.35196,131.19740 482.86432,131.19738 C 483.45780,131.19740 483.98940,131.26597 484.46809,131.39995 C 484.94664,131.53399 485.54686,131.77903 486.27435,132.14273 L 487.82742,123.24629 C 487.15734,123.11231 486.62340,123.01450 486.24059,122.97619 C 485.85768,122.91880 485.39455,122.89182 484.83947,122.89178 z M 442.31544,129.15474 C 444.88071,129.76737 446.96805,131.17358 448.59526,133.37506 C 450.22248,135.55746 451.04311,138.05626 451.04311,140.87036 C 451.04311,142.38273 450.72944,143.91145 450.09773,145.46207 C 449.48517,146.99357 448.69376,148.22331 447.71744,149.14219 C 445.40111,148.58703 443.48790,147.22015 441.99473,145.05692 C 440.52064,142.87455 439.78330,140.34878 439.78326,137.47722 C 439.78326,135.73516 440.01587,134.09853 440.47542,132.54788 C 440.95397,130.99727 441.56883,129.86308 442.31544,129.15474 z M 521.30303,129.23915 C 522.62393,129.23918 523.74345,129.45724 524.66239,129.89752 L 524.66239,146.55936 C 523.76263,147.65055 522.67003,148.21147 521.38743,148.23060 C 519.70277,148.23061 518.44829,147.43701 517.60601,145.86722 C 516.76370,144.27831 516.33982,141.90203 516.33993,138.74332 C 516.33989,135.94836 516.80522,133.66763 517.72420,131.90639 C 518.66215,130.12606 519.84813,129.23917 521.30303,129.23915 z " style="font-style: normal; font-variant: normal; font-weight: bold; font-stretch: normal; stroke: none; stroke-width: 1px; stroke-linecap: butt; stroke-linejoin: miter; stroke-opacity: 1; font-family: Albertus Extra Bold; text-anchor: start;"/>
    <path id="path1193" d="M 219.03051,84.211230 L 218.25001,86.617780 L 217.47763,89.016200 C 218.38120,88.638210 219.54454,88.368060 220.97363,88.211300 C 221.78501,88.128340 222.77839,88.069330 223.94931,88.032440 L 223.94931,101.30913 C 223.94931,102.23111 223.89029,103.03342 223.77045,103.71568 C 223.64135,104.39795 223.41724,105.10714 223.10374,105.85394 L 226.81116,105.85394 L 230.50229,105.85394 C 230.18879,105.10713 229.97281,104.39795 229.84374,103.71568 C 229.72387,103.03342 229.66488,102.23112 229.66488,101.30913 L 229.66488,88.056830 C 230.36557,88.084510 231.07581,88.150550 231.79499,88.251960 C 233.13185,88.427150 234.07815,88.631250 234.64058,88.861720 L 235.27474,86.536480 L 235.91703,84.211230 L 226.80303,84.211230 L 219.03051,84.211230 z M 242.73018,84.325050 L 239.33988,84.715300 L 235.95767,85.081160 C 236.22506,85.717350 236.40909,86.382690 236.51055,87.064940 C 236.62116,87.747230 236.67311,88.601490 236.67315,89.634100 L 236.67315,101.30913 C 236.67315,102.34175 236.62006,103.19602 236.51867,103.87829 C 236.40803,104.56056 236.22503,105.21777 235.95767,105.85394 L 239.27482,105.85394 L 242.59196,105.85394 C 242.32457,105.21777 242.13348,104.56056 242.02283,103.87829 C 241.92141,103.19602 241.87652,102.34176 241.87652,101.30913 L 241.87652,95.195190 C 242.40201,94.752640 243.02621,94.529600 243.75458,94.520370 C 244.21555,94.520380 244.56364,94.704440 244.80339,95.073230 C 245.05233,95.432810 245.17737,95.950900 245.17737,96.642370 L 245.17737,101.30913 C 245.17737,102.34175 245.12542,103.19602 245.01477,103.87829 C 244.91334,104.56056 244.72928,105.21777 244.46193,105.85394 L 247.77907,105.85394 L 251.09618,105.85394 C 250.82879,105.21777 250.64583,104.56056 250.53521,103.87829 C 250.43376,103.19602 250.38074,102.34176 250.38074,101.30913 L 250.38074,95.024450 C 250.38074,93.567740 249.99255,92.457390 249.21809,91.682920 C 248.44362,90.908470 247.32517,90.520310 245.86843,90.520290 C 245.48120,90.511090 245.06705,90.577140 244.62453,90.715420 L 241.87652,93.593530 L 241.87652,90.699160 C 241.87652,88.984290 241.94253,87.648740 242.07164,86.699080 C 242.20070,85.740240 242.41669,84.952020 242.73018,84.325050 z M 259.21830,90.520290 C 257.18141,90.530280 255.51033,91.259560 254.21008,92.715460 C 252.90086,94.172200 252.24254,96.052900 252.24254,98.357850 C 252.24254,100.78267 252.98691,102.69748 254.46213,104.08967 C 255.93729,105.48187 257.94899,106.17101 260.50287,106.17101 C 260.98230,106.17101 261.42244,106.15207 261.82813,106.10597 C 262.23378,106.06909 262.86607,105.98302 263.71435,105.85394 L 265.53551,101.45547 C 264.97308,101.85193 264.34184,102.16106 263.64116,102.38232 C 262.94966,102.60360 262.27240,102.71566 261.60859,102.71566 C 260.17953,102.71566 259.09520,102.23546 258.34838,101.27661 C 257.93350,100.73265 257.63030,100.06838 257.44591,99.284700 L 265.37290,99.284700 C 265.48352,98.740740 265.53547,98.168520 265.53551,97.569220 C 265.53547,95.356480 264.97626,93.634930 263.86070,92.390250 C 262.75308,91.154520 261.22080,90.529180 259.25897,90.520290 C 259.24488,90.520290 259.23236,90.520230 259.21830,90.520290 z M 259.20204,93.617920 C 259.78285,93.617930 260.23006,93.807940 260.54355,94.195170 C 260.86623,94.582410 261.03136,95.142740 261.03136,95.861870 L 261.03949,96.365940 L 257.25079,96.365940 C 257.30611,95.563830 257.46418,94.946670 257.72235,94.504110 C 258.06348,93.914060 258.55664,93.617930 259.20204,93.617920 z " style="font-style: normal; font-variant: normal; font-weight: bold; font-stretch: normal; stroke: none; stroke-width: 1px; stroke-linecap: butt; stroke-linejoin: miter; stroke-opacity: 1; font-family: Albertus Extra Bold; text-anchor: start;"/>
  </g>
  <g transform="translate(1.0625, -153.531)" id="g8833">
    <path id="path8019" d="M 118.93750,810.94311 C 118.93750,810.94311 258.93750,755.94311 431.93750,812.94311" style="fill: rgb(227, 227, 227); fill-opacity: 1; fill-rule: evenodd; stroke: none; stroke-width: 1px; stroke-linecap: butt; stroke-linejoin: miter; stroke-opacity: 1;"/>
    <path id="path8781" d="M 139.75000,694.36218 C 140.80099,698.56613 148.95396,707.41319 144.75000,706.36218 C 139.46888,705.04190 138.74032,702.85978 132.75000,701.36218 C 124.24716,699.23647 128.27188,705.36220 127.75000,705.36218 C 111.64790,705.36218 123.31850,711.42111 121.75000,712.36218 C 118.13597,714.53060 112.71271,719.87153 122.75000,717.36218 C 127.05033,716.28710 136.83751,710.27469 130.75000,716.36218 C 129.69383,717.41836 120.59643,730.28541 124.75000,732.36218 C 127.49874,733.73655 132.49536,723.38078 131.75000,726.36218 C 131.25824,728.32923 130.25824,730.39515 130.75000,732.36218 C 132.13169,737.88892 131.41741,745.44535 139.75000,743.36218 C 146.98372,741.55375 141.75000,739.12882 141.75000,733.36218 C 141.75000,729.92631 143.75000,720.52175 143.75000,722.36218 C 143.75000,727.06029 143.57456,733.66043 144.75000,738.36218 C 146.18497,744.10206 145.60454,749.63486 146.75000,755.36218 C 147.79357,760.58001 149.91047,766.55988 148.75000,772.36218 C 147.82244,777.00000 148.97415,783.46561 147.75000,788.36218 C 147.24692,790.37449 146.95164,792.65245 146.59375,794.86218 C 140.34688,794.01176 134.61891,793.02177 128.71875,792.08093 C 128.32566,789.08593 128.48241,786.23137 129.03125,783.48718 C 129.73133,779.98676 128.99798,776.24525 129.87500,772.73718 C 130.59341,769.86356 131.71875,767.57476 131.71875,769.67468 C 131.71875,773.19912 133.74297,772.37287 135.40625,771.70593 C 137.06952,771.03900 137.59305,772.42748 138.43750,769.04968 C 138.73805,767.84746 138.14430,766.59564 137.84375,765.39343 C 137.38820,763.57126 140.44504,769.88966 142.12500,769.04968 C 144.66356,767.78039 136.95801,760.28894 136.31250,759.64343 C 132.59197,755.92287 138.59050,759.58012 141.21875,760.23718 C 147.35330,761.77082 144.02130,758.53121 141.81250,757.20593 C 140.85387,756.63074 147.99745,752.92468 138.15625,752.92468 C 137.83730,752.92469 140.29048,749.15675 135.09375,750.45593 C 131.43262,751.37122 133.10269,752.36775 129.87500,753.17468 C 127.30566,753.81702 127.79517,749.90028 128.43750,747.33093 C 128.59449,746.70298 126.00181,749.01753 125.00000,749.51843 C 121.56435,751.23626 125.29261,755.60364 121.93750,748.89343 C 119.84852,744.71545 118.25746,748.33234 117.65625,750.73718 C 116.96867,753.48749 113.30058,752.47526 117.06250,756.23718 C 118.54564,757.72036 112.07121,757.23357 111.56250,759.26843 C 111.10695,761.09060 109.69718,763.09414 107.87500,763.54968 C 105.07992,764.24848 113.61234,762.89596 116.43750,762.33093 C 113.05716,764.02113 114.08253,765.75482 114.90625,769.04968 C 115.29215,770.59331 118.63934,768.88627 120.06250,768.17468 C 121.63341,770.91511 116.65287,777.42806 121.62500,772.45593 C 123.11731,770.96361 122.19671,774.98532 124.09375,772.45593 C 125.60572,770.43999 127.06312,772.17407 125.28125,773.95593 C 124.26673,774.97044 125.19151,783.88541 124.50000,785.26843 C 123.69812,786.87219 123.92450,789.12445 124.21875,791.36218 C 115.61711,789.93279 107.46197,788.39619 99.750000,786.76843 L 99.750000,808.64343 C 99.749990,814.18343 104.15104,818.64344 109.62500,818.64343 L 388.53125,818.64343 L 504.78125,806.76843 C 445.28859,811.09740 272.68067,811.09211 153.12500,795.64343 C 153.38646,794.48044 153.61032,793.35840 154.12500,791.29968 C 155.35281,786.38846 155.12501,780.80518 155.12500,775.29968 C 155.12500,770.37260 156.16579,762.38125 154.12500,758.29968 C 152.99355,756.03679 153.90995,742.02215 152.25000,740.36218 C 149.33452,737.44671 151.74489,734.59495 154.21875,737.89343 C 157.32267,742.03200 155.80829,735.45176 158.25000,737.89343 C 166.38535,746.02879 162.83666,732.48489 164.25000,730.89343 C 166.57857,732.05772 172.11858,734.88789 172.75000,732.36218 C 174.09776,726.97116 172.28088,724.12764 166.75000,721.36218 C 162.45726,720.50365 157.48655,716.73045 166.75000,721.36218 C 171.37251,722.28668 185.32330,724.50553 180.75000,723.36218 C 177.76858,722.61683 175.49536,719.34363 174.75000,716.36218 C 173.91765,713.03277 163.32330,713.78891 165.75000,711.36218 C 171.90524,705.20695 165.87501,706.86222 164.75000,702.36218 C 163.76631,698.42740 161.16798,692.52625 157.75000,699.36218 C 152.26041,710.34137 158.37138,703.17289 152.75000,700.36218 C 151.11084,699.54260 139.49314,693.33474 139.75000,694.36218 z " style="overflow: visible; marker: none; color: rgb(0, 0, 0); fill: rgb(209, 209, 209); fill-opacity: 1; fill-rule: evenodd; stroke: none; stroke-width: 1px; stroke-linecap: butt; stroke-linejoin: miter; stroke-miterlimit: 4; stroke-dashoffset: 0pt; stroke-opacity: 1; visibility: visible; display: inline;"/>
    <path id="path7257" d="M 451.84375,795.01843 C 421.79688,794.82722 397.93750,797.07096 373.93750,799.51843 C 327.33117,804.27123 296.06949,813.77727 282.25000,818.64343 L 511.43750,818.64343 L 511.43750,798.42468 C 488.95923,796.27435 469.06526,795.12802 451.84375,795.01843 z " style="fill: rgb(201, 201, 201); fill-opacity: 1; fill-rule: evenodd; stroke: none; stroke-width: 1px; stroke-linecap: butt; stroke-linejoin: miter; stroke-opacity: 1;"/>
  </g>
  <path sodipodi:nodetypes="cccccccccc" id="path4184" d="M 205.27466,177.37500 C 184.91865,206.95547 151.12016,226.37500 112.82761,226.37500 C 112.20251,226.37500 111.59765,226.29153 110.97496,226.28125 C 110.48511,226.28774 110.01509,226.37500 109.52372,226.37500 C 106.58022,226.37500 103.70197,226.16667 100.81629,225.93750 L 100.81629,655.06250 C 100.81628,660.60250 105.22311,665.06251 110.69707,665.06250 L 512.50516,665.06250 L 512.50516,177.37500 L 205.27466,177.37500 z " style="marker-start: none; stroke-opacity: 1; stroke-dashoffset: 0pt; stroke-miterlimit: 4; stroke-width: 0.875; stroke: rgb(139, 139, 139); fill-rule: nonzero; fill-opacity: 0.171598; fill: rgb(57, 54, 89);"/>
  <g transform="matrix(0.231768, -0.0455494, 0.0455494, 0.231768, -445.489, -76.2479)" inkscape:export-ydpi="29.998426" inkscape:export-xdpi="29.998426" inkscape:export-filename="/home/bjorn/logo_green.png" style="opacity: 0.772727;" id="g2570">
    <path sodipodi:nodetypes="cccccccccccccccczcccccccccccccccccccccc" inkscape:export-ydpi="72.010002" inkscape:export-xdpi="72.010002" inkscape:export-filename="/home/bjorn/logo.png" id="ringborder" d="M 2162.8446,865.03107 C 2120.7889,864.29951 2091.5598,870.44629 2058.3277,879.99469 L 2058.2895,880.03279 L 2058.2512,880.07089 L 2096.9021,1004.1809 L 2103.2187,1011.0795 C 2229.8403,977.04829 2363.1207,1046.2465 2406.3859,1172.0919 C 2412.6213,1190.2285 2417.5966,1250.6805 2411.4254,1274.3572 L 2418.2958,1281.2658 L 2536.0206,1304.1694 C 2539.2158,1284.3895 2541.3647,1264.2284 2541.3645,1243.5512 C 2541.3645,1179.4338 2525.2592,1119.0653 2497.0842,1066.1246 L 2489.8120,1059.0971 L 2491.9692,1065.5139 C 2398.3512,1047.2704 2327.8504,977.97129 2303.0146,892.20999 L 2296.2062,885.58750 C 2245.2001,870.74314 2204.9003,865.76263 2162.8446,865.03107 z M 2033.4391,888.23999 L 2026.8916,881.04050 C 1971.4232,908.51585 1867.0736,1004.3980 1844.8661,1038.7930 C 1847.5586,1044.9361 1850.4331,1050.9633 1852.6534,1057.4213 C 1884.6541,1150.5010 1857.3582,1249.5098 1791.1190,1313.8654 C 1806.7594,1396.9366 1849.6037,1470.2050 1909.9888,1524.5785 L 1990.6857,1431.9715 C 1964.3181,1405.7074 1943.2058,1373.3246 1930.2964,1335.7763 C 1886.0762,1207.1536 1952.3503,1067.4067 2078.4064,1019.1724 L 2033.4391,888.23999 z M 2412.7227,1313.5600 C 2393.0029,1393.9720 2334.2439,1463.0791 2250.1836,1491.9789 C 2165.4059,1521.1255 2075.8263,1502.1281 2010.6882,1449.8363 L 2004.3264,1444.0031 L 1924.6887,1535.3945 L 1930.6018,1541.9087 C 1994.1690,1591.4756 2073.7380,1621.3636 2160.4015,1621.9186 C 2160.6637,1621.6142 2160.9009,1621.3059 2161.1647,1621.0025 C 2221.3314,1551.8546 2311.7612,1524.5621 2395.6976,1541.4507 C 2460.7724,1490.4984 2508.5995,1418.8562 2529.4546,1336.3106 L 2523.5739,1329.6507 L 2412.7227,1313.5600 z " style="fill: url(#radialGradient1472) rgb(0, 0, 0); fill-opacity: 1; stroke: rgb(0, 0, 0); stroke-width: 2.44305; stroke-miterlimit: 4; stroke-dashoffset: 0pt; stroke-opacity: 1;"/>
    <path inkscape:export-ydpi="72.010002" inkscape:export-xdpi="72.010002" inkscape:export-filename="/home/bjorn/logo.png" id="ringtop" d="M 2156.1917,858.16433 C 2119.9023,858.16433 2084.9069,863.57955 2051.6748,873.12795 L 2051.5983,873.20415 L 2096.5658,1004.2128 C 2223.1874,970.18155 2356.4678,1039.3798 2399.7330,1165.2252 C 2412.2038,1201.4984 2415.5926,1238.6260 2411.6429,1274.3991 L 2529.3677,1297.3027 C 2532.5629,1277.5228 2534.7118,1257.3617 2534.7116,1236.6845 C 2534.7116,1172.5671 2518.6063,1112.1986 2490.4313,1059.2579 C 2488.7209,1058.9618 2487.0286,1058.9809 2485.3163,1058.6472 C 2391.6983,1040.4037 2321.1975,971.10455 2296.3617,885.34325 C 2252.9638,867.99495 2205.7582,858.16436 2156.1917,858.16433 z M 2026.7862,881.37325 C 1948.6870,909.86145 1882.6281,963.13635 1838.2132,1031.9263 C 1840.9057,1038.0694 1843.7802,1044.0966 1846.0005,1050.5546 C 1878.0012,1143.6343 1850.7053,1242.6431 1784.4661,1306.9987 C 1800.1065,1390.0699 1842.9508,1463.3383 1903.3359,1517.7118 L 1984.0328,1425.1048 C 1957.6652,1398.8407 1936.5529,1366.4579 1923.6435,1328.9096 C 1879.4233,1200.2869 1945.6974,1060.5400 2071.7535,1012.3057 L 2026.7862,881.37325 z M 2406.0698,1306.6933 C 2386.3500,1387.1053 2327.5910,1456.2124 2243.5307,1485.1122 C 2158.7530,1514.2588 2069.1734,1495.2614 2004.0353,1442.9696 L 1923.9489,1535.0420 C 1987.5161,1584.6089 2067.0851,1614.4969 2153.7486,1615.0519 C 2154.0108,1614.7475 2154.2480,1614.4392 2154.5118,1614.1358 C 2214.6785,1544.9879 2305.1083,1517.6954 2389.0447,1534.5840 C 2454.1195,1483.6317 2501.9466,1411.9895 2522.8017,1329.4439 L 2406.0698,1306.6933 z " style="fill: rgb(195, 190, 187); fill-opacity: 1; stroke: rgb(0, 0, 0); stroke-width: 2.4375; stroke-miterlimit: 4; stroke-dashoffset: 0pt; stroke-opacity: 1;"/>
    <path id="path2473" d="M 2071.5474,1012.2667 L 2077.2633,1018.9353" style="fill: none; fill-opacity: 0.75; fill-rule: evenodd; stroke: rgb(0, 0, 0); stroke-width: 2.5; stroke-linecap: butt; stroke-linejoin: miter; stroke-miterlimit: 4; stroke-opacity: 1;"/>
    <path id="path2471" d="M 2390.2103,1534.7977 L 2395.9262,1541.4663" style="fill: none; fill-opacity: 0.75; fill-rule: evenodd; stroke: rgb(0, 0, 0); stroke-width: 2.5; stroke-linecap: butt; stroke-linejoin: miter; stroke-miterlimit: 4; stroke-opacity: 1;"/>
    <path id="path2469" d="M 2154.9047,1615.2971 L 2160.6206,1621.9657" style="fill: none; fill-opacity: 0.75; fill-rule: evenodd; stroke: rgb(0, 0, 0); stroke-width: 2.5; stroke-linecap: butt; stroke-linejoin: miter; stroke-miterlimit: 4; stroke-opacity: 1;"/>
    <path id="path2475" d="M 2529.3926,1296.1578 L 2535.1085,1302.8264" style="fill: none; fill-opacity: 0.75; fill-rule: evenodd; stroke: rgb(0, 0, 0); stroke-width: 2.5; stroke-linecap: butt; stroke-linejoin: miter; stroke-miterlimit: 4; stroke-opacity: 1;"/>
  </g>
  <g id="layer1" inkscape:groupmode="layer" inkscape:label="Layer 1"/>
  <path inkscape:export-ydpi="29.998426" inkscape:export-xdpi="29.998426" inkscape:export-filename="/home/bjorn/logo_green.png" id="path2324" d="M 111.20712,61.358320 C 105.93418,61.513315 100.58710,62.457082 95.338181,64.261640 C 67.343857,73.886072 52.443156,104.41354 62.067542,132.40787 C 71.691901,160.40225 102.21946,175.32095 130.21379,165.69663 C 158.20808,156.07220 173.12691,125.52656 163.50247,97.532347 C 155.68267,74.786898 134.05643,60.686845 111.20712,61.358320 z M 111.40551,68.066540 C 112.28944,68.040580 113.15944,68.096609 114.03826,68.120677 C 113.35594,68.867736 112.90220,69.860015 112.90220,71.474787 C 112.90220,74.194268 113.13776,76.095757 113.73171,78.471547 C 114.45789,81.376097 112.73832,82.277277 111.26124,83.015827 C 108.91975,84.186557 108.79071,85.378457 108.79071,87.956857 C 108.79071,90.758727 110.38545,91.210607 111.67598,92.501137 C 113.20038,94.025537 117.34539,95.534227 119.50223,96.612627 C 120.16771,96.945367 120.33175,100.78258 120.33175,101.96837 C 120.33175,105.42760 119.20795,104.80242 116.61699,106.09792 C 114.80672,107.00302 113.22194,106.92741 110.84647,106.92741 C 109.17924,106.92741 108.79071,111.19456 108.79071,112.69796 C 108.79071,116.25230 111.05253,115.72493 113.73171,116.39465 C 116.65102,117.12452 118.25795,117.31407 118.25800,114.33897 C 118.25795,111.51523 119.37979,111.58349 121.55799,111.03893 C 123.92282,110.44774 124.82872,112.14808 125.27275,113.92418 C 125.99633,116.81845 128.38464,115.97993 131.04328,115.97993 C 133.58630,115.97993 134.34334,114.74757 134.34334,112.28317 C 134.34327,110.08488 134.34323,107.88141 134.34334,105.68317 C 134.34327,103.62225 134.34323,101.55878 134.34334,99.497897 C 134.34327,97.069417 134.05383,95.386387 136.81380,95.386387 C 139.56831,95.386387 142.03064,95.676067 144.64008,96.197857 C 147.05533,96.680957 148.89851,95.868117 150.82532,95.386387 C 152.34551,95.006337 153.00192,92.934217 153.38605,91.491287 C 154.87169,94.065127 156.15273,96.799247 157.15491,99.714287 C 162.58334,115.50387 159.05612,132.18869 149.32863,144.32765 C 148.22260,143.02431 146.69877,142.77682 143.82859,142.77682 C 143.21593,142.77682 140.10156,145.77499 139.69907,146.07686 C 138.59223,146.90694 135.25912,146.46999 133.51376,146.90631 C 133.28145,146.96441 131.91538,153.73272 131.87280,153.90307 C 131.45947,155.55655 126.63035,153.62038 126.10228,153.48834 C 124.05887,152.97749 121.56012,153.07754 119.91703,153.48834 C 119.65043,153.55500 119.36224,153.48834 119.08746,153.48834 C 118.25455,153.48834 114.60202,155.24091 113.31694,155.56210 C 111.13262,156.10822 108.15474,155.56210 105.90543,155.56210 C 104.55986,155.56215 102.89786,156.78834 100.54966,156.78834 C 97.116349,156.78838 97.517349,155.40687 96.834939,152.67683 C 96.539669,151.49589 90.659313,151.84738 89.405389,151.84738 C 87.416974,151.84731 85.565671,150.06330 84.464312,148.96211 C 82.917074,147.41480 81.292597,148.03617 80.262687,148.76372 C 75.060041,143.76726 70.902254,137.51288 68.397054,130.22591 C 66.694234,125.27290 65.920859,120.24129 65.890508,115.27669 C 66.375291,114.99658 66.811531,114.64128 67.567538,114.33897 C 70.236520,113.27136 70.728152,113.77010 72.093825,111.03893 C 72.871231,109.48406 73.488947,107.75728 76.223309,109.39790 C 77.318860,110.05522 81.056137,111.90461 81.579062,109.81269 C 81.970517,108.24698 85.299662,106.93325 83.634868,105.26841 C 82.164888,103.79843 80.592757,103.62749 77.864346,103.62737 C 74.921484,103.62744 75.393794,102.16780 75.393794,99.497897 C 75.393794,97.067057 75.155020,94.883657 77.467549,93.727377 C 78.373807,93.274277 83.238071,91.786227 83.238071,90.842107 C 83.238071,87.151217 82.561021,88.109137 80.352821,85.901097 C 80.185591,85.733797 79.332478,84.021457 78.892175,82.564987 C 83.905388,77.311397 90.182845,73.131786 97.520119,70.609224 C 102.11301,69.030217 106.79209,68.202330 111.40551,68.066540 z M 98.475899,125.46522 C 97.460799,125.21144 96.552419,126.29740 95.590630,126.70948 C 96.760489,125.53967 92.290540,128.75177 92.290634,130.40625 C 92.290589,132.38963 93.949549,132.71635 93.949670,135.36526 C 93.949621,136.72070 92.290540,138.74051 92.290634,141.13578 C 92.290589,141.84146 99.043549,142.22670 99.720189,142.36202 C 100.27567,142.47315 100.81159,142.63942 101.36115,142.77682 C 104.09160,143.45941 104.78376,142.48459 106.32018,144.02106 C 107.89114,145.59201 111.51815,145.48220 112.09070,143.19159 C 112.89008,139.99403 110.71599,139.25033 108.37599,138.66530 C 107.49725,138.44564 107.96119,133.27706 107.96119,132.48000 C 107.96119,129.44285 105.61323,129.02494 103.43491,127.93570 C 101.42105,126.92882 100.81659,126.05041 98.475899,125.46522 z " style="fill: rgb(0, 0, 0); fill-opacity: 0.654762; fill-rule: nonzero; stroke: rgb(0, 0, 0); stroke-width: 0.575741; stroke-miterlimit: 4; stroke-dashoffset: 0pt; stroke-opacity: 1;"/>
  <path inkscape:export-ydpi="29.998426" inkscape:export-xdpi="29.998426" inkscape:export-filename="/home/bjorn/logo_green.png" transform="matrix(0.241963, 0, 0, 0.241963, -407.386, -188.407)" d="M 2371.1723 1253.3577 A 220.95015 220.95015 0 1 1  1929.2720,1253.3577 A 220.95015 220.95015 0 1 1  2371.1723 1253.3577 z" sodipodi:ry="220.95015" sodipodi:rx="220.95015" sodipodi:cy="1253.3577" sodipodi:cx="2150.2222" id="path2560" style="opacity: 0.710227; fill: url(#radialGradient2568) rgb(0, 0, 0); fill-opacity: 1; fill-rule: nonzero; stroke: none; stroke-width: 2.5; stroke-miterlimit: 4; stroke-dashoffset: 0pt; stroke-opacity: 1;" sodipodi:type="arc"/>
  <g style="fill: rgb(50, 50, 50); fill-opacity: 1; stroke: none; stroke-opacity: 1;" transform="translate(-138.388, -152.035)" id="g4161">
    <path id="path3392" d="M 359.64995,260.06488 L 365.04005,266.39099 L 365.04005,294.00315 C 365.04005,295.97963 364.92292,297.65169 364.68501,299.00594 C 364.46543,300.36020 364.07207,301.70450 363.52308,303.04045 L 370.75292,303.04045 L 377.93434,303.04045 C 377.38531,301.70449 376.99420,300.36019 376.75628,299.00594 C 376.53659,297.65169 376.43352,295.97963 376.43352,294.00315 L 376.43352,277.94582 L 387.47193,292.29252 L 398.49420,278.18789 L 398.49420,294.00315 C 398.49412,295.97963 398.37699,297.65169 398.13915,299.00594 C 397.91946,300.36020 397.54226,301.70450 396.99338,303.04045 L 404.17476,303.04045 L 411.34007,303.04045 C 410.79096,301.70449 410.39977,300.36019 410.16200,299.00594 C 409.94235,297.65169 409.83914,295.97963 409.83925,294.00315 L 409.83925,274.50842 C 409.83917,272.16595 410.08738,269.92226 410.58160,267.76272 C 411.07560,265.58497 411.93739,263.01135 413.16368,260.06488 L 406.75683,260.06488 L 400.39847,260.06488 C 400.36185,260.81526 400.21888,261.49439 399.96276,262.09827 C 399.72480,262.68393 399.31974,263.32332 398.75240,264.01870 L 387.90764,277.59078 L 377.17588,264.01870 C 376.77316,263.52461 376.47127,262.99056 376.28824,262.40489 C 376.10524,261.80101 376.00210,261.01656 375.96548,260.06488 L 367.81580,260.06488 L 359.64995,260.06488 z M 428.75302,272.58799 C 426.94120,272.58802 425.44005,272.67937 424.25049,272.86234 C 423.06096,273.04538 421.55974,273.41073 419.74799,273.95973 L 417.82753,281.01204 C 419.10860,280.48134 420.20464,280.12996 421.11971,279.94693 C 422.03474,279.76395 423.19633,279.67261 424.60550,279.67259 C 426.14279,279.67261 427.30441,280.05194 428.09133,280.80225 C 428.89659,281.53430 429.31348,282.55083 429.35009,283.86847 L 423.94388,285.62752 C 420.94257,286.59748 418.63320,287.96973 417.00452,289.72658 C 415.39404,291.46516 414.58384,293.44881 414.58384,295.68151 C 414.58376,298.02400 415.43380,299.94212 417.11747,301.44278 C 418.81942,302.92515 420.99972,303.66983 423.65338,303.66983 L 424.71849,303.63755 L 429.57604,299.84512 L 429.57604,303.04045 L 435.33733,303.04045 L 441.09856,303.04045 C 440.56783,301.77770 440.20466,300.45703 439.98508,299.10277 C 439.78374,297.74852 439.67836,296.05283 439.67844,294.00315 L 439.67844,282.64198 C 439.67836,279.56748 438.68549,277.12713 436.70902,275.31532 C 434.75081,273.50358 432.10199,272.58802 428.75302,272.58799 z M 462.85262,272.58799 C 461.91924,272.58802 461.08111,272.73310 460.36738,273.00758 L 454.88044,278.93024 L 454.88044,273.21737 L 449.00619,273.21737 L 443.13197,273.21737 C 443.66269,274.48015 444.02803,275.80082 444.22934,277.15505 C 444.44899,278.50934 444.56828,280.20500 444.56828,282.25467 L 444.56828,294.00315 C 444.56828,296.05284 444.46294,297.74852 444.26163,299.10277 C 444.04198,300.45703 443.66269,301.77770 443.13197,303.04045 L 449.71628,303.04045 L 456.31674,303.04045 C 455.78595,301.77770 455.40666,300.45703 455.18708,299.10277 C 454.98578,297.74852 454.88044,296.05283 454.88044,294.00315 L 454.88044,281.46391 C 455.79550,280.84171 456.86786,280.52792 458.07577,280.52790 C 459.17383,280.52792 459.99370,280.90509 460.56104,281.67370 C 461.14665,282.42405 461.44864,283.50830 461.44864,284.91744 L 461.44864,294.00315 C 461.44864,296.05284 461.32931,297.74852 461.10974,299.10277 C 460.90843,300.45703 460.54302,301.77770 460.01233,303.04045 L 466.61283,303.04045 L 473.19714,303.04045 C 472.66635,301.77770 472.28706,300.45703 472.06748,299.10277 C 471.86610,297.74852 471.76080,296.05283 471.76080,294.00315 L 471.76080,281.51232 C 471.76080,278.63913 471.00644,276.43301 469.46922,274.89573 C 467.93190,273.35850 465.72581,272.58802 462.85262,272.58799 z M 488.70575,272.58799 C 486.89397,272.58802 485.39278,272.67937 484.20326,272.86234 C 483.01369,273.04538 481.51247,273.41073 479.70072,273.95973 L 477.78034,281.01204 C 479.06136,280.48134 480.15741,280.12996 481.07248,279.94693 C 481.98747,279.76395 483.14906,279.67261 484.55830,279.67259 C 486.09552,279.67261 487.25711,280.05194 488.04410,280.80225 C 488.84932,281.53430 489.26617,282.55083 489.30290,283.86847 L 483.89661,285.62752 C 480.89530,286.59748 478.58604,287.96973 476.95725,289.72658 C 475.34681,291.46516 474.53657,293.44881 474.53657,295.68151 C 474.53657,298.02400 475.38650,299.94212 477.07024,301.44278 C 478.77222,302.92515 480.95253,303.66983 483.60611,303.66983 L 484.67122,303.63755 L 489.52881,299.84512 L 489.52881,303.04045 L 495.29007,303.04045 L 501.05136,303.04045 C 500.52060,301.77770 500.15739,300.45703 499.93781,299.10277 C 499.73647,297.74852 499.63109,296.05283 499.63120,294.00315 L 499.63120,282.64198 C 499.63117,279.56748 498.63826,277.12713 496.66182,275.31532 C 494.70361,273.50358 492.05475,272.58802 488.70575,272.58799 z M 424.87989,290.75941 L 429.35009,290.75941 L 429.35009,296.27861 C 428.70956,296.51653 427.92722,296.64763 426.99392,296.66593 C 425.84098,296.66594 424.96520,296.40589 424.37959,295.87516 C 423.81225,295.34445 423.54035,294.53422 423.54039,293.45446 C 423.54035,292.92375 423.69728,292.34993 424.00843,291.72769 C 424.31947,291.08717 424.60532,290.75944 424.87989,290.75941 z M 484.83262,290.75941 L 489.30290,290.75941 L 489.30290,296.27861 C 488.66233,296.51653 487.88010,296.64763 486.94673,296.66593 C 485.79378,296.66594 484.91793,296.40589 484.33236,295.87516 C 483.76502,295.34445 483.49308,294.53422 483.49319,293.45446 C 483.49312,292.92375 483.65009,292.34993 483.96116,291.72769 C 484.27231,291.08717 484.55808,290.75944 484.83262,290.75941 z " style="font-style: normal; font-variant: normal; font-weight: bold; font-stretch: normal; stroke-width: 1px; stroke-linecap: butt; stroke-linejoin: miter; font-family: Albertus Extra Bold; text-anchor: start; stroke: none; stroke-opacity: 1; fill: rgb(50, 50, 50); fill-opacity: 1;"/>
    <path id="path3394" d="M 514.92632,258.07346 C 515.67294,259.35614 516.31253,260.69150 516.86770,262.10809 C 517.42286,263.52476 518.01298,265.32776 518.60645,267.51010 L 528.04312,303.01146 L 532.70235,303.01146 L 537.32783,303.01146 L 544.09720,280.03602 L 551.18734,303.01146 L 555.84659,303.01146 L 560.47206,303.01146 L 569.90873,267.51010 C 570.50202,265.34691 571.07533,263.55852 571.63062,262.14185 C 572.18571,260.72527 572.85677,259.37527 573.62262,258.07346 L 566.34674,258.07346 L 559.08778,258.07346 C 559.35572,259.14555 559.50531,260.07403 559.54360,260.85887 C 559.58180,261.62466 559.51552,262.43063 559.32411,263.27290 L 554.90122,284.08753 L 549.90436,264.58964 C 549.65544,263.70908 549.40819,262.62884 549.17849,261.36531 C 548.96792,260.10188 548.81839,259.01154 548.72267,258.07346 L 544.53611,258.07346 L 540.36646,258.07346 C 540.28981,258.82011 540.12569,259.81489 539.87688,261.07833 C 539.62800,262.34185 539.35369,263.51764 539.06658,264.58964 L 534.01909,283.24347 L 530.22078,265.33242 C 529.95273,264.12640 529.81789,262.97986 529.79877,261.88863 C 529.77959,260.79749 529.86051,259.52842 530.05196,258.07346 L 522.47229,258.07346 L 514.92632,258.07346 z M 647.02251,258.29292 L 639.98297,259.10322 L 632.94347,259.87976 C 633.49862,261.20071 633.88080,262.56533 634.09144,263.98191 C 634.32108,265.39858 634.42902,267.17235 634.42902,269.31640 L 634.42902,293.55794 C 634.42898,295.70203 634.33569,297.47580 634.12516,298.89243 C 633.89544,300.30907 633.49862,301.69056 632.94347,303.01146 L 639.83106,303.01146 L 646.73549,303.01146 C 646.18031,301.69056 645.78348,300.30906 645.55376,298.89243 C 645.34323,297.47580 645.23302,295.70204 645.23310,293.55794 L 645.23310,271.52785 C 645.23310,267.96718 645.37018,265.19636 645.63823,263.20537 C 645.90621,261.21448 646.37162,259.57558 647.02251,258.29292 z M 681.49410,258.29292 L 674.47148,259.10322 L 667.43194,259.87976 C 667.98713,261.20071 668.36923,262.56533 668.57987,263.98191 C 668.80959,265.39858 668.91746,267.17235 668.91749,269.31640 L 668.91749,271.22399 C 668.45799,271.16659 668.00961,271.13736 667.55013,271.15646 C 662.55360,271.15649 658.32033,272.98874 654.85541,276.62600 C 651.40945,280.26332 649.68975,284.71236 649.68975,289.99599 C 649.68975,293.99702 651.01277,297.28942 653.67372,299.85466 C 656.35377,302.40076 659.81038,303.66983 664.02194,303.66983 L 665.16984,303.63607 L 669.15384,299.53392 L 669.15384,303.01146 L 675.18048,303.01146 L 681.20708,303.01146 C 680.65187,301.70970 680.27199,300.34281 680.04231,298.92619 C 679.83163,297.50956 679.72146,295.72118 679.72153,293.55794 L 679.72153,271.52785 C 679.72146,267.96718 679.85862,265.21096 680.12667,263.23914 C 680.39469,261.24823 680.84314,259.59473 681.49410,258.29292 z M 590.55454,271.15646 C 585.48148,271.15649 581.33140,272.81001 578.09612,276.10268 C 574.86087,279.37626 573.25116,283.58026 573.25123,288.72989 C 573.25123,293.11380 574.72597,296.70519 577.67410,299.50015 C 580.62221,302.27598 584.38781,303.66983 589.00143,303.66983 C 594.09360,303.66983 598.26053,302.03093 601.47677,298.75737 C 604.71190,295.48382 606.32161,291.27755 606.32169,286.14705 C 606.32161,281.74403 604.84690,278.15490 601.89875,275.35991 C 598.96982,272.56496 595.18731,271.15650 590.55454,271.15646 z M 629.09457,271.15646 C 628.36701,271.15649 627.53407,271.33521 626.59612,271.67978 L 621.02529,277.58823 L 621.02529,271.81483 L 614.88050,271.81483 L 608.73574,271.81483 C 609.29089,273.13577 609.67303,274.51726 609.88364,275.93387 C 610.11328,277.35053 610.23810,279.12430 610.23814,281.26836 L 610.23814,293.55794 C 610.23810,295.70203 610.12796,297.47580 609.91743,298.89243 C 609.68771,300.30907 609.29081,301.69056 608.73574,303.01146 L 615.62326,303.01146 L 622.52773,303.01146 C 621.97254,301.69056 621.57572,300.30906 621.34604,298.89243 C 621.13539,297.47580 621.02518,295.70204 621.02529,293.55794 L 621.02529,282.85520 L 622.40957,281.52158 C 624.03678,280.14326 625.60706,279.46208 627.11942,279.46206 C 627.71290,279.46208 628.24450,279.53065 628.72319,279.66463 C 629.20174,279.79867 629.80196,280.04371 630.52945,280.40741 L 632.08252,271.51097 C 631.41244,271.37699 630.87850,271.27918 630.49569,271.24087 C 630.11278,271.18348 629.64965,271.15650 629.09457,271.15646 z M 586.57054,277.41942 C 589.13581,278.03205 591.22315,279.43826 592.85036,281.63974 C 594.47758,283.82214 595.29821,286.32094 595.29821,289.13504 C 595.29821,290.64741 594.98454,292.17613 594.35283,293.72675 C 593.74027,295.25825 592.94886,296.48799 591.97254,297.40687 C 589.65621,296.85171 587.74300,295.48483 586.24983,293.32160 C 584.77574,291.13923 584.03840,288.61346 584.03836,285.74190 C 584.03836,283.99984 584.27097,282.36321 584.73052,280.81256 C 585.20907,279.26195 585.82393,278.12776 586.57054,277.41942 z M 665.55813,277.50383 C 666.87903,277.50386 667.99855,277.72192 668.91749,278.16220 L 668.91749,294.82404 C 668.01773,295.91523 666.92513,296.47615 665.64253,296.49528 C 663.95787,296.49529 662.70339,295.70169 661.86111,294.13190 C 661.01880,292.54299 660.59492,290.16671 660.59503,287.00800 C 660.59499,284.21304 661.06032,281.93231 661.97930,280.17107 C 662.91725,278.39074 664.10323,277.50385 665.55813,277.50383 z " style="font-style: normal; font-variant: normal; font-weight: bold; font-stretch: normal; stroke-width: 1px; stroke-linecap: butt; stroke-linejoin: miter; font-family: Albertus Extra Bold; text-anchor: start; stroke: none; stroke-opacity: 1; fill: rgb(50, 50, 50); fill-opacity: 1;"/>
    <path id="path3396" d="M 363.28561,232.47591 L 362.50511,234.88246 L 361.73273,237.28088 C 362.63630,236.90289 363.79964,236.63274 365.22873,236.47598 C 366.04011,236.39302 367.03349,236.33401 368.20441,236.29712 L 368.20441,249.57381 C 368.20441,250.49579 368.14539,251.29810 368.02555,251.98036 C 367.89645,252.66263 367.67234,253.37182 367.35884,254.11862 L 371.06626,254.11862 L 374.75739,254.11862 C 374.44389,253.37181 374.22791,252.66263 374.09884,251.98036 C 373.97897,251.29810 373.91998,250.49580 373.91998,249.57381 L 373.91998,236.32151 C 374.62067,236.34919 375.33091,236.41523 376.05009,236.51664 C 377.38695,236.69183 378.33325,236.89593 378.89568,237.12640 L 379.52984,234.80116 L 380.17213,232.47591 L 371.05813,232.47591 L 363.28561,232.47591 z M 386.98528,232.58973 L 383.59498,232.97998 L 380.21277,233.34584 C 380.48016,233.98203 380.66419,234.64737 380.76565,235.32962 C 380.87626,236.01191 380.92821,236.86617 380.92825,237.89878 L 380.92825,249.57381 C 380.92825,250.60643 380.87516,251.46070 380.77377,252.14297 C 380.66313,252.82524 380.48013,253.48245 380.21277,254.11862 L 383.52992,254.11862 L 386.84706,254.11862 C 386.57967,253.48245 386.38858,252.82524 386.27793,252.14297 C 386.17651,251.46070 386.13162,250.60644 386.13162,249.57381 L 386.13162,243.45987 C 386.65711,243.01732 387.28131,242.79428 388.00968,242.78505 C 388.47065,242.78506 388.81874,242.96912 389.05849,243.33791 C 389.30743,243.69749 389.43247,244.21558 389.43247,244.90705 L 389.43247,249.57381 C 389.43247,250.60643 389.38052,251.46070 389.26987,252.14297 C 389.16844,252.82524 388.98438,253.48245 388.71703,254.11862 L 392.03417,254.11862 L 395.35128,254.11862 C 395.08389,253.48245 394.90093,252.82524 394.79031,252.14297 C 394.68886,251.46070 394.63584,250.60644 394.63584,249.57381 L 394.63584,243.28913 C 394.63584,241.83242 394.24765,240.72207 393.47319,239.94760 C 392.69872,239.17315 391.58027,238.78499 390.12353,238.78497 C 389.73630,238.77577 389.32215,238.84182 388.87963,238.98010 L 386.13162,241.85821 L 386.13162,238.96384 C 386.13162,237.24897 386.19763,235.91342 386.32674,234.96376 C 386.45580,234.00492 386.67179,233.21670 386.98528,232.58973 z M 403.47340,238.78497 C 401.43651,238.79496 399.76543,239.52424 398.46518,240.98014 C 397.15596,242.43688 396.49764,244.31758 396.49764,246.62253 C 396.49764,249.04735 397.24201,250.96216 398.71723,252.35435 C 400.19239,253.74655 402.20409,254.43569 404.75797,254.43569 C 405.23740,254.43569 405.67754,254.41675 406.08323,254.37065 C 406.48888,254.33377 407.12117,254.24770 407.96945,254.11862 L 409.79061,249.72015 C 409.22818,250.11661 408.59694,250.42574 407.89626,250.64700 C 407.20476,250.86828 406.52750,250.98034 405.86369,250.98034 C 404.43463,250.98034 403.35030,250.50014 402.60348,249.54129 C 402.18860,248.99733 401.88540,248.33306 401.70101,247.54938 L 409.62800,247.54938 C 409.73862,247.00542 409.79057,246.43320 409.79061,245.83390 C 409.79057,243.62116 409.23136,241.89961 408.11580,240.65493 C 407.00818,239.41920 405.47590,238.79386 403.51407,238.78497 C 403.49998,238.78497 403.48746,238.78491 403.47340,238.78497 z M 403.45714,241.88260 C 404.03795,241.88261 404.48516,242.07262 404.79865,242.45985 C 405.12133,242.84709 405.28646,243.40742 405.28646,244.12655 L 405.29459,244.63062 L 401.50589,244.63062 C 401.56121,243.82851 401.71928,243.21135 401.97745,242.76879 C 402.31858,242.17874 402.81174,241.88261 403.45714,241.88260 z " style="font-style: normal; font-variant: normal; font-weight: bold; font-stretch: normal; stroke-width: 1px; stroke-linecap: butt; stroke-linejoin: miter; font-family: Albertus Extra Bold; text-anchor: start; stroke: none; stroke-opacity: 1; fill: rgb(50, 50, 50); fill-opacity: 1;"/>
  </g>
  <path sodipodi:nodetypes="cccccc" id="path4176" d="M 512.50000,177.36218 L 512.50000,665.04968 L 639.53129,665.04968 C 645.33095,665.04968 650.00002,660.58969 650.00000,655.04968 L 650.00000,177.36218 L 512.50000,177.36218 z " style="opacity: 1; fill: rgb(61, 58, 96); fill-opacity: 0.461538; fill-rule: nonzero; stroke: rgb(139, 139, 139); stroke-width: 0.875; stroke-miterlimit: 4; stroke-dashoffset: 0pt; stroke-opacity: 1; stroke-dasharray: none;"/>
  <text id="text2227" y="539.28" x="499.488" style="font-style: oblique; font-variant: normal; font-weight: normal; font-stretch: normal; fill: rgb(60, 60, 60); fill-opacity: 1; stroke: none; stroke-width: 1px; stroke-linecap: butt; stroke-linejoin: miter; stroke-opacity: 1; font-family: Bitstream Vera Sans; text-anchor: end;" xml:space="preserve" sodipodi:linespacing="100%"><tspan y="539.28" x="499.488" id="tspan2229" sodipodi:role="line">Rotonen</tspan></text>
  <g style="opacity: 1; fill: url(#linearGradient3707) rgb(0, 0, 0); fill-opacity: 1; stroke: rgb(83, 83, 83); stroke-opacity: 1;" transform="translate(-140.27, -153.505)" id="g4187">
    <path id="path4189" d="M 359.64995,260.06488 L 365.04005,266.39099 L 365.04005,294.00315 C 365.04005,295.97963 364.92292,297.65169 364.68501,299.00594 C 364.46543,300.36020 364.07207,301.70450 363.52308,303.04045 L 370.75292,303.04045 L 377.93434,303.04045 C 377.38531,301.70449 376.99420,300.36019 376.75628,299.00594 C 376.53659,297.65169 376.43352,295.97963 376.43352,294.00315 L 376.43352,277.94582 L 387.47193,292.29252 L 398.49420,278.18789 L 398.49420,294.00315 C 398.49412,295.97963 398.37699,297.65169 398.13915,299.00594 C 397.91946,300.36020 397.54226,301.70450 396.99338,303.04045 L 404.17476,303.04045 L 411.34007,303.04045 C 410.79096,301.70449 410.39977,300.36019 410.16200,299.00594 C 409.94235,297.65169 409.83914,295.97963 409.83925,294.00315 L 409.83925,274.50842 C 409.83917,272.16595 410.08738,269.92226 410.58160,267.76272 C 411.07560,265.58497 411.93739,263.01135 413.16368,260.06488 L 406.75683,260.06488 L 400.39847,260.06488 C 400.36185,260.81526 400.21888,261.49439 399.96276,262.09827 C 399.72480,262.68393 399.31974,263.32332 398.75240,264.01870 L 387.90764,277.59078 L 377.17588,264.01870 C 376.77316,263.52461 376.47127,262.99056 376.28824,262.40489 C 376.10524,261.80101 376.00210,261.01656 375.96548,260.06488 L 367.81580,260.06488 L 359.64995,260.06488 z M 428.75302,272.58799 C 426.94120,272.58802 425.44005,272.67937 424.25049,272.86234 C 423.06096,273.04538 421.55974,273.41073 419.74799,273.95973 L 417.82753,281.01204 C 419.10860,280.48134 420.20464,280.12996 421.11971,279.94693 C 422.03474,279.76395 423.19633,279.67261 424.60550,279.67259 C 426.14279,279.67261 427.30441,280.05194 428.09133,280.80225 C 428.89659,281.53430 429.31348,282.55083 429.35009,283.86847 L 423.94388,285.62752 C 420.94257,286.59748 418.63320,287.96973 417.00452,289.72658 C 415.39404,291.46516 414.58384,293.44881 414.58384,295.68151 C 414.58376,298.02400 415.43380,299.94212 417.11747,301.44278 C 418.81942,302.92515 420.99972,303.66983 423.65338,303.66983 L 424.71849,303.63755 L 429.57604,299.84512 L 429.57604,303.04045 L 435.33733,303.04045 L 441.09856,303.04045 C 440.56783,301.77770 440.20466,300.45703 439.98508,299.10277 C 439.78374,297.74852 439.67836,296.05283 439.67844,294.00315 L 439.67844,282.64198 C 439.67836,279.56748 438.68549,277.12713 436.70902,275.31532 C 434.75081,273.50358 432.10199,272.58802 428.75302,272.58799 z M 462.85262,272.58799 C 461.91924,272.58802 461.08111,272.73310 460.36738,273.00758 L 454.88044,278.93024 L 454.88044,273.21737 L 449.00619,273.21737 L 443.13197,273.21737 C 443.66269,274.48015 444.02803,275.80082 444.22934,277.15505 C 444.44899,278.50934 444.56828,280.20500 444.56828,282.25467 L 444.56828,294.00315 C 444.56828,296.05284 444.46294,297.74852 444.26163,299.10277 C 444.04198,300.45703 443.66269,301.77770 443.13197,303.04045 L 449.71628,303.04045 L 456.31674,303.04045 C 455.78595,301.77770 455.40666,300.45703 455.18708,299.10277 C 454.98578,297.74852 454.88044,296.05283 454.88044,294.00315 L 454.88044,281.46391 C 455.79550,280.84171 456.86786,280.52792 458.07577,280.52790 C 459.17383,280.52792 459.99370,280.90509 460.56104,281.67370 C 461.14665,282.42405 461.44864,283.50830 461.44864,284.91744 L 461.44864,294.00315 C 461.44864,296.05284 461.32931,297.74852 461.10974,299.10277 C 460.90843,300.45703 460.54302,301.77770 460.01233,303.04045 L 466.61283,303.04045 L 473.19714,303.04045 C 472.66635,301.77770 472.28706,300.45703 472.06748,299.10277 C 471.86610,297.74852 471.76080,296.05283 471.76080,294.00315 L 471.76080,281.51232 C 471.76080,278.63913 471.00644,276.43301 469.46922,274.89573 C 467.93190,273.35850 465.72581,272.58802 462.85262,272.58799 z M 488.70575,272.58799 C 486.89397,272.58802 485.39278,272.67937 484.20326,272.86234 C 483.01369,273.04538 481.51247,273.41073 479.70072,273.95973 L 477.78034,281.01204 C 479.06136,280.48134 480.15741,280.12996 481.07248,279.94693 C 481.98747,279.76395 483.14906,279.67261 484.55830,279.67259 C 486.09552,279.67261 487.25711,280.05194 488.04410,280.80225 C 488.84932,281.53430 489.26617,282.55083 489.30290,283.86847 L 483.89661,285.62752 C 480.89530,286.59748 478.58604,287.96973 476.95725,289.72658 C 475.34681,291.46516 474.53657,293.44881 474.53657,295.68151 C 474.53657,298.02400 475.38650,299.94212 477.07024,301.44278 C 478.77222,302.92515 480.95253,303.66983 483.60611,303.66983 L 484.67122,303.63755 L 489.52881,299.84512 L 489.52881,303.04045 L 495.29007,303.04045 L 501.05136,303.04045 C 500.52060,301.77770 500.15739,300.45703 499.93781,299.10277 C 499.73647,297.74852 499.63109,296.05283 499.63120,294.00315 L 499.63120,282.64198 C 499.63117,279.56748 498.63826,277.12713 496.66182,275.31532 C 494.70361,273.50358 492.05475,272.58802 488.70575,272.58799 z M 424.87989,290.75941 L 429.35009,290.75941 L 429.35009,296.27861 C 428.70956,296.51653 427.92722,296.64763 426.99392,296.66593 C 425.84098,296.66594 424.96520,296.40589 424.37959,295.87516 C 423.81225,295.34445 423.54035,294.53422 423.54039,293.45446 C 423.54035,292.92375 423.69728,292.34993 424.00843,291.72769 C 424.31947,291.08717 424.60532,290.75944 424.87989,290.75941 z M 484.83262,290.75941 L 489.30290,290.75941 L 489.30290,296.27861 C 488.66233,296.51653 487.88010,296.64763 486.94673,296.66593 C 485.79378,296.66594 484.91793,296.40589 484.33236,295.87516 C 483.76502,295.34445 483.49308,294.53422 483.49319,293.45446 C 483.49312,292.92375 483.65009,292.34993 483.96116,291.72769 C 484.27231,291.08717 484.55808,290.75944 484.83262,290.75941 z " style="fill-opacity: 1; text-anchor: start; font-family: Albertus Extra Bold; stroke-linejoin: miter; stroke-linecap: butt; stroke-width: 1px; font-stretch: normal; font-weight: bold; font-variant: normal; font-style: normal; fill: url(#linearGradient3707) rgb(0, 0, 0);"/>
    <path id="path4191" d="M 514.92632,258.07346 C 515.67294,259.35614 516.31253,260.69150 516.86770,262.10809 C 517.42286,263.52476 518.01298,265.32776 518.60645,267.51010 L 528.04312,303.01146 L 532.70235,303.01146 L 537.32783,303.01146 L 544.09720,280.03602 L 551.18734,303.01146 L 555.84659,303.01146 L 560.47206,303.01146 L 569.90873,267.51010 C 570.50202,265.34691 571.07533,263.55852 571.63062,262.14185 C 572.18571,260.72527 572.85677,259.37527 573.62262,258.07346 L 566.34674,258.07346 L 559.08778,258.07346 C 559.35572,259.14555 559.50531,260.07403 559.54360,260.85887 C 559.58180,261.62466 559.51552,262.43063 559.32411,263.27290 L 554.90122,284.08753 L 549.90436,264.58964 C 549.65544,263.70908 549.40819,262.62884 549.17849,261.36531 C 548.96792,260.10188 548.81839,259.01154 548.72267,258.07346 L 544.53611,258.07346 L 540.36646,258.07346 C 540.28981,258.82011 540.12569,259.81489 539.87688,261.07833 C 539.62800,262.34185 539.35369,263.51764 539.06658,264.58964 L 534.01909,283.24347 L 530.22078,265.33242 C 529.95273,264.12640 529.81789,262.97986 529.79877,261.88863 C 529.77959,260.79749 529.86051,259.52842 530.05196,258.07346 L 522.47229,258.07346 L 514.92632,258.07346 z M 647.02251,258.29292 L 639.98297,259.10322 L 632.94347,259.87976 C 633.49862,261.20071 633.88080,262.56533 634.09144,263.98191 C 634.32108,265.39858 634.42902,267.17235 634.42902,269.31640 L 634.42902,293.55794 C 634.42898,295.70203 634.33569,297.47580 634.12516,298.89243 C 633.89544,300.30907 633.49862,301.69056 632.94347,303.01146 L 639.83106,303.01146 L 646.73549,303.01146 C 646.18031,301.69056 645.78348,300.30906 645.55376,298.89243 C 645.34323,297.47580 645.23302,295.70204 645.23310,293.55794 L 645.23310,271.52785 C 645.23310,267.96718 645.37018,265.19636 645.63823,263.20537 C 645.90621,261.21448 646.37162,259.57558 647.02251,258.29292 z M 681.49410,258.29292 L 674.47148,259.10322 L 667.43194,259.87976 C 667.98713,261.20071 668.36923,262.56533 668.57987,263.98191 C 668.80959,265.39858 668.91746,267.17235 668.91749,269.31640 L 668.91749,271.22399 C 668.45799,271.16659 668.00961,271.13736 667.55013,271.15646 C 662.55360,271.15649 658.32033,272.98874 654.85541,276.62600 C 651.40945,280.26332 649.68975,284.71236 649.68975,289.99599 C 649.68975,293.99702 651.01277,297.28942 653.67372,299.85466 C 656.35377,302.40076 659.81038,303.66983 664.02194,303.66983 L 665.16984,303.63607 L 669.15384,299.53392 L 669.15384,303.01146 L 675.18048,303.01146 L 681.20708,303.01146 C 680.65187,301.70970 680.27199,300.34281 680.04231,298.92619 C 679.83163,297.50956 679.72146,295.72118 679.72153,293.55794 L 679.72153,271.52785 C 679.72146,267.96718 679.85862,265.21096 680.12667,263.23914 C 680.39469,261.24823 680.84314,259.59473 681.49410,258.29292 z M 590.55454,271.15646 C 585.48148,271.15649 581.33140,272.81001 578.09612,276.10268 C 574.86087,279.37626 573.25116,283.58026 573.25123,288.72989 C 573.25123,293.11380 574.72597,296.70519 577.67410,299.50015 C 580.62221,302.27598 584.38781,303.66983 589.00143,303.66983 C 594.09360,303.66983 598.26053,302.03093 601.47677,298.75737 C 604.71190,295.48382 606.32161,291.27755 606.32169,286.14705 C 606.32161,281.74403 604.84690,278.15490 601.89875,275.35991 C 598.96982,272.56496 595.18731,271.15650 590.55454,271.15646 z M 629.09457,271.15646 C 628.36701,271.15649 627.53407,271.33521 626.59612,271.67978 L 621.02529,277.58823 L 621.02529,271.81483 L 614.88050,271.81483 L 608.73574,271.81483 C 609.29089,273.13577 609.67303,274.51726 609.88364,275.93387 C 610.11328,277.35053 610.23810,279.12430 610.23814,281.26836 L 610.23814,293.55794 C 610.23810,295.70203 610.12796,297.47580 609.91743,298.89243 C 609.68771,300.30907 609.29081,301.69056 608.73574,303.01146 L 615.62326,303.01146 L 622.52773,303.01146 C 621.97254,301.69056 621.57572,300.30906 621.34604,298.89243 C 621.13539,297.47580 621.02518,295.70204 621.02529,293.55794 L 621.02529,282.85520 L 622.40957,281.52158 C 624.03678,280.14326 625.60706,279.46208 627.11942,279.46206 C 627.71290,279.46208 628.24450,279.53065 628.72319,279.66463 C 629.20174,279.79867 629.80196,280.04371 630.52945,280.40741 L 632.08252,271.51097 C 631.41244,271.37699 630.87850,271.27918 630.49569,271.24087 C 630.11278,271.18348 629.64965,271.15650 629.09457,271.15646 z M 586.57054,277.41942 C 589.13581,278.03205 591.22315,279.43826 592.85036,281.63974 C 594.47758,283.82214 595.29821,286.32094 595.29821,289.13504 C 595.29821,290.64741 594.98454,292.17613 594.35283,293.72675 C 593.74027,295.25825 592.94886,296.48799 591.97254,297.40687 C 589.65621,296.85171 587.74300,295.48483 586.24983,293.32160 C 584.77574,291.13923 584.03840,288.61346 584.03836,285.74190 C 584.03836,283.99984 584.27097,282.36321 584.73052,280.81256 C 585.20907,279.26195 585.82393,278.12776 586.57054,277.41942 z M 665.55813,277.50383 C 666.87903,277.50386 667.99855,277.72192 668.91749,278.16220 L 668.91749,294.82404 C 668.01773,295.91523 666.92513,296.47615 665.64253,296.49528 C 663.95787,296.49529 662.70339,295.70169 661.86111,294.13190 C 661.01880,292.54299 660.59492,290.16671 660.59503,287.00800 C 660.59499,284.21304 661.06032,281.93231 661.97930,280.17107 C 662.91725,278.39074 664.10323,277.50385 665.55813,277.50383 z " style="fill-opacity: 1; text-anchor: start; font-family: Albertus Extra Bold; stroke-linejoin: miter; stroke-linecap: butt; stroke-width: 1px; font-stretch: normal; font-weight: bold; font-variant: normal; font-style: normal; fill: url(#linearGradient3707) rgb(0, 0, 0);"/>
    <path id="path4193" d="M 363.28561,232.47591 L 362.50511,234.88246 L 361.73273,237.28088 C 362.63630,236.90289 363.79964,236.63274 365.22873,236.47598 C 366.04011,236.39302 367.03349,236.33401 368.20441,236.29712 L 368.20441,249.57381 C 368.20441,250.49579 368.14539,251.29810 368.02555,251.98036 C 367.89645,252.66263 367.67234,253.37182 367.35884,254.11862 L 371.06626,254.11862 L 374.75739,254.11862 C 374.44389,253.37181 374.22791,252.66263 374.09884,251.98036 C 373.97897,251.29810 373.91998,250.49580 373.91998,249.57381 L 373.91998,236.32151 C 374.62067,236.34919 375.33091,236.41523 376.05009,236.51664 C 377.38695,236.69183 378.33325,236.89593 378.89568,237.12640 L 379.52984,234.80116 L 380.17213,232.47591 L 371.05813,232.47591 L 363.28561,232.47591 z M 386.98528,232.58973 L 383.59498,232.97998 L 380.21277,233.34584 C 380.48016,233.98203 380.66419,234.64737 380.76565,235.32962 C 380.87626,236.01191 380.92821,236.86617 380.92825,237.89878 L 380.92825,249.57381 C 380.92825,250.60643 380.87516,251.46070 380.77377,252.14297 C 380.66313,252.82524 380.48013,253.48245 380.21277,254.11862 L 383.52992,254.11862 L 386.84706,254.11862 C 386.57967,253.48245 386.38858,252.82524 386.27793,252.14297 C 386.17651,251.46070 386.13162,250.60644 386.13162,249.57381 L 386.13162,243.45987 C 386.65711,243.01732 387.28131,242.79428 388.00968,242.78505 C 388.47065,242.78506 388.81874,242.96912 389.05849,243.33791 C 389.30743,243.69749 389.43247,244.21558 389.43247,244.90705 L 389.43247,249.57381 C 389.43247,250.60643 389.38052,251.46070 389.26987,252.14297 C 389.16844,252.82524 388.98438,253.48245 388.71703,254.11862 L 392.03417,254.11862 L 395.35128,254.11862 C 395.08389,253.48245 394.90093,252.82524 394.79031,252.14297 C 394.68886,251.46070 394.63584,250.60644 394.63584,249.57381 L 394.63584,243.28913 C 394.63584,241.83242 394.24765,240.72207 393.47319,239.94760 C 392.69872,239.17315 391.58027,238.78499 390.12353,238.78497 C 389.73630,238.77577 389.32215,238.84182 388.87963,238.98010 L 386.13162,241.85821 L 386.13162,238.96384 C 386.13162,237.24897 386.19763,235.91342 386.32674,234.96376 C 386.45580,234.00492 386.67179,233.21670 386.98528,232.58973 z M 403.47340,238.78497 C 401.43651,238.79496 399.76543,239.52424 398.46518,240.98014 C 397.15596,242.43688 396.49764,244.31758 396.49764,246.62253 C 396.49764,249.04735 397.24201,250.96216 398.71723,252.35435 C 400.19239,253.74655 402.20409,254.43569 404.75797,254.43569 C 405.23740,254.43569 405.67754,254.41675 406.08323,254.37065 C 406.48888,254.33377 407.12117,254.24770 407.96945,254.11862 L 409.79061,249.72015 C 409.22818,250.11661 408.59694,250.42574 407.89626,250.64700 C 407.20476,250.86828 406.52750,250.98034 405.86369,250.98034 C 404.43463,250.98034 403.35030,250.50014 402.60348,249.54129 C 402.18860,248.99733 401.88540,248.33306 401.70101,247.54938 L 409.62800,247.54938 C 409.73862,247.00542 409.79057,246.43320 409.79061,245.83390 C 409.79057,243.62116 409.23136,241.89961 408.11580,240.65493 C 407.00818,239.41920 405.47590,238.79386 403.51407,238.78497 C 403.49998,238.78497 403.48746,238.78491 403.47340,238.78497 z M 403.45714,241.88260 C 404.03795,241.88261 404.48516,242.07262 404.79865,242.45985 C 405.12133,242.84709 405.28646,243.40742 405.28646,244.12655 L 405.29459,244.63062 L 401.50589,244.63062 C 401.56121,243.82851 401.71928,243.21135 401.97745,242.76879 C 402.31858,242.17874 402.81174,241.88261 403.45714,241.88260 z " style="fill-opacity: 1; text-anchor: start; font-family: Albertus Extra Bold; stroke-linejoin: miter; stroke-linecap: butt; stroke-width: 1px; font-stretch: normal; font-weight: bold; font-variant: normal; font-style: normal; fill: url(#linearGradient3707) rgb(0, 0, 0);"/>
  </g>
  <path id="rect4227" d="M 212.49998,189.87500 C 199.98817,205.93682 183.77282,218.86819 165.13399,227.37500 L 490.30449,227.51843 C 495.67094,227.51843 500.00000,222.01350 500.00000,215.17468 L 500.00000,202.36218 C 500.00000,195.52336 495.67095,190.01843 490.30449,190.01843 L 212.49998,189.87500 z " style="overflow: visible; marker: none; color: rgb(0, 0, 0); fill: rgb(255, 255, 255); fill-opacity: 0.196078; fill-rule: nonzero; stroke: rgb(139, 139, 139); stroke-width: 0.875; stroke-linecap: butt; stroke-linejoin: miter; stroke-miterlimit: 4; stroke-dashoffset: 0pt; stroke-opacity: 1; visibility: visible; display: inline;" sodipodi:nodetypes="ccccccc"/>
  <text sodipodi:linespacing="100%" id="text5026" y="213.108" x="222.369" style="text-anchor: start; font-family: Bitstream Vera Sans; stroke-opacity: 1; stroke-linejoin: miter; stroke-linecap: butt; stroke-width: 1px; stroke: none; fill-opacity: 1; fill: rgb(87, 86, 92); font-stretch: normal; font-weight: bold; font-variant: normal; font-style: normal;" xml:space="preserve"><tspan y="213.108" x="222.369" id="tspan5028" sodipodi:role="line">News</tspan></text>
  <text id="text5045" y="262.051" x="116.461" style="font-style: normal; font-weight: normal; fill: rgb(60, 60, 60); fill-opacity: 1; stroke: none; stroke-width: 1px; stroke-linecap: butt; stroke-linejoin: miter; stroke-opacity: 1; font-family: Bitstream Vera Sans;" xml:space="preserve"><tspan y="262.051" x="116.461" id="tspan5047" sodipodi:role="line">The Mana World 0.0.11 released!</tspan></text>
  <text xml:space="preserve" style="font-style: normal; font-variant: normal; font-weight: normal; font-stretch: normal; fill: rgb(0, 0, 0); fill-opacity: 1; stroke: none; stroke-width: 1px; stroke-linecap: butt; stroke-linejoin: miter; stroke-opacity: 1; font-family: Bitstream Vera Sans; text-anchor: end;" x="649.665" y="143.274" id="text2130" sodipodi:linespacing="100%"><tspan sodipodi:role="line" id="tspan2132" x="649.665" y="143.274">#manaworld</tspan><tspan sodipodi:role="line" id="tspan2134" x="649.665" y="151.367">irc.freenode.net</tspan></text>
  <text xml:space="preserve" style="font-style: normal; font-variant: normal; font-weight: normal; font-stretch: normal; fill: rgb(0, 0, 0); fill-opacity: 1; stroke: none; stroke-width: 1px; stroke-linecap: butt; stroke-linejoin: miter; stroke-opacity: 1; font-family: Bitstream Vera Sans; text-anchor: middle;" x="557.868" y="679.592" id="text2136" sodipodi:linespacing="100%"><tspan sodipodi:role="line" id="tspan2138" x="557.868" y="679.592">2004-2005 The Mana World Dev Team</tspan></text>
  <path style="fill: none; fill-opacity: 0.75; fill-rule: evenodd; stroke: rgb(139, 139, 139); stroke-width: 1px; stroke-linecap: butt; stroke-linejoin: miter; stroke-opacity: 1;" d="M 112.01759,265.55705 L 500.00008,264.86218" id="path2145"/>
  <text id="text2147" y="386.396" x="117.443" style="font-style: normal; font-weight: normal; fill: rgb(60, 60, 60); fill-opacity: 1; stroke: none; stroke-width: 1px; stroke-linecap: butt; stroke-linejoin: miter; stroke-opacity: 1; font-family: Bitstream Vera Sans;" xml:space="preserve"><tspan y="386.396" x="117.443" id="tspan2149" sodipodi:role="line">The Mana World 0.0.10 released!</tspan></text>
  <path style="fill: none; fill-opacity: 0.75; fill-rule: evenodd; stroke: rgb(139, 139, 139); stroke-width: 1px; stroke-linecap: butt; stroke-linejoin: miter; stroke-opacity: 1;" d="M 113.00000,389.86218 L 500.98249,389.16731" id="path2151"/>
  <text id="text2153" y="261.588" x="499.824" style="font-style: oblique; font-variant: normal; font-weight: normal; font-stretch: normal; fill: rgb(60, 60, 60); fill-opacity: 1; stroke: none; stroke-width: 1px; stroke-linecap: butt; stroke-linejoin: miter; stroke-opacity: 1; font-family: Bitstream Vera Sans; text-anchor: end;" xml:space="preserve" sodipodi:linespacing="100%"><tspan y="261.588" x="499.824" id="tspan2155" sodipodi:role="line">2 April 2005</tspan></text>
  <text id="text2157" y="385.931" x="500.273" style="font-style: oblique; font-variant: normal; font-weight: normal; font-stretch: normal; fill: rgb(60, 60, 60); fill-opacity: 1; stroke: none; stroke-width: 1px; stroke-linecap: butt; stroke-linejoin: miter; stroke-opacity: 1; font-family: Bitstream Vera Sans; text-anchor: end;" xml:space="preserve" sodipodi:linespacing="100%"><tspan y="385.931" x="500.273" id="tspan2159" sodipodi:role="line">5 March 2005</tspan></text>
  <text xml:space="preserve" style="font-style: normal; font-variant: normal; font-weight: normal; font-stretch: normal; fill: rgb(0, 0, 0); fill-opacity: 1; stroke: none; stroke-width: 1px; stroke-linecap: butt; stroke-linejoin: miter; stroke-opacity: 1; font-family: Bitstream Vera Sans; text-anchor: start;" x="119.955" y="409.859" id="text2161" sodipodi:linespacing="120%"><tspan sodipodi:role="line" id="tspan2163" x="119.955" y="409.859">Don't let the numbering fool you, it's still a quality release. Sorry for all the</tspan><tspan sodipodi:role="line" id="tspan2165" x="119.955" y="420.728">chaps that were waiting for 0.1.0, but we're still kinda far from that release..</tspan><tspan sodipodi:role="line" id="tspan2167" x="119.955" y="431.596">We're now going to maintain our almost monthly release schedule so you all</tspan><tspan sodipodi:role="line" id="tspan2169" x="119.955" y="442.465">can make lame jokes about "that time of the month".. wink</tspan><tspan sodipodi:role="line" id="tspan2171" x="119.955" y="453.333"/><tspan sodipodi:role="line" id="tspan2173" x="119.955" y="464.201">For those who will want to see the 0.1.0 someday soon, please help us. Once</tspan><tspan sodipodi:role="line" id="tspan2175" x="119.955" y="475.07">again our greatest need at the moment is the need for artists. So if you can</tspan><tspan sodipodi:role="line" id="tspan2177" x="119.955" y="485.938">draw (I'm counting stick figures as drawing so don't be afraid, we won't bite</tspan><tspan sodipodi:role="line" id="tspan2179" x="119.955" y="496.807">you) please contact us. Join the forums and come and greet us on the IRC</tspan><tspan sodipodi:role="line" id="tspan2181" x="119.955" y="507.675">channel (#manaworld on freenode).</tspan><tspan sodipodi:role="line" id="tspan2185" x="119.955" y="518.544"/><tspan sodipodi:role="line" id="tspan2187" x="119.955" y="529.412">Well then, I now have to leave you waiting for the 0.0.11 release.</tspan></text>
  <text xml:space="preserve" style="font-style: normal; font-variant: normal; font-weight: normal; font-stretch: normal; fill: rgb(0, 0, 0); fill-opacity: 1; stroke: none; stroke-width: 1px; stroke-linecap: butt; stroke-linejoin: miter; stroke-opacity: 1; font-family: Bitstream Vera Sans; text-anchor: start;" x="119.696" y="279.893" id="text2193" sodipodi:linespacing="120%"><tspan sodipodi:role="line" id="tspan2195" x="119.696" y="279.893">This new version solves many of the stability issues people have been</tspan><tspan sodipodi:role="line" id="tspan2235" x="119.696" y="290.762">experiencing with 0.0.10. Next to that important improvements are the</tspan><tspan sodipodi:role="line" id="tspan2237" x="119.696" y="301.63">ability to walk diagonally or with the mouse, the upgrade to the new</tspan><tspan sodipodi:role="line" id="tspan2239" x="119.696" y="312.499">Guichan release and related improvements to the GUI. Also, movement</tspan><tspan sodipodi:role="line" id="tspan2241" x="119.696" y="323.367">should now appear smoother.</tspan><tspan sodipodi:role="line" id="tspan2243" x="119.696" y="334.236"/><tspan sodipodi:role="line" id="tspan2245" x="119.696" y="345.104">Meanwhile we have started development on our own server. Stay tuned for</tspan><tspan sodipodi:role="line" id="tspan2247" x="119.696" y="355.973">more news about that!</tspan></text>
  <text id="text2231" y="361.471" x="498.114" style="font-style: oblique; font-variant: normal; font-weight: normal; font-stretch: normal; fill: rgb(60, 60, 60); fill-opacity: 1; stroke: none; stroke-width: 1px; stroke-linecap: butt; stroke-linejoin: miter; stroke-opacity: 1; font-family: Bitstream Vera Sans; text-anchor: end;" xml:space="preserve" sodipodi:linespacing="100%"><tspan y="361.471" x="498.114" id="tspan2233" sodipodi:role="line">Bjrn Lindeijer</tspan></text>
  <rect rx="6.8623815" ry="8.9129925" y="190.78954" x="525.53906" height="162.01013" width="112.50000" id="rect4212" style="overflow: visible; marker: none; display: inline; visibility: visible; stroke-opacity: 1; stroke-dashoffset: 0pt; stroke-miterlimit: 4; stroke-linejoin: miter; stroke-linecap: butt; stroke-width: 0.875; stroke: rgb(139, 139, 139); fill-rule: nonzero; fill-opacity: 0.196078; fill: rgb(255, 255, 255); color: rgb(0, 0, 0);"/>
  <rect rx="6.8623815" ry="8.9129982" y="365.98026" x="525.10156" height="98.823761" width="112.50000" id="rect2948" style="overflow: visible; marker: none; color: rgb(0, 0, 0); fill: rgb(255, 255, 255); fill-opacity: 0.196078; fill-rule: nonzero; stroke: rgb(139, 139, 139); stroke-width: 0.875; stroke-linecap: butt; stroke-linejoin: miter; stroke-miterlimit: 4; stroke-dashoffset: 0pt; stroke-opacity: 1; visibility: visible; display: inline;"/>
  <rect rx="6.8623815" ry="8.9129972" y="477.79968" x="525.53906" height="87.212158" width="112.50000" id="rect3713" style="overflow: visible; marker: none; display: inline; visibility: visible; stroke-opacity: 1; stroke-dashoffset: 0pt; stroke-miterlimit: 4; stroke-linejoin: miter; stroke-linecap: butt; stroke-width: 0.875; stroke: rgb(139, 139, 139); fill-rule: nonzero; fill-opacity: 0.196078; fill: rgb(255, 255, 255); color: rgb(0, 0, 0);"/>
  <text id="text4473" y="213.13" x="538.424" style="font-style: normal; font-weight: normal; fill: rgb(47, 46, 50); fill-opacity: 1; stroke: none; stroke-width: 1px; stroke-linecap: butt; stroke-linejoin: miter; stroke-opacity: 1; font-family: Bitstream Vera Sans;" xml:space="preserve"><tspan y="213.13" x="538.424" id="tspan4475" sodipodi:role="line">News</tspan></text>
  <text id="text4477" y="238.13" x="538.424" style="font-style: normal; font-weight: normal; fill: rgb(47, 46, 50); fill-opacity: 1; stroke: none; stroke-width: 1px; stroke-linecap: butt; stroke-linejoin: miter; stroke-opacity: 1; font-family: Bitstream Vera Sans;" xml:space="preserve"><tspan y="238.13" x="538.424" id="tspan4479" sodipodi:role="line">About</tspan></text>
  <text id="text4481" y="263.13" x="538.424" style="font-style: normal; font-weight: normal; fill: rgb(47, 46, 50); fill-opacity: 1; stroke: none; stroke-width: 1px; stroke-linecap: butt; stroke-linejoin: miter; stroke-opacity: 1; font-family: Bitstream Vera Sans;" xml:space="preserve"><tspan y="263.13" x="538.424" id="tspan4483" sodipodi:role="line">Downloads</tspan></text>
  <text id="text4485" y="288.13" x="538.424" style="font-style: normal; font-weight: normal; fill: rgb(47, 46, 50); fill-opacity: 1; stroke: none; stroke-width: 1px; stroke-linecap: butt; stroke-linejoin: miter; stroke-opacity: 1; font-family: Bitstream Vera Sans;" xml:space="preserve"><tspan y="288.13" x="538.424" id="tspan4487" sodipodi:role="line">Wiki</tspan></text>
  <text id="text4489" y="313.13" x="538.424" style="font-style: normal; font-weight: normal; fill: rgb(47, 46, 50); fill-opacity: 1; stroke: none; stroke-width: 1px; stroke-linecap: butt; stroke-linejoin: miter; stroke-opacity: 1; font-family: Bitstream Vera Sans;" xml:space="preserve"><tspan y="313.13" x="538.424" id="tspan4491" sodipodi:role="line">Forum</tspan></text>
  <text id="text4493" y="338.13" x="538.424" style="font-style: normal; font-weight: normal; fill: rgb(47, 46, 50); fill-opacity: 1; stroke: none; stroke-width: 1px; stroke-linecap: butt; stroke-linejoin: miter; stroke-opacity: 1; font-family: Bitstream Vera Sans;" xml:space="preserve"><tspan y="338.13" x="538.424" id="tspan4495" sodipodi:role="line">Links</tspan></text>
  <rect y="377.10159" x="537.63556" height="66.323563" width="88.125366" id="rect7030" style="overflow: visible; marker: none; opacity: 0.403409; color: rgb(0, 0, 0); fill: none; fill-opacity: 1; fill-rule: nonzero; stroke: rgb(0, 0, 0); stroke-width: 8.125; stroke-linecap: butt; stroke-linejoin: miter; stroke-miterlimit: 4; stroke-dashoffset: 0pt; stroke-opacity: 1; visibility: visible; display: inline;"/>
  <image y="373.74487" x="534.35547" id="image6230" height="72.843018" width="94.625656" sodipodi:absref="/home/bjorn/projects/tmw/screenshots/tmw-screenshot.png" xlink:href="tmwwebsite_nograd_files/tmw-screenshot.html"/>
  <text id="text6233" y="457.547" x="551.227" style="font-style: normal; font-weight: normal; fill: rgb(0, 0, 0); fill-opacity: 1; stroke: none; stroke-width: 1px; stroke-linecap: butt; stroke-linejoin: miter; stroke-opacity: 1; font-family: Bitstream Vera Sans;" xml:space="preserve"><tspan y="457.547" x="551.227" id="tspan6235" sodipodi:role="line">more screenshots</tspan></text>
  <text id="text7198" y="539.607" x="535.305" style="font-style: normal; font-weight: normal; fill: rgb(0, 0, 0); fill-opacity: 1; stroke: none; stroke-width: 1px; stroke-linecap: butt; stroke-linejoin: miter; stroke-opacity: 1; font-family: Bitstream Vera Sans;" xml:space="preserve"><tspan y="539.607" x="535.305" id="tspan7200" sodipodi:role="line"/></text>
  <text id="text7204" y="492.909" x="550.16" style="font-style: normal; font-weight: normal; fill: rgb(47, 46, 50); fill-opacity: 1; stroke: none; stroke-width: 1px; stroke-linecap: butt; stroke-linejoin: miter; stroke-opacity: 1; font-family: Bitstream Vera Sans;" xml:space="preserve"><tspan y="492.909" x="550.16" id="tspan7206" sodipodi:role="line">Server Status</tspan></text>
  <image y="239.86218" x="0.0000000" id="image8931" height="184.00000" width="90.000000" sodipodi:absref="/home/bjorn/banners.png" xlink:href="tmwwebsite_nograd_files/banners.html"/>
</svg>