<?xml version="1.0" encoding="UTF-8" standalone="no"?>
<!-- Created with Inkscape (http://www.inkscape.org/) -->
<svg
   xmlns:dc="http://purl.org/dc/elements/1.1/"
   xmlns:cc="http://web.resource.org/cc/"
   xmlns:rdf="http://www.w3.org/1999/02/22-rdf-syntax-ns#"
   xmlns:svg="http://www.w3.org/2000/svg"
   xmlns="http://www.w3.org/2000/svg"
   xmlns:xlink="http://www.w3.org/1999/xlink"
   xmlns:sodipodi="http://sodipodi.sourceforge.net/DTD/sodipodi-0.dtd"
   xmlns:inkscape="http://www.inkscape.org/namespaces/inkscape"
   height="297mm"
   width="210mm"
   id="svg2422"
   sodipodi:version="0.32"
   inkscape:version="0.45.1"
   sodipodi:docbase="J:\!_TMW_MOST_RECENT\R-Perspective reference"
   sodipodi:docname="Medival-downstairs2.svg"
   inkscape:output_extension="org.inkscape.output.svg.inkscape"
   inkscape:export-filename="J:\!_TMW_MOST_RECENT\R-Perspective reference\Medival-downstairs2.png"
   inkscape:export-xdpi="80.389999"
   inkscape:export-ydpi="80.389999">
  <defs
     id="defs2424">
    <linearGradient
       id="linearGradient4154">
      <stop
         style="stop-color:#999999;stop-opacity:1;"
         offset="0"
         id="stop4156" />
      <stop
         style="stop-color:#f8f8f8;stop-opacity:1;"
         offset="1"
         id="stop4158" />
    </linearGradient>
    <linearGradient
       inkscape:collect="always"
       xlink:href="#linearGradient4154"
       id="linearGradient4178"
       gradientUnits="userSpaceOnUse"
       x1="82.04673"
       y1="93.03846"
       x2="268.07034"
       y2="87.36235" />
    <clipPath
       clipPathUnits="userSpaceOnUse"
       id="clipPath3934">
      <path
         sodipodi:type="arc"
         style="color:#000000;fill:none;fill-opacity:1;fill-rule:nonzero;stroke:#000000;stroke-width:2.27230144;stroke-linecap:butt;stroke-linejoin:miter;marker:none;marker-start:none;marker-mid:none;marker-end:none;stroke-miterlimit:1;stroke-dasharray:none;stroke-dashoffset:0;stroke-opacity:1;visibility:visible;display:inline;overflow:visible;enable-background:accumulate"
         id="path3936"
         sodipodi:cx="163.64471"
         sodipodi:cy="149.28581"
         sodipodi:rx="111.11678"
         sodipodi:ry="111.11678"
         d="M 274.7615 149.28581 A 111.11678 111.11678 0 1 1  52.527931,149.28581 A 111.11678 111.11678 0 1 1  274.7615 149.28581 z"
         transform="matrix(1.0569916,0,0,0.73292,-14.694921,456.73564)"
         inkscape:export-xdpi="35.709999"
         inkscape:export-ydpi="35.709999" />
    </clipPath>
    <linearGradient
       inkscape:collect="always"
       xlink:href="#linearGradient4154"
       id="linearGradient3386"
       gradientUnits="userSpaceOnUse"
       x1="82.04673"
       y1="93.03846"
       x2="268.07034"
       y2="87.36235" />
    <linearGradient
       inkscape:collect="always"
       xlink:href="#linearGradient4154"
       id="linearGradient5484"
       gradientUnits="userSpaceOnUse"
       x1="82.04673"
       y1="93.03846"
       x2="268.07034"
       y2="87.36235" />
    <clipPath
       clipPathUnits="userSpaceOnUse"
       id="clipPath5521">
      <path
         sodipodi:type="arc"
         style="color:#000000;fill:none;fill-opacity:1;fill-rule:nonzero;stroke:#000000;stroke-width:2.39508033;stroke-linecap:butt;stroke-linejoin:miter;marker:none;marker-start:none;marker-mid:none;marker-end:none;stroke-miterlimit:1;stroke-dasharray:none;stroke-dashoffset:0;stroke-opacity:1;visibility:visible;display:inline;overflow:visible;enable-background:accumulate"
         id="path5523"
         sodipodi:cx="163.64471"
         sodipodi:cy="149.28581"
         sodipodi:rx="111.11678"
         sodipodi:ry="111.11678"
         d="M 274.7615 149.28581 A 111.11678 111.11678 0 1 1  52.527931,149.28581 A 111.11678 111.11678 0 1 1  274.7615 149.28581 z"
         transform="matrix(0.5926976,0,0,0.4132882,175.01706,626.39673)" />
    </clipPath>
  </defs>
  <sodipodi:namedview
     id="base"
     pagecolor="#ffffff"
     bordercolor="#666666"
     borderopacity="1.0"
     inkscape:pageopacity="0.0"
     inkscape:pageshadow="2"
     inkscape:cx="322.84921"
     inkscape:cy="429.62338"
     inkscape:zoom="1.4"
     inkscape:document-units="px"
     inkscape:current-layer="layer1"
     inkscape:window-width="840"
     inkscape:window-height="579"
     inkscape:window-x="66"
     inkscape:window-y="66" />
  <metadata
     id="metadata2427">
    <rdf:RDF>
      <cc:Work
         rdf:about="">
        <dc:format>image/svg+xml</dc:format>
        <dc:type
           rdf:resource="http://purl.org/dc/dcmitype/StillImage" />
      </cc:Work>
    </rdf:RDF>
  </metadata>
  <g
     inkscape:groupmode="layer"
     inkscape:label="Warstwa 1"
     id="layer1">
    <g
       id="g5528">
      <path
         transform="matrix(0.6294304,0,0,0.4390012,169.00593,622.55815)"
         d="M 274.7615 149.28581 A 111.11678 111.11678 0 1 1  52.527931,149.28581 A 111.11678 111.11678 0 1 1  274.7615 149.28581 z"
         sodipodi:ry="111.11678"
         sodipodi:rx="111.11678"
         sodipodi:cy="149.28581"
         sodipodi:cx="163.64471"
         id="path5526"
         style="color:#000000;fill:#999999;fill-opacity:1;fill-rule:nonzero;stroke:#000000;stroke-width:2.25505161;stroke-linecap:butt;stroke-linejoin:miter;marker:none;marker-start:none;marker-mid:none;marker-end:none;stroke-miterlimit:1;stroke-dasharray:none;stroke-dashoffset:0;stroke-opacity:1;visibility:visible;display:inline;overflow:visible;enable-background:accumulate"
         sodipodi:type="arc" />
      <g
         clip-path="url(#clipPath5521)"
         id="g5498">
        <path
           sodipodi:type="arc"
           style="color:#000000;fill:url(#linearGradient5484);fill-opacity:1;fill-rule:nonzero;stroke:#000000;stroke-width:2.39508033;stroke-linecap:butt;stroke-linejoin:miter;marker:none;marker-start:none;marker-mid:none;marker-end:none;stroke-miterlimit:1;stroke-dasharray:none;stroke-dashoffset:0;stroke-opacity:1;visibility:visible;display:inline;overflow:visible;enable-background:accumulate;opacity:1"
           id="path5488"
           sodipodi:cx="163.64471"
           sodipodi:cy="149.28581"
           sodipodi:rx="111.11678"
           sodipodi:ry="111.11678"
           d="M 274.7615 149.28581 A 111.11678 111.11678 0 1 1  52.527931,149.28581 A 111.11678 111.11678 0 1 1  274.7615 149.28581 z"
           transform="matrix(0.5926976,0,0,0.4132882,175.01706,626.39673)" />
        <path
           sodipodi:type="arc"
           style="color:#000000;fill:none;fill-opacity:1;fill-rule:nonzero;stroke:#999999;stroke-width:2.39508033;stroke-linecap:butt;stroke-linejoin:miter;marker:none;marker-start:none;marker-mid:none;marker-end:none;stroke-miterlimit:1;stroke-dasharray:none;stroke-dashoffset:0;stroke-opacity:1;visibility:visible;display:inline;overflow:visible;enable-background:accumulate"
           id="path5482"
           sodipodi:cx="163.64471"
           sodipodi:cy="149.28581"
           sodipodi:rx="111.11678"
           sodipodi:ry="111.11678"
           d="M 274.7615 149.28581 A 111.11678 111.11678 0 1 1  52.527931,149.28581 A 111.11678 111.11678 0 1 1  274.7615 149.28581 z"
           transform="matrix(0.5926976,0,0,0.4132882,175.01706,662.39673)" />
        <path
           sodipodi:type="arc"
           style="color:#000000;fill:none;fill-opacity:1;fill-rule:nonzero;stroke:#999999;stroke-width:2.39508033;stroke-linecap:butt;stroke-linejoin:miter;marker:none;marker-start:none;marker-mid:none;marker-end:none;stroke-miterlimit:1;stroke-dasharray:none;stroke-dashoffset:0;stroke-opacity:1;visibility:visible;display:inline;overflow:visible;enable-background:accumulate"
           id="path5476"
           sodipodi:cx="163.64471"
           sodipodi:cy="149.28581"
           sodipodi:rx="111.11678"
           sodipodi:ry="111.11678"
           d="M 274.7615 149.28581 A 111.11678 111.11678 0 1 1  52.527931,149.28581 A 111.11678 111.11678 0 1 1  274.7615 149.28581 z"
           transform="matrix(0.5926976,0,0,0.4132882,175.01706,656.39673)" />
        <path
           sodipodi:type="arc"
           style="color:#000000;fill:none;fill-opacity:1;fill-rule:nonzero;stroke:#999999;stroke-width:2.39508033;stroke-linecap:butt;stroke-linejoin:miter;marker:none;marker-start:none;marker-mid:none;marker-end:none;stroke-miterlimit:1;stroke-dasharray:none;stroke-dashoffset:0;stroke-opacity:1;visibility:visible;display:inline;overflow:visible;enable-background:accumulate"
           id="path5474"
           sodipodi:cx="163.64471"
           sodipodi:cy="149.28581"
           sodipodi:rx="111.11678"
           sodipodi:ry="111.11678"
           d="M 274.7615 149.28581 A 111.11678 111.11678 0 1 1  52.527931,149.28581 A 111.11678 111.11678 0 1 1  274.7615 149.28581 z"
           transform="matrix(0.5926976,0,0,0.4132882,175.01706,650.39673)" />
        <path
           sodipodi:type="arc"
           style="color:#000000;fill:none;fill-opacity:1;fill-rule:nonzero;stroke:#999999;stroke-width:2.39508033;stroke-linecap:butt;stroke-linejoin:miter;marker:none;marker-start:none;marker-mid:none;marker-end:none;stroke-miterlimit:1;stroke-dasharray:none;stroke-dashoffset:0;stroke-opacity:1;visibility:visible;display:inline;overflow:visible;enable-background:accumulate"
           id="path5472"
           sodipodi:cx="163.64471"
           sodipodi:cy="149.28581"
           sodipodi:rx="111.11678"
           sodipodi:ry="111.11678"
           d="M 274.7615 149.28581 A 111.11678 111.11678 0 1 1  52.527931,149.28581 A 111.11678 111.11678 0 1 1  274.7615 149.28581 z"
           transform="matrix(0.5926976,0,0,0.4132882,175.01706,644.39673)" />
        <path
           sodipodi:type="arc"
           style="color:#000000;fill:none;fill-opacity:1;fill-rule:nonzero;stroke:#999999;stroke-width:2.39508033;stroke-linecap:butt;stroke-linejoin:miter;marker:none;marker-start:none;marker-mid:none;marker-end:none;stroke-miterlimit:1;stroke-dasharray:none;stroke-dashoffset:0;stroke-opacity:1;visibility:visible;display:inline;overflow:visible;enable-background:accumulate"
           id="path5470"
           sodipodi:cx="163.64471"
           sodipodi:cy="149.28581"
           sodipodi:rx="111.11678"
           sodipodi:ry="111.11678"
           d="M 274.7615 149.28581 A 111.11678 111.11678 0 1 1  52.527931,149.28581 A 111.11678 111.11678 0 1 1  274.7615 149.28581 z"
           transform="matrix(0.5926976,0,0,0.4132882,175.01706,638.39673)" />
        <path
           sodipodi:type="arc"
           style="color:#000000;fill:none;fill-opacity:1;fill-rule:nonzero;stroke:#999999;stroke-width:2.39508033;stroke-linecap:butt;stroke-linejoin:miter;marker:none;marker-start:none;marker-mid:none;marker-end:none;stroke-miterlimit:1;stroke-dasharray:none;stroke-dashoffset:0;stroke-opacity:1;visibility:visible;display:inline;overflow:visible;enable-background:accumulate"
           id="path5468"
           sodipodi:cx="163.64471"
           sodipodi:cy="149.28581"
           sodipodi:rx="111.11678"
           sodipodi:ry="111.11678"
           d="M 274.7615 149.28581 A 111.11678 111.11678 0 1 1  52.527931,149.28581 A 111.11678 111.11678 0 1 1  274.7615 149.28581 z"
           transform="matrix(0.5926976,0,0,0.4132882,175.01706,632.39673)" />
        <path
           sodipodi:type="arc"
           style="color:#000000;fill:none;fill-opacity:1;fill-rule:nonzero;stroke:#999999;stroke-width:2.39508033;stroke-linecap:butt;stroke-linejoin:miter;marker:none;marker-start:none;marker-mid:none;marker-end:none;stroke-miterlimit:1;stroke-dasharray:none;stroke-dashoffset:0;stroke-opacity:1;visibility:visible;display:inline;overflow:visible;enable-background:accumulate"
           id="path5464"
           sodipodi:cx="163.64471"
           sodipodi:cy="149.28581"
           sodipodi:rx="111.11678"
           sodipodi:ry="111.11678"
           d="M 274.7615 149.28581 A 111.11678 111.11678 0 1 1  52.527931,149.28581 A 111.11678 111.11678 0 1 1  274.7615 149.28581 z"
           transform="matrix(0.5926976,0,0,0.4132882,175.01706,626.39673)" />
        <path
           style="color:#000000;fill:#ffffff;fill-opacity:1;fill-rule:nonzero;stroke:#000000;stroke-width:1.18539524;stroke-linecap:butt;stroke-linejoin:miter;marker:none;marker-start:none;marker-mid:none;marker-end:none;stroke-miterlimit:1;stroke-dasharray:none;stroke-dashoffset:0;stroke-opacity:1;visibility:visible;display:inline;overflow:visible;enable-background:accumulate"
           d="M 272.01573,678.16625 C 262.38858,678.16625 253.23819,679.61653 244.99243,682.20873 L 262.19918,713.10202 C 256.9434,715.38811 253.45689,719.45827 253.45689,724.0929 C 253.45689,731.23688 261.77052,737.03399 272.01573,737.03399 C 282.26095,737.03399 290.57457,731.23688 290.57458,724.0929 C 290.57458,719.37775 286.94457,715.24823 281.53594,712.98578 L 299.15017,682.24747 C 290.87491,679.6328 281.68704,678.16625 272.01573,678.16625 z "
           id="path2160" />
        <path
           style="color:#000000;fill:#ffffff;fill-opacity:1;fill-rule:nonzero;stroke:#000000;stroke-width:1.18539524;stroke-linecap:butt;stroke-linejoin:miter;marker:none;marker-start:none;marker-mid:none;marker-end:none;stroke-miterlimit:1;stroke-dasharray:none;stroke-dashoffset:0;stroke-opacity:1;visibility:visible;display:inline;overflow:visible;enable-background:accumulate"
           d="M 318.58551,685.621 C 311.77808,680.87418 303.83711,677.38794 295.37782,675.1552 L 276.21707,705.48412 C 270.18243,704.50919 263.5897,705.66814 258.88988,708.94533 C 251.64542,713.99689 251.64542,722.1952 258.88988,727.24678 C 266.13434,732.29836 277.89159,732.29836 285.13605,727.24678 C 289.91751,723.91266 291.53832,719.20283 290.0081,714.93621 L 333.63384,701.88593 C 330.43379,695.95683 325.42415,690.3896 318.58551,685.621 z "
           id="path3157" />
        <path
           style="color:#000000;fill:#ffffff;fill-opacity:1;fill-rule:nonzero;stroke:#000000;stroke-width:1.18539524;stroke-linecap:butt;stroke-linejoin:miter;marker:none;marker-start:none;marker-mid:none;marker-end:none;stroke-miterlimit:1;stroke-dasharray:none;stroke-dashoffset:0;stroke-opacity:1;visibility:visible;display:inline;overflow:visible;enable-background:accumulate"
           d="M 337.87134,712.09691 C 337.87134,705.3839 335.7915,699.00333 332.07401,693.25356 L 287.76987,705.25183 C 284.49138,701.58697 278.65436,699.15583 272.00782,699.15583 C 261.76261,699.15583 253.44897,704.95293 253.44897,712.09691 C 253.44897,719.24089 261.76261,725.038 272.00782,725.038 C 278.76982,725.038 284.69199,722.50681 287.93656,718.73535 L 332.01845,731.01778 C 335.76816,725.24741 337.87134,718.8407 337.87134,712.09691 z "
           id="path3163" />
        <path
           style="color:#000000;fill:#ffffff;fill-opacity:1;fill-rule:nonzero;stroke:#000000;stroke-width:1.18539524;stroke-linecap:butt;stroke-linejoin:miter;marker:none;marker-start:none;marker-mid:none;marker-end:none;stroke-miterlimit:1;stroke-dasharray:none;stroke-dashoffset:0;stroke-opacity:1;visibility:visible;display:inline;overflow:visible;enable-background:accumulate"
           d="M 318.57524,738.57322 C 325.38267,733.8264 330.38229,728.28917 333.58427,722.39046 L 290.0895,709.02969 C 291.48766,704.82175 289.82559,700.22463 285.12578,696.94744 C 277.88132,691.89588 266.12407,691.89588 258.87961,696.94744 C 251.63515,701.99901 251.63515,710.19735 258.87961,715.24889 C 263.66107,718.58301 270.41547,719.71319 276.53422,718.64616 L 295.24968,749.0664 C 303.75261,746.83502 311.73659,743.34182 318.57524,738.57322 z "
           id="path3169" />
        <path
           style="color:#000000;fill:#999999;fill-opacity:1;fill-rule:nonzero;stroke:#000000;stroke-width:1.18539524;stroke-linecap:butt;stroke-linejoin:miter;marker:none;marker-start:none;marker-mid:none;marker-end:none;stroke-miterlimit:1;stroke-dasharray:none;stroke-dashoffset:0;stroke-opacity:1;visibility:visible;display:inline;overflow:visible;enable-background:accumulate;opacity:1"
           d="M 271.99939,752.01881 C 281.62655,752.01881 290.77693,750.56854 299.02269,747.97635 L 281.81594,717.08306 C 287.07172,714.79696 290.55823,710.72681 290.55823,706.09216 C 290.55823,698.94818 282.2446,693.15109 271.99939,693.15109 C 261.75418,693.15109 253.44055,698.94818 253.44054,706.09216 C 253.44054,710.80732 257.07055,714.93685 262.47918,717.19928 L 244.86495,747.93759 C 253.14021,750.55226 262.32809,752.01881 271.99939,752.01881 z "
           id="path5460" />
        <path
           style="color:#000000;fill:#ffffff;fill-opacity:1;fill-rule:nonzero;stroke:#000000;stroke-width:1.18539524;stroke-linecap:butt;stroke-linejoin:miter;marker:none;marker-start:none;marker-mid:none;marker-end:none;stroke-miterlimit:1;stroke-dasharray:none;stroke-dashoffset:0;stroke-opacity:1;visibility:visible;display:inline;overflow:visible;enable-background:accumulate"
           d="M 271.99939,746.01881 C 281.62655,746.01881 290.77693,744.56854 299.02269,741.97635 L 281.81594,711.08306 C 287.07172,708.79696 290.55823,704.72681 290.55823,700.09216 C 290.55823,692.94818 282.2446,687.15109 271.99939,687.15109 C 261.75418,687.15109 253.44055,692.94818 253.44054,700.09216 C 253.44054,704.80732 257.07055,708.93685 262.47918,711.19928 L 244.86495,741.93759 C 253.14021,744.55226 262.32809,746.01881 271.99939,746.01881 z "
           id="path3175" />
        <path
           style="color:#000000;fill:#999999;fill-opacity:1;fill-rule:nonzero;stroke:#000000;stroke-width:1.18539524;stroke-linecap:butt;stroke-linejoin:miter;marker:none;marker-start:none;marker-mid:none;marker-end:none;stroke-miterlimit:1;stroke-dasharray:none;stroke-dashoffset:0;stroke-opacity:1;visibility:visible;display:inline;overflow:visible;enable-background:accumulate;opacity:1"
           d="M 225.42694,732.5633 C 232.23437,737.31012 240.17534,740.79637 248.63463,743.02912 L 267.79538,712.70018 C 273.83002,713.67512 280.42275,712.51618 285.12257,709.23897 C 292.36703,704.18743 292.36703,695.98909 285.12257,690.93753 C 277.87811,685.88596 266.12086,685.88596 258.8764,690.93753 C 254.09494,694.27164 252.47413,698.98149 254.00435,703.24807 L 210.37862,716.29839 C 213.57867,722.22746 218.5883,727.7947 225.42694,732.5633 z "
           id="path5456" />
        <path
           style="color:#000000;fill:#ffffff;fill-opacity:1;fill-rule:nonzero;stroke:#000000;stroke-width:1.18539524;stroke-linecap:butt;stroke-linejoin:miter;marker:none;marker-start:none;marker-mid:none;marker-end:none;stroke-miterlimit:1;stroke-dasharray:none;stroke-dashoffset:0;stroke-opacity:1;visibility:visible;display:inline;overflow:visible;enable-background:accumulate"
           d="M 225.42694,726.5633 C 232.23437,731.31012 240.17534,734.79637 248.63463,737.02912 L 267.79538,706.70018 C 273.83002,707.67512 280.42275,706.51618 285.12257,703.23897 C 292.36703,698.18743 292.36703,689.98909 285.12257,684.93753 C 277.87811,679.88596 266.12086,679.88596 258.8764,684.93753 C 254.09494,688.27164 252.47413,692.98149 254.00435,697.24807 L 210.37862,710.29839 C 213.57867,716.22746 218.5883,721.7947 225.42694,726.5633 z "
           id="path3181" />
        <g
           id="g5478">
          <path
             id="path5454"
             d="M 206.14457,694.08509 C 206.14457,700.79809 208.22441,707.17869 211.94189,712.92843 L 256.24604,700.93018 C 259.52453,704.59506 265.36155,707.02618 272.00809,707.02618 C 282.2533,707.02618 290.56693,701.22907 290.56693,694.08509 C 290.56693,686.94111 282.2533,681.14401 272.00809,681.144 C 265.24608,681.144 259.32391,683.67521 256.07934,687.44665 L 211.99746,675.16424 C 208.24775,680.93458 206.14457,687.34129 206.14457,694.08509 z "
             style="opacity:1;color:#000000;fill:#999999;fill-opacity:1;fill-rule:nonzero;stroke:#000000;stroke-width:1.18539524;stroke-linecap:butt;stroke-linejoin:miter;marker:none;marker-start:none;marker-mid:none;marker-end:none;stroke-miterlimit:1;stroke-dasharray:none;stroke-dashoffset:0;stroke-opacity:1;visibility:visible;display:inline;overflow:visible;enable-background:accumulate" />
          <path
             id="path3187"
             d="M 206.14457,688.08509 C 206.14457,694.79809 208.22441,701.17869 211.94189,706.92843 L 256.24604,694.93018 C 259.52453,698.59506 265.36155,701.02618 272.00809,701.02618 C 282.2533,701.02618 290.56693,695.22907 290.56693,688.08509 C 290.56693,680.94111 282.2533,675.14401 272.00809,675.144 C 265.24608,675.144 259.32391,677.67521 256.07934,681.44665 L 211.99746,669.16424 C 208.24775,674.93458 206.14457,681.34129 206.14457,688.08509 z "
             style="color:#000000;fill:#ffffff;fill-opacity:1;fill-rule:nonzero;stroke:#000000;stroke-width:1.18539524;stroke-linecap:butt;stroke-linejoin:miter;marker:none;marker-start:none;marker-mid:none;marker-end:none;stroke-miterlimit:1;stroke-dasharray:none;stroke-dashoffset:0;stroke-opacity:1;visibility:visible;display:inline;overflow:visible;enable-background:accumulate" />
        </g>
        <path
           style="fill:none;fill-rule:evenodd;stroke:#000000;stroke-width:1px;stroke-linecap:butt;stroke-linejoin:miter;stroke-opacity:1"
           d="M 255.89286,695.21932 L 255.89286,701.29075"
           id="path5494" />
        <path
           style="fill:none;fill-rule:evenodd;stroke:#000000;stroke-width:1px;stroke-linecap:butt;stroke-linejoin:miter;stroke-opacity:1"
           d="M 267.5,707.00504 L 267.5,712.8979"
           id="path5496" />
      </g>
      <path
         transform="matrix(0.5926976,0,0,0.4132882,175.01706,626.39673)"
         d="M 274.7615 149.28581 A 111.11678 111.11678 0 1 1  52.527931,149.28581 A 111.11678 111.11678 0 1 1  274.7615 149.28581 z"
         sodipodi:ry="111.11678"
         sodipodi:rx="111.11678"
         sodipodi:cy="149.28581"
         sodipodi:cx="163.64471"
         id="path3145"
         style="color:#000000;fill:none;fill-opacity:1;fill-rule:nonzero;stroke:#000000;stroke-width:2.39508033;stroke-linecap:butt;stroke-linejoin:miter;marker:none;marker-start:none;marker-mid:none;marker-end:none;stroke-miterlimit:1;stroke-dasharray:none;stroke-dashoffset:0;stroke-opacity:1;visibility:visible;display:inline;overflow:visible;enable-background:accumulate"
         sodipodi:type="arc" />
    </g>
  </g>
</svg>
